<svg xmlns="http://www.w3.org/2000/svg" viewBox="0 0 940 788"><defs><style>.cls-1{isolation:isolate;}.cls-2{opacity:0.25;mix-blend-mode:multiply;}.cls-3{fill:#000070;}</style></defs><title>Artboard 28 copy 8</title><g class="cls-1"><g id="Trein"><g class="cls-2"><path d="M788.66,514c3.41-11,7-21.42,9.75-32a34.28,34.28,0,0,0,.61-13.37c-1.71-11.62-4.08-23.14-6.21-34.7a16.11,16.11,0,0,0-.83-2.38l-1.75.83c-.66,2.74-1.67,5.45-1.89,8.23-.31,3.9.21,7.87,0,11.78-.65,10.41-2.66,20.32-12.41,26.42a68.66,68.66,0,0,1-11.17,5.88c-7.6,3-11.49,8.65-13.31,15.84l19-8a14.32,14.32,0,0,1-4.75,4.71c-15.23,9.75-31.57,17.2-48.51,23.43-9.27,3.41-18.69,6.45-27.83,10.16-5.32,2.16-9.8,6.91-16.3,2.57-1.63-1.09-4.63.11-6.8-.49-6.22-1.72-12.35-3.8-18.48-5.81-2.15-.71-5.54.69-5.93-3.34,0-.25-1.28-.51-2-.53-2.29-.08-4.58,0-6.87-.09-1.82-.11-5.11-.22-5.21-.77-1-5.86-5.55-3.57-8.83-4.26-2.07-.43-5.17-.7-5.85-2-1.69-3.32-4.26-2.79-7-3.19-2.32-.34-6.5-1.53-6.47-2.16.2-3.79-2.77-3.39-4.63-4-2.73-.93-5.69-1.14-8.44-2-1.17-.37-2.83-1.57-2.92-2.53-.34-3.35-2.58-3.92-5.13-4.28s-5.28-.35-7.78-1c-1.47-.4-2.71-1.75-4-2.8s-2.48-3.25-4-3.57a52.87,52.87,0,0,1-24-11.61c-4.37-3.75-9.6-6.48-14.35-9.8-1.83-1.28-2.32-2.77-.94-5.15,2.56-4.45,4.55-8.88,8.92-12.38s7.09-8.7,12.21-12.23a174.28,174.28,0,0,1,36-19.3c4.82-1.87,10-4.28,15.17-.27.51.39,1.43.2,2.08.46,3.82,1.55,7.61,3.17,11.42,4.73,1.13.46,2.91,1.48,3.33,1.1a4.83,4.83,0,0,0,1.51-3.68,10.7,10.7,0,0,0-2.35-5.44,62.1,62.1,0,0,0-9.45-8.29c-6.66-4.58-9-11.2-5.55-18.68,1.79-3.94,3.59-8.1,6.38-11.31,5.42-6.26,10.32-13.33,19-15.83,6.24-1.79,12.35-4,18.57-5.88,5.49-1.63,11-3.11,16.83-1.27,6.28,2,12.59,4,19.72,6.19,1.77-1.21,1.8-3.69-.12-6-2.12-2.54-4.86-4.58-7-7.08-2.92-3.35-8.61-4.15-9.15-9.64a63.06,63.06,0,0,1-.53-11.1c.43-5.37,3.29-8.18,8.43-8.84,17-2.17,34.08-4.76,51.28-2.94,9.62,1,19.12,3.22,28.69,4.79a14.2,14.2,0,0,0,3.51-.3c-.34-1.17-.35-2.66-1.09-3.46a90.06,90.06,0,0,0-6.79-6c29.29,0,57,1.94,83.95,11.32a17.18,17.18,0,0,0-5.12-4.76c-2.76-1.76-5.69-3.26-8.42-5-3.82-2.5-7.21-6.05-11.36-7.58-7.61-2.79-15.63-4.44-23.49-6.53-14.58-3.88-29.23-7.52-43.69-11.82-2.47-.74-6-4.44-5.75-6.44.37-3.61,4.75-3.72,7.89-3.53,6.93.43,13.82,1.5,20.76,1.8,2.09.09,4.25-1.5,6.38-2.32-1.45-1.64-2.88-3.28-4.35-4.9a1.5,1.5,0,0,0-.8-.32c-8.94-1.69-17.83-4-26.85-4.91-13.14-1.32-26.39-1.46-39.57-2.48-3.09-.24-6.07-2-9.1-3l-.16-1.49c3-2.25,5.7-5.68,9.05-6.51,7.93-2,16.18-2.68,24.28-4a50.85,50.85,0,0,0,6-1.72l-.24-1.57c-8.41-4.54-16.89-8.7-27-5.22a7.52,7.52,0,0,1-2.76.2c-3.14-.16-6.49-1.22-9.37-.47-16.42,4.28-32.68,9.13-49.08,13.48-9.39,2.49-18.18,9.27-29.6,4,5.17-16.73,18.57-22.47,35.31-25.9-2.45-1.68-3.78-3.18-5.36-3.53a30.56,30.56,0,0,0-9-.82c-5.35.43-6.31-4-4.27-7.2,5.86-9.1,13.46-15.88,25-16.72,1.09-.08,2.12-1,3.17-1.58l-.12-1.41L638.4,195.6c2.65-3.41,4.77-7,7.65-9.71,10.42-9.94,23.19-16.37,35.69-23.19a53.08,53.08,0,0,0,5.93-4.35l-.47-1.73c-2-.3-4.17-1.32-5.87-.78-6.6,2.13-13,4.78-19.53,7.19-21.47,8-41.54,18.72-61,30.71C577,208.46,553,223,529.55,238.34q-24.1,15.71-46.93,33.33c-14,10.81-26.69,23.22-35.73,38.73-3.36,5.76-5.48,12-1.4,18.54,1.94,3.12,4.33,3.68,7.28,1.65,2-1.35,3.8-2.9,5.69-4.36l.94.67c-.69,1.17-1.12,2.69-2.13,3.45a81.26,81.26,0,0,1-8,5.23c-7.23,4.3-14.56,8.42-21.73,12.81-1.95,1.19-3.48,1.72-4.73-.47-1.12-2-1.92-4.1-2.85-6.17-.61-1.34-1.2-2.68-1.81-4-1.36,1.16-3.78,2.23-3.88,3.48a123.53,123.53,0,0,0,.1,14.55c.05,1.4,1.2,3,.8,4.14-1.6,4.59-2.77,9.68-5.64,13.39A127.67,127.67,0,0,1,391.25,393c-5.41,4.55-12.38,7.24-18.4,10.6-4.36-2.93-6.57-8.18-12.53-7,.1.89.54,1.9.22,2.51-.89,1.67-1.83,4.12-3.24,4.51-1.94.54-4.52.84-5.53-2.88-1.21-4.47-6.85-7.17-10.57-6.71l-3,6.78c-2.31-1.14-4.67-2.19-6.93-3.43-3.09-1.7-4.72-6.24-9.43-5,.52,5.92-1.38,7.39-6.8,5.29a11.43,11.43,0,0,1-2.71-2.19l-7.4-6.18c-1,8-2.69,9-9,6.51-.77-6.37-4.89-10.69-10-11l-3.22,6.16c-7.79-.81-7.83-10.5-15.42-11.25.32,3.81-1.13,6.74-4.63,5.93-2.46-.57-4.39-3.38-6.56-5.2l.85-.35-2.54-6.72a2.18,2.18,0,0,1,.62-.71c3.22-1.82,5.14-3.68,3.69-8.14a5.49,5.49,0,0,1,4.34-6.86,9.36,9.36,0,0,0,4.06-1.87c2.54-2.3,4.5-6.35,7.29-7,3.41-.76,4.6-2.58,5.83-4.94a55.93,55.93,0,0,0,3.46-7.95c.82-2.44,2.12-3.42,4.55-2.43s4.07.16,5.52-2a56.9,56.9,0,0,1,5.25-6.41c.71-.77,2.16-1.8,2.81-1.54,4.41,1.76,6-1.37,7.81-4.17,1.28-1.94,2.68-3.81,3.85-5.82s2.42-3.58,5.18-2c.5.29,2.42-.86,3-1.77,4-6.94,6.61-8.43,13.4-7.22.88-2.06,1.44-4.44,2.79-6.23,2-2.6,4.57-6.8,6.78-6.72,5.34.19,4.81-2.73,4.91-5.9s.25-6,4.63-6.49c1.28-.14,2.62-2.46,3.36-4.05,1-2.07,1.92-4.43,1.83-6.62-.23-5.6,2.9-11,.47-16.76-.72-1.7-1-4.68-.08-5.77,4-4.51,1.79-8.21-.5-12.28-.73-1.3-1.21-3.64-.54-4.64,2-2.91.71-4.9-1-7L319.8,245.6c-3.46,10.24-10.2,18.33-17.52,25.78-11.88,12.08-27.55,18.76-41.59,27.75-9.92,6.35-20.36,11.92-30.06,18.58-9.94,6.84-19.28,14.55-28.83,21.95-10.66,8.26-21.64,16.28-28.95,27.94C167,376.87,162.4,386.44,162.3,398s2.34,22.08,6.48,32.62,10.21,19.62,19.68,26.43c7.8,5.61,15.32,11.49,24.46,14.86,5.86,2.16,11.65,4.54,17.5,6.73,2.62,1,4.91,2.17,4.51,5.49-1.24,10.52,2.7,19.31,8.88,27.45s5.86,17.75,6.59,27.1c.15,2-2,4.06-2.86,6.18-6.46,15.19-13.06,30.32-19.22,45.63-3.31,8.23-7.94,15-15.95,19.21a10.75,10.75,0,0,0-3.2,2.22c-7.56,8.74-16.31,9.62-25.84,2.63-3.5-2.57-6.95-2.55-10.3.37-4.59,4-9.06,8.15-13.86,11.89-5.68,4.42-7.38,9.8-4.3,16.32.5,1.07,2,1.67,3.49,2.85,1-4.33.39-8.47,5.24-9.95,2.16,5.69,5.11,10.13,12.58,7.94-1.38,3.92-2.61,7-3.54,10.13-1.84,6.27-.79,14.41,6.76,13.39l1.85-8.17a11.4,11.4,0,0,1,2,.45c9.31,4.85,10.63,4.68,18.33-2.42.42-.38,1.07-.5,1.51-.86,8.46-7.13,17.92-13.18,24.29-22.57a5.55,5.55,0,0,1,2.49-1.38c2.22-.91,4.71-1.4,6.64-2.71,2.45-1.67,4.46-4,7.11-6.44,2.21,5.77,6.69,5.3,12.32,4.07L252,633.31c4.45,1.07,7.69-.46,10.44-3.63,2.09-2.41,3-5.06,1.52-8-.61-1.25-2.3-2.17-2.47-3.39-.78-5.7-5.12-5.51-9.14-5.85-2.07-.18-4.17,0-6.32,0,.15-.87.12-1.34.25-1.4,4.41-1.76,8.58-4.53,12.82-5.9,3.69-1.19,4.3-2.33,4.85-5.43a8.33,8.33,0,0,1,3.16-5.16c1-.65,3.31.7,5.33,1.23,3.19-3.24,2-7.55,1.44-11.66-.31-2.42.29-4.92,2.68-4.21,5.88,1.75,4.81-1.9,4.06-4.79-1.09-4.23.44-6,4.94-6.21.67,3.58,1.83,7.25,2,11,.46,14-1.36,27.82-3.77,41.59-2.24,12.82-12.58,18.44-21.75,25.13a3.32,3.32,0,0,1-2.5.39c-4.44-1.19-9-2.1-13.2-3.93-3.24-1.42-6-1.81-9.1-.17a7.78,7.78,0,0,1-2.82,1.05c-6.09.5-10.53,3-11.52,9.43-9,.92-14.6,5.69-15,12.63-.32,6,2.29,9.87,7.53,10.94a17.83,17.83,0,0,0,0-3.83c-.64-2.84.8-4,3.23-4.53s3.43.3,4.49,2.73a7.82,7.82,0,0,0,5.41,3.89c3.42.38,7-.49,10.26-.81-6.73,11.49-3.48,22.18,7.38,23.35a49.7,49.7,0,0,1-2.31-7.53c-.2-1.32.86-2.84,1.35-4.27a23.8,23.8,0,0,1,3.27,1.57c6,4.09,11.87,4,15.5.26a88.22,88.22,0,0,1,11.46-10.44c6.22-4.51,12.19-9.43,15.65-16.17,5-9.75,10.53-9.71,17.76-8.72,3.82.52,6.51-.44,8.76-3.36a29.17,29.17,0,0,1,3-2.62c0,3.31.35,5.43-.1,7.36s-1.69,3.49-2.94,5.92c7.86-2.85,11.26-8.69,10.87-17.29-.35-7.83-5.31-12.09-13.14-11.16l.4-7.77c5.51,1.28,5.07-2.34,5.42-5.68.46-4.43,1.27-8.83,2-13.22.39-2.2,1.67-2.35,3.52-1.35a26.25,26.25,0,0,0,4.13,1.44,25.43,25.43,0,0,0,.84-4.9c0-1.56-.86-3.1-1-4.68a57,57,0,0,1-.24-10.32c.26-2.28,1.2-5.16,4.7-4.28s4.2-1.27,3.74-3.83c-.38-2.09-1.87-4-2.34-6A68.59,68.59,0,0,1,335,560.1c-.06-.85,1.52-2.62,2.22-2.56a38,38,0,0,1,8.56,1.73c2.45.82,4.69,2.28,7,3.41,9.56,4.56,19.21,8.93,28.65,13.71,6.45,3.27,12.47,7.41,18.95,10.64,9.1,4.54,18.39,8.74,27.72,12.8,5.57,2.43,11.31,4.51,17.09,6.42,12.25,4.05,25,3.46,37.63,3.45,5.53,0,6.6,1.09,5.37,6.39-3.23,13.89-9.9,25.33-23.21,32-4,2-7.57,5-11.67,6.73-7.14,3.05-13.31.1-18.82-4.42-6.53-5.36-15.75-6.22-22.44-2a10.25,10.25,0,0,0-5.06,8.21l9.35-2.73.77,1.3c-.57.83-1.42,2.46-1.68,2.38-4.79-1.64-7.75,2.39-11.6,3.49-5.49,1.56-7.94,5.79-9.68,10.39-1,2.72-1.24,6.1.83,8.25,2.8-2.38,5.17-4.61,7.79-6.48a3.72,3.72,0,0,1,3.25.11c1.4.77,2.28,9.14,2,10.78a101.13,101.13,0,0,0-1.59,14.06c0,1.53,1.77,3.11,2.9,4.94,3.39-3.37.7-9.09,6-10.19,5.12,6.49,12.23,6.52,17.7.14.46-.54.86-1.32,1.45-1.53,3.89-1.37,8-2.29,11.7-4,5.28-2.37,11-4.49,15.32-8.13a41.55,41.55,0,0,1,19.54-8.86,5,5,0,0,1,4.07,1.46c3.62,4.6,8,6.89,14.69,5.2l-3.5,3.68c5.66,1.49,9.31-.31,12.33-5.78,2.8-5.08,1-12.53-3.9-17.28.84-1.86,2.29-3.56,2.22-5.19-.2-4.49,2.61-7,6.88-5.5s5.11.37,5.65-4.15c.24-2,2-4.3,3.71-5.61,1.31-1,3.64-.67,5.52-.89,7.43-.89,9.37-2.62,11-10.21a47.93,47.93,0,0,0-5.06-2.95c-3.57-1.57-4.42-3.49-2.07-6.66,1.5-2,3.89-3.36,5.63-5.25,2-2.15,4.13-2.84,7.14-3.12,6.72-.63,13.34-2.23,20-3.37a5.13,5.13,0,0,1,2.87.18c6.7,3.17,13.1,7.14,20.06,9.55,9.54,3.31,19.36,4.58,29.61,1.7,3.5-1,7.88,1,11.81,1.85.5.11,1,1.67,1,2.56-.14,8.82,3.14,16.42,8.12,23.46,2.71,3.83,5.18,7.85,8.05,11.56a62.92,62.92,0,0,0,6.31,6.43c1.79,1.73,3.68,3.37,5.52,5l-.89,1.15a20.52,20.52,0,0,1-15.31-5.58c-6.19-5.65-17.73-5.3-23.41.86-2.69,2.92-3.54,6.31-2.27,10.56a45.21,45.21,0,0,1,3.62-3.13,34.63,34.63,0,0,1,3.68-2l1.14.9c-1.11,2.15-3.36,4.46-3.08,6.4.48,3.3-1.28,5.08-2.72,7.27-3.94,6-2.65,12,3.61,15.11a41,41,0,0,1,1.13-4.59,27.63,27.63,0,0,1,1.75-3.47c2.27,1.59,4,3.65,6,4,2.29.37,4.84-.79,7.14-1.26-.24,3.07-1.11,6.29-.57,9.26.68,3.76,3.19,4.38,7.51,2.58-1.1-2.93-1.7-5.86,1.59-7.1,2.72,1.12,5.53,2.35,8.11,2,5.21-.74,10.28-2.36,12.77-7.85a3.32,3.32,0,0,1,1.14-1.2c3-2.13,6.2-4.06,9.08-6.37,3.6-2.89,7.24-2.87,11.4-1a33.3,33.3,0,0,0,11.94,2.85c7.24.26,14.07,3.93,21.48,2.39.35-.07.79.4,1.21.45,1.71.23,3.52.83,5.13.5,5.16-1.05,10.28-2.33,15.34-3.77s10.16-2.66,14.84-4.85c7-3.29,14.89-6.12,20.33-11.31,11.48-11,19.43-23.71,18.81-41.2S794.4,596,782.6,583.07c-2.63-2.9-6.47-5.5-7.44-8.9-1.34-4.69-5.19-4.71-7.93-6.81-1.47-1.12-2.46-2.86-3.67-4.32a70.05,70.05,0,0,0-10.6-5.14c-.88-.38-2.29-1-2.32-1.62-.18-4.41-3.49-3.82-6.26-4.26-3.88-.61-8.32-.19-9.88-5.31-.15-.49-1.41-.78-2.19-.93-3.85-.7-7.71-1.32-11.56-2l-.27-1.39c24.66-10.08,47.8-22.31,64.28-44.49C784.57,503.51,784,509.14,788.66,514ZM657.88,624c7.47,4.59,11.23,11.74,14.93,19.47C664.24,642.84,655,632,657.88,624Zm75-25.85a88.21,88.21,0,0,1,13.95,7.63c7.65,5.33,11.76,13.66,16.83,21.17,1.68,2.5,3.16,4.83,2.43,7.63a6.08,6.08,0,0,1-.73,4.74c-.47.83-.69,2-1.39,2.47-3.18,2.24-6.24,5-9.8,6.26-6.1,2.14-12.54,3.28-18.83,4.89a16.54,16.54,0,0,0-2.67,1.17c-2,.91-3.94,2.51-6,2.63-6,.35-12.13.13-17.76.13l-3.2-13.78.61-.33-.61-2.65c.76-.38,1-.61,1.27-.61,1.58,0,3.16,0,4.74-.06a15.26,15.26,0,0,0-.86-3.45c-1-2.49-2.64-4.74-4.62-8.18l1.6-.29c-.5-.82-1-1.7-1.6-2.68l11-2a67.48,67.48,0,0,0-5.57-5.88c-3.13-2.79-6.33-4.82-5.49-9.74a9,9,0,0,1,.4-4.63,10.77,10.77,0,0,0,.43-2.25c-.21-2.91-.92-6-1.14-9.22l.33,0c-.14-1-.26-2-.33-3a13.84,13.84,0,0,1,3.9.41C717.5,591.62,725.26,594.7,732.85,598.15Z"/></g><path class="cls-3" d="M784.66,512c3.41-11,7-21.42,9.75-32a34.28,34.28,0,0,0,.61-13.37c-1.71-11.62-4.08-23.14-6.21-34.7a16.11,16.11,0,0,0-.83-2.38l-1.75.83c-.66,2.74-1.67,5.45-1.89,8.23-.31,3.9.21,7.87,0,11.78-.65,10.41-2.66,20.32-12.41,26.42a68.66,68.66,0,0,1-11.17,5.88c-7.6,3-11.49,8.65-13.31,15.84l19-8a14.32,14.32,0,0,1-4.75,4.71c-15.23,9.75-31.57,17.2-48.51,23.43-9.27,3.41-18.69,6.45-27.83,10.16-5.32,2.16-9.8,6.91-16.3,2.57-1.63-1.09-4.63.11-6.8-.49-6.22-1.72-12.35-3.8-18.48-5.81-2.15-.71-5.54.69-5.93-3.34,0-.25-1.28-.51-2-.53-2.29-.08-4.58,0-6.87-.09-1.82-.11-5.11-.22-5.21-.77-1-5.86-5.55-3.57-8.83-4.26-2.07-.43-5.17-.7-5.85-2-1.69-3.32-4.26-2.79-7-3.19-2.32-.34-6.5-1.53-6.47-2.16.2-3.79-2.77-3.39-4.63-4-2.73-.93-5.69-1.14-8.44-2-1.17-.37-2.83-1.57-2.92-2.53-.34-3.35-2.58-3.92-5.13-4.28s-5.28-.35-7.78-1c-1.47-.4-2.71-1.75-4-2.8s-2.48-3.25-4-3.57a52.87,52.87,0,0,1-24-11.61c-4.37-3.75-9.6-6.48-14.35-9.8-1.83-1.28-2.32-2.77-.94-5.15,2.56-4.45,4.55-8.88,8.92-12.38s7.09-8.7,12.21-12.23a174.28,174.28,0,0,1,36-19.3c4.82-1.87,10-4.28,15.17-.27.51.39,1.43.2,2.08.46,3.82,1.55,7.61,3.17,11.42,4.73,1.13.46,2.91,1.48,3.33,1.1a4.83,4.83,0,0,0,1.51-3.68,10.7,10.7,0,0,0-2.35-5.44,62.1,62.1,0,0,0-9.45-8.29c-6.66-4.58-9-11.2-5.55-18.68,1.79-3.94,3.59-8.1,6.38-11.31,5.42-6.26,10.32-13.33,19-15.83,6.24-1.79,12.35-4,18.57-5.88,5.49-1.63,11-3.11,16.83-1.27,6.28,2,12.59,4,19.72,6.19,1.77-1.21,1.8-3.69-.12-6-2.12-2.54-4.86-4.58-7-7.08-2.92-3.35-8.61-4.15-9.15-9.64a63.06,63.06,0,0,1-.53-11.1c.43-5.37,3.29-8.18,8.43-8.84,17-2.17,34.08-4.76,51.28-2.94,9.62,1,19.12,3.22,28.69,4.79a14.2,14.2,0,0,0,3.51-.3c-.34-1.17-.35-2.66-1.09-3.46a90.06,90.06,0,0,0-6.79-6c29.29,0,57,1.94,83.95,11.32a17.18,17.18,0,0,0-5.12-4.76c-2.76-1.76-5.69-3.26-8.42-5-3.82-2.5-7.21-6.05-11.36-7.58-7.61-2.79-15.63-4.44-23.49-6.53-14.58-3.88-29.23-7.52-43.69-11.82-2.47-.74-6-4.44-5.75-6.44.37-3.61,4.75-3.72,7.89-3.53,6.93.43,13.82,1.5,20.76,1.8,2.09.09,4.25-1.5,6.38-2.32-1.45-1.64-2.88-3.28-4.35-4.9a1.5,1.5,0,0,0-.8-.32c-8.94-1.69-17.83-4-26.85-4.91-13.14-1.32-26.39-1.46-39.57-2.48-3.09-.24-6.07-2-9.1-3l-.16-1.49c3-2.25,5.7-5.68,9.05-6.51,7.93-2,16.18-2.68,24.28-4a50.85,50.85,0,0,0,6-1.72l-.24-1.57c-8.41-4.54-16.89-8.7-27-5.22a7.52,7.52,0,0,1-2.76.2c-3.14-.16-6.49-1.22-9.37-.47-16.42,4.28-32.68,9.13-49.08,13.48-9.39,2.49-18.18,9.27-29.6,4,5.17-16.73,18.57-22.47,35.31-25.9-2.45-1.68-3.78-3.18-5.36-3.53a30.56,30.56,0,0,0-9-.82c-5.35.43-6.31-4-4.27-7.2,5.86-9.1,13.46-15.88,25-16.72,1.09-.08,2.12-1,3.17-1.58l-.12-1.41L634.4,193.6c2.65-3.41,4.77-7,7.65-9.71,10.42-9.94,23.19-16.37,35.69-23.19a53.08,53.08,0,0,0,5.93-4.35l-.47-1.73c-2-.3-4.17-1.32-5.87-.78-6.6,2.13-13,4.78-19.53,7.19-21.47,8-41.54,18.72-61,30.71C573,206.46,549,221,525.55,236.34q-24.1,15.71-46.93,33.33c-14,10.81-26.69,23.22-35.73,38.73-3.36,5.76-5.48,12-1.4,18.54,1.94,3.12,4.33,3.68,7.28,1.65,2-1.35,3.8-2.9,5.69-4.36l.94.67c-.69,1.17-1.12,2.69-2.13,3.45a81.26,81.26,0,0,1-8,5.23c-7.23,4.3-14.56,8.42-21.73,12.81-1.95,1.19-3.48,1.72-4.73-.47-1.12-2-1.92-4.1-2.85-6.17-.61-1.34-1.2-2.68-1.81-4-1.36,1.16-3.78,2.23-3.88,3.48a123.53,123.53,0,0,0,.1,14.55c.05,1.4,1.2,3,.8,4.14-1.6,4.59-2.77,9.68-5.64,13.39A127.67,127.67,0,0,1,387.25,391c-5.41,4.55-12.38,7.24-18.4,10.6-4.36-2.93-6.57-8.18-12.53-7,.1.89.54,1.9.22,2.51-.89,1.67-1.83,4.12-3.24,4.51-1.94.54-4.52.84-5.53-2.88-1.21-4.47-6.85-7.17-10.57-6.71l-3,6.78c-2.31-1.14-4.67-2.19-6.93-3.43-3.09-1.7-4.72-6.24-9.43-5,.52,5.92-1.38,7.39-6.8,5.29a11.43,11.43,0,0,1-2.71-2.19l-7.4-6.18c-1,8-2.69,9-9,6.51-.77-6.37-4.89-10.69-10-11l-3.22,6.16c-7.79-.81-7.83-10.5-15.42-11.25.32,3.81-1.13,6.74-4.63,5.93-2.46-.57-4.39-3.38-6.56-5.2l.85-.35-2.54-6.72a2.18,2.18,0,0,1,.62-.71c3.22-1.82,5.14-3.68,3.69-8.14a5.49,5.49,0,0,1,4.34-6.86,9.36,9.36,0,0,0,4.06-1.87c2.54-2.3,4.5-6.35,7.29-7,3.41-.76,4.6-2.58,5.83-4.94a55.93,55.93,0,0,0,3.46-7.95c.82-2.44,2.12-3.42,4.55-2.43s4.07.16,5.52-2a56.9,56.9,0,0,1,5.25-6.41c.71-.77,2.16-1.8,2.81-1.54,4.41,1.76,6-1.37,7.81-4.17,1.28-1.94,2.68-3.81,3.85-5.82s2.42-3.58,5.18-2c.5.29,2.42-.86,3-1.77,4-6.94,6.61-8.43,13.4-7.22.88-2.06,1.44-4.44,2.79-6.23,2-2.6,4.57-6.8,6.78-6.72,5.34.19,4.81-2.73,4.91-5.9s.25-6,4.63-6.49c1.28-.14,2.62-2.46,3.36-4.05,1-2.07,1.92-4.43,1.83-6.62-.23-5.6,2.9-11,.47-16.76-.72-1.7-1-4.68-.08-5.77,4-4.51,1.79-8.21-.5-12.28-.73-1.3-1.21-3.64-.54-4.64,2-2.91.71-4.9-1-7L315.8,243.6c-3.46,10.24-10.2,18.33-17.52,25.78-11.88,12.08-27.55,18.76-41.59,27.75-9.92,6.35-20.36,11.92-30.06,18.58-9.94,6.84-19.28,14.55-28.83,21.95-10.66,8.26-21.64,16.28-28.95,27.94C163,374.87,158.4,384.44,158.3,396s2.34,22.08,6.48,32.62,10.21,19.62,19.68,26.43c7.8,5.61,15.32,11.49,24.46,14.86,5.86,2.16,11.65,4.54,17.5,6.73,2.62,1,4.91,2.17,4.51,5.49-1.24,10.52,2.7,19.31,8.88,27.45s5.86,17.75,6.59,27.1c.15,2-2,4.06-2.86,6.18-6.46,15.19-13.06,30.32-19.22,45.63-3.31,8.23-7.94,15-15.95,19.21a10.75,10.75,0,0,0-3.2,2.22c-7.56,8.74-16.31,9.62-25.84,2.63-3.5-2.57-6.95-2.55-10.3.37-4.59,4-9.06,8.15-13.86,11.89-5.68,4.42-7.38,9.8-4.3,16.32.5,1.07,2,1.67,3.49,2.85,1-4.33.39-8.47,5.24-9.95,2.16,5.69,5.11,10.13,12.58,7.94-1.38,3.92-2.61,7-3.54,10.13-1.84,6.27-.79,14.41,6.76,13.39l1.85-8.17a11.4,11.4,0,0,1,2,.45c9.31,4.85,10.63,4.68,18.33-2.42.42-.38,1.07-.5,1.51-.86,8.46-7.13,17.92-13.18,24.29-22.57a5.55,5.55,0,0,1,2.49-1.38c2.22-.91,4.71-1.4,6.64-2.71,2.45-1.67,4.46-4,7.11-6.44,2.21,5.77,6.69,5.3,12.32,4.07L248,631.31c4.45,1.07,7.69-.46,10.44-3.63,2.09-2.41,3-5.06,1.52-8-.61-1.25-2.3-2.17-2.47-3.39-.78-5.7-5.12-5.51-9.14-5.85-2.07-.18-4.17,0-6.32,0,.15-.87.12-1.34.25-1.4,4.41-1.76,8.58-4.53,12.82-5.9,3.69-1.19,4.3-2.33,4.85-5.43a8.33,8.33,0,0,1,3.16-5.16c1-.65,3.31.7,5.33,1.23,3.19-3.24,2-7.55,1.44-11.66-.31-2.42.29-4.92,2.68-4.21,5.88,1.75,4.81-1.9,4.06-4.79-1.09-4.23.44-6,4.94-6.21.67,3.58,1.83,7.25,2,11,.46,14-1.36,27.82-3.77,41.59-2.24,12.82-12.58,18.44-21.75,25.13a3.32,3.32,0,0,1-2.5.39c-4.44-1.19-9-2.1-13.2-3.93-3.24-1.42-6-1.81-9.1-.17a7.78,7.78,0,0,1-2.82,1.05c-6.09.5-10.53,3-11.52,9.43-9,.92-14.6,5.69-15,12.63-.32,6,2.29,9.87,7.53,10.94a17.83,17.83,0,0,0,0-3.83c-.64-2.84.8-4,3.23-4.53s3.43.3,4.49,2.73a7.82,7.82,0,0,0,5.41,3.89c3.42.38,7-.49,10.26-.81-6.73,11.49-3.48,22.18,7.38,23.35a49.7,49.7,0,0,1-2.31-7.53c-.2-1.32.86-2.84,1.35-4.27a23.8,23.8,0,0,1,3.27,1.57c6,4.09,11.87,4,15.5.26a88.22,88.22,0,0,1,11.46-10.44c6.22-4.51,12.19-9.43,15.65-16.17,5-9.75,10.53-9.71,17.76-8.72,3.82.52,6.51-.44,8.76-3.36a29.17,29.17,0,0,1,3-2.62c0,3.31.35,5.43-.1,7.36s-1.69,3.49-2.94,5.92c7.86-2.85,11.26-8.69,10.87-17.29-.35-7.83-5.31-12.09-13.14-11.16l.4-7.77c5.51,1.28,5.07-2.34,5.42-5.68.46-4.43,1.27-8.83,2-13.22.39-2.2,1.67-2.35,3.52-1.35a26.25,26.25,0,0,0,4.13,1.44,25.43,25.43,0,0,0,.84-4.9c0-1.56-.86-3.1-1-4.68a57,57,0,0,1-.24-10.32c.26-2.28,1.2-5.16,4.7-4.28s4.2-1.27,3.74-3.83c-.38-2.09-1.87-4-2.34-6A68.59,68.59,0,0,1,331,558.1c-.06-.85,1.52-2.62,2.22-2.56a38,38,0,0,1,8.56,1.73c2.45.82,4.69,2.28,7,3.41,9.56,4.56,19.21,8.93,28.65,13.71,6.45,3.27,12.47,7.41,18.95,10.64,9.1,4.54,18.39,8.74,27.72,12.8,5.57,2.43,11.31,4.51,17.09,6.42,12.25,4.05,25,3.46,37.63,3.45,5.53,0,6.6,1.09,5.37,6.39-3.23,13.89-9.9,25.33-23.21,32-4,2-7.57,5-11.67,6.73-7.14,3.05-13.31.1-18.82-4.42-6.53-5.36-15.75-6.22-22.44-2a10.25,10.25,0,0,0-5.06,8.21l9.35-2.73.77,1.3c-.57.83-1.42,2.46-1.68,2.38-4.79-1.64-7.75,2.39-11.6,3.49-5.49,1.56-7.94,5.79-9.68,10.39-1,2.72-1.24,6.1.83,8.25,2.8-2.38,5.17-4.61,7.79-6.48a3.72,3.72,0,0,1,3.25.11c1.4.77,2.28,9.14,2,10.78a101.13,101.13,0,0,0-1.59,14.06c0,1.53,1.77,3.11,2.9,4.94,3.39-3.37.7-9.09,6-10.19,5.12,6.49,12.23,6.52,17.7.14.46-.54.86-1.32,1.45-1.53,3.89-1.37,8-2.29,11.7-4,5.28-2.37,11-4.49,15.32-8.13a41.55,41.55,0,0,1,19.54-8.86,5,5,0,0,1,4.07,1.46c3.62,4.6,8,6.89,14.69,5.2l-3.5,3.68c5.66,1.49,9.31-.31,12.33-5.78,2.8-5.08,1-12.53-3.9-17.28.84-1.86,2.29-3.56,2.22-5.19-.2-4.49,2.61-7,6.88-5.5s5.11.37,5.65-4.15c.24-2,2-4.3,3.71-5.61,1.31-1,3.64-.67,5.52-.89,7.43-.89,9.37-2.62,11-10.21a47.93,47.93,0,0,0-5.06-2.95c-3.57-1.57-4.42-3.49-2.07-6.66,1.5-2,3.89-3.36,5.63-5.25,2-2.15,4.13-2.84,7.14-3.12,6.72-.63,13.34-2.23,20-3.37a5.13,5.13,0,0,1,2.87.18c6.7,3.17,13.1,7.14,20.06,9.55,9.54,3.31,19.36,4.58,29.61,1.7,3.5-1,7.88,1,11.81,1.85.5.11,1,1.67,1,2.56-.14,8.82,3.14,16.42,8.12,23.46,2.71,3.83,5.18,7.85,8.05,11.56a62.92,62.92,0,0,0,6.31,6.43c1.79,1.73,3.68,3.37,5.52,5l-.89,1.15a20.52,20.52,0,0,1-15.31-5.58c-6.19-5.65-17.73-5.3-23.41.86-2.69,2.92-3.54,6.31-2.27,10.56a45.21,45.21,0,0,1,3.62-3.13,34.63,34.63,0,0,1,3.68-2l1.14.9c-1.11,2.15-3.36,4.46-3.08,6.4.48,3.3-1.28,5.08-2.72,7.27-3.94,6-2.65,12,3.61,15.11a41,41,0,0,1,1.13-4.59,27.63,27.63,0,0,1,1.75-3.47c2.27,1.59,4,3.65,6,4,2.29.37,4.84-.79,7.14-1.26-.24,3.07-1.11,6.29-.57,9.26.68,3.76,3.19,4.38,7.51,2.58-1.1-2.93-1.7-5.86,1.59-7.1,2.72,1.12,5.53,2.35,8.11,2,5.21-.74,10.28-2.36,12.77-7.85a3.32,3.32,0,0,1,1.14-1.2c3-2.13,6.2-4.06,9.08-6.37,3.6-2.89,7.24-2.87,11.4-1a33.3,33.3,0,0,0,11.94,2.85c7.24.26,14.07,3.93,21.48,2.39.35-.07.79.4,1.21.45,1.71.23,3.52.83,5.13.5,5.16-1.05,10.28-2.33,15.34-3.77s10.16-2.66,14.84-4.85c7-3.29,14.89-6.12,20.33-11.31,11.48-11,19.43-23.71,18.81-41.2S790.4,594,778.6,581.07c-2.63-2.9-6.47-5.5-7.44-8.9-1.34-4.69-5.19-4.71-7.93-6.81-1.47-1.12-2.46-2.86-3.67-4.32a70.05,70.05,0,0,0-10.6-5.14c-.88-.38-2.29-1-2.32-1.62-.18-4.41-3.49-3.82-6.26-4.26-3.88-.61-8.32-.19-9.88-5.31-.15-.49-1.41-.78-2.19-.93-3.85-.7-7.71-1.32-11.56-2l-.27-1.39c24.66-10.08,47.8-22.31,64.28-44.49C780.57,501.51,780,507.14,784.66,512ZM653.88,622c7.47,4.59,11.23,11.74,14.93,19.47C660.24,640.84,651,630,653.88,622Zm75-25.85a88.21,88.21,0,0,1,13.95,7.63c7.65,5.33,11.76,13.66,16.83,21.17,1.68,2.5,3.16,4.83,2.43,7.63a6.08,6.08,0,0,1-.73,4.74c-.47.83-.69,2-1.39,2.47-3.18,2.24-6.24,5-9.8,6.26-6.1,2.14-12.54,3.28-18.83,4.89a16.54,16.54,0,0,0-2.67,1.17c-2,.91-3.94,2.51-6,2.63-6,.35-12.13.13-17.76.13l-3.2-13.78.61-.33-.61-2.65c.76-.38,1-.61,1.27-.61,1.58,0,3.16,0,4.74-.06a15.26,15.26,0,0,0-.86-3.45c-1-2.49-2.64-4.74-4.62-8.18l1.6-.29c-.5-.82-1-1.7-1.6-2.68l11-2a67.48,67.48,0,0,0-5.57-5.88c-3.13-2.79-6.33-4.82-5.49-9.74a9,9,0,0,1,.4-4.63,10.77,10.77,0,0,0,.43-2.25c-.21-2.91-.92-6-1.14-9.22l.33,0c-.14-1-.26-2-.33-3a13.84,13.84,0,0,1,3.9.41C713.5,589.62,721.26,592.7,728.85,596.15Z"/><g id="MYZGnt"><g class="cls-2"><path d="M273.67,375l.72.63L276,373.7l-.44-.4Z"/><path d="M273.67,375l1.89-1.7.44.4-1.61,1.93Z"/><path d="M367.62,244.22c4-4.51,1.79-8.21-.5-12.28-.73-1.3-1.21-3.64-.54-4.64,1.72-2.55,1-4.39-.38-6.25,0,0,.55-.59-.27-.36-.11-.15-3,.14-2.61-.94,1-2.54,3.56-2.54-.51-7.11s-5.16-4.57-1.61-8.13-4.06-3.56-6.1-7.62,3.84-5.08,3.84-5.08c-6.1-10.16-17-10.67-11.4-10.67a19.87,19.87,0,0,1,9.65,2.54c-2-7.11-23.46-15.63-23.46-15.63,8.63,1,25.78,9.54,25.78,9.54-8.13-14.73-45.21-24.79-45.21-24.79,10.94.42,17.23.12,17.23.12-19.73-11.41-44.3-8.53-44.3-8.53,12.06-6.45,22-1.93,22-1.93-16.25-10.67-40.68-6.6-40.68-6.6,6.69-4.28,11.8-3.77,18.45-4.24-9.25-3.37-25.39-2-35.11-3.38,5.45-5.3,12.67-4.2,19.15-5.6v-.85l-32.67-2.11c5.28-5.66,12.36-5.47,18.69-7.1l-.12-1.08-36.35,1.24c5.46-6.65,13.2-7.16,19.93-9.67-13.78-.33-27.14,2.16-40.72,5.12a18.46,18.46,0,0,1,4.69-5.16,42.37,42.37,0,0,1,6.15-3.41c2.07-1,4.23-1.88,6.34-2.82-13.34.89-25.67,5-37.67,11.26-.13-3.73,2.28-5.53,4.33-7.41s4.41-3.53,6.92-5.5a7.24,7.24,0,0,0-1.67,0,106.88,106.88,0,0,0-30.75,15.48,4.76,4.76,0,0,0-1.4,3.79c.42,3.56,1.3,7.07,2.08,11-6.75-8-5.51-16.67-2.86-25.45l-.8-.19-6.46,11.48c1.81-13,10.82-22,21.21-21.57-1-5.46,2.57-8.68,6-11.95,1.39-1.32,2.83-2.61,4.32-3.83,13.39-11,28.5-19.16,43.82-27,.83-.43,1.63-.92,2.45-1.38l-.46-1-34.94,15-.32-.5L218.2,41.51l-.1-.34c-1,.36-2,.65-2.89,1.09-9.13,4.4-18.48,8.4-27.31,13.33-20.86,11.65-38.76,26.66-50.42,48-4.4,8-7.69,16.66-11.86,24.82A59.31,59.31,0,0,1,117.86,140a7.16,7.16,0,0,1-6.18,1.69c-2.44-.72-1.57-3.52-1.14-5.61a3.86,3.86,0,0,0,0-.83c-4.91,4.64-5.43,7.71-2.37,13.35,1.85,3.41,1.26,4.66-2.37,6.23-1.35.58-2.41,1.88-3.55,2.91-.62.56-1.1,1.26-1.68,1.85-1.16,1.17-2.35,2.3-3.1,3l-8.48,9-2-6.51L84.32,175c-3.54-1.95-3.83-4.74-3.4-7.67s1.11-5.53,1.69-8.29l-1-.38c-1.6,3.87-4,7.61-4.62,11.62-1,6.88-1,13.93-1.13,20.91,0,2,1,4.1,1.82,6.06.5,1.27,1.57,2.32,2.09,3.58a14.82,14.82,0,0,0,13.53,9.3c-2.44-2.9-4.68-5.84-3.25-10.2l7.13,3a82.43,82.43,0,0,1,8.35,3.56c3.81,2.11,7.26,4.92,11.16,6.83,2.89,1.42,6.24,1.88,9.39,2.77-8.51-7.24-11.12-10.7-11.13-16a15.92,15.92,0,0,0,10.23,5.8c-4.32-3.89-6.61-7.67-4.2-12.72,2.78-5.82,7.9-7.59,13.34-7.94l4.58,6.66.89-8.12,6.24,7.1.44-8.2,7.23,5.14a15.58,15.58,0,0,0-.49-4.09c-.09-.74.14-2.1.5-2.2a4.23,4.23,0,0,1,2.49.47,24.78,24.78,0,0,1,2.81,1.65V179.4c11-1.19,20.78.85,28.64,9.19-2.7-9.57-7.68-17.69-13.72-25.31,4.22,3.69,8.43,7.36,11.86,11.66,0,0,3.1-11.87,32.56-14.92s87.69,31.38,95.93,44.43a48.43,48.43,0,0,1,5.57,41.14h0c-3.46,10.24-10.2,18.33-17.52,25.78-11.88,12.08-27.55,18.76-41.59,27.74l83.94-9.31c5.34.19,4.81-2.73,4.91-5.9s.25-6,4.63-6.49c1.28-.14,2.62-2.46,3.36-4.05A35.84,35.84,0,0,0,359.46,263c-.23-5.6,10.66-7.24,8.24-13C367,248.29,366.65,245.31,367.62,244.22ZM122.84,156.08c-1.16.89-3.6.13-5.45.13l-.62-1.5,17.06-14.77A29.51,29.51,0,0,1,122.84,156.08Z"/></g><path class="cls-3" d="M269.67,373l.72.63L272,371.7l-.44-.4Z"/><path class="cls-3" d="M269.67,373l1.89-1.7.44.4-1.61,1.93Z"/><path class="cls-3" d="M363.62,242.22c4-4.51,1.79-8.21-.5-12.28-.73-1.3-1.21-3.64-.54-4.64,1.72-2.55,1-4.39-.38-6.25,0,0,.55-.59-.27-.36-.11-.15-3,.14-2.61-.94,1-2.54,3.56-2.54-.51-7.11s-5.16-4.57-1.61-8.13-4.06-3.56-6.1-7.62,3.84-5.08,3.84-5.08c-6.1-10.16-17-10.67-11.4-10.67a19.87,19.87,0,0,1,9.65,2.54c-2-7.11-23.46-15.63-23.46-15.63,8.63,1,25.78,9.54,25.78,9.54-8.13-14.73-45.21-24.79-45.21-24.79,10.94.42,17.23.12,17.23.12-19.73-11.41-44.3-8.53-44.3-8.53,12.06-6.45,22-1.93,22-1.93-16.25-10.67-40.68-6.6-40.68-6.6,6.69-4.28,11.8-3.77,18.45-4.24-9.25-3.37-25.39-2-35.11-3.38,5.45-5.3,12.67-4.2,19.15-5.6v-.85l-32.67-2.11c5.28-5.66,12.36-5.47,18.69-7.1l-.12-1.08-36.35,1.24c5.46-6.65,13.2-7.16,19.93-9.67-13.78-.33-27.14,2.16-40.72,5.12a18.46,18.46,0,0,1,4.69-5.16,42.37,42.37,0,0,1,6.15-3.41c2.07-1,4.23-1.88,6.34-2.82-13.34.89-25.67,5-37.67,11.26-.13-3.73,2.28-5.53,4.33-7.41s4.41-3.53,6.92-5.5a7.24,7.24,0,0,0-1.67,0,106.88,106.88,0,0,0-30.75,15.48,4.76,4.76,0,0,0-1.4,3.79c.42,3.56,1.3,7.07,2.08,11-6.75-8-5.51-16.67-2.86-25.45l-.8-.19-6.46,11.48c1.81-13,10.82-22,21.21-21.57-1-5.46,2.57-8.68,6-11.95,1.39-1.32,2.83-2.61,4.32-3.83,13.39-11,28.5-19.16,43.82-27,.83-.43,1.63-.92,2.45-1.38l-.46-1-34.94,15-.32-.5L214.2,39.51l-.1-.34c-1,.36-2,.65-2.89,1.09-9.13,4.4-18.48,8.4-27.31,13.33-20.86,11.65-38.76,26.66-50.42,48-4.4,8-7.69,16.66-11.86,24.82A59.31,59.31,0,0,1,113.86,138a7.16,7.16,0,0,1-6.18,1.69c-2.44-.72-1.57-3.52-1.14-5.61a3.86,3.86,0,0,0,0-.83c-4.91,4.64-5.43,7.71-2.37,13.35,1.85,3.41,1.26,4.66-2.37,6.23-1.35.58-2.41,1.88-3.55,2.91-.62.56-1.1,1.26-1.68,1.85-1.16,1.17-2.35,2.3-3.1,3l-8.48,9-2-6.51L80.32,173c-3.54-1.95-3.83-4.74-3.4-7.67s1.11-5.53,1.69-8.29l-1-.38c-1.6,3.87-4,7.61-4.62,11.62-1,6.88-1,13.93-1.13,20.91,0,2,1,4.1,1.82,6.06.5,1.27,1.57,2.32,2.09,3.58a14.82,14.82,0,0,0,13.53,9.3c-2.44-2.9-4.68-5.84-3.25-10.2l7.13,3a82.43,82.43,0,0,1,8.35,3.56c3.81,2.11,7.26,4.92,11.16,6.83,2.89,1.42,6.24,1.88,9.39,2.77-8.51-7.24-11.12-10.7-11.13-16a15.92,15.92,0,0,0,10.23,5.8c-4.32-3.89-6.61-7.67-4.2-12.72,2.78-5.82,7.9-7.59,13.34-7.94l4.58,6.66.89-8.12,6.24,7.1.44-8.2,7.23,5.14a15.58,15.58,0,0,0-.49-4.09c-.09-.74.14-2.1.5-2.2a4.23,4.23,0,0,1,2.49.47,24.78,24.78,0,0,1,2.81,1.65V177.4c11-1.19,20.78.85,28.64,9.19-2.7-9.57-7.68-17.69-13.72-25.31,4.22,3.69,8.43,7.36,11.86,11.66,0,0,3.1-11.87,32.56-14.92s87.69,31.38,95.93,44.43a48.43,48.43,0,0,1,5.57,41.14h0c-3.46,10.24-10.2,18.33-17.52,25.78-11.88,12.08-27.55,18.76-41.59,27.74l83.94-9.31c5.34.19,4.81-2.73,4.91-5.9s.25-6,4.63-6.49c1.28-.14,2.62-2.46,3.36-4.05A35.84,35.84,0,0,0,355.46,261c-.23-5.6,10.66-7.24,8.24-13C363,246.29,362.65,243.31,363.62,242.22ZM118.84,154.08c-1.16.89-3.6.13-5.45.13l-.62-1.5,17.06-14.77A29.51,29.51,0,0,1,118.84,154.08Z"/></g></g></g></svg>