<svg id="Layer_1" data-name="Layer 1" xmlns="http://www.w3.org/2000/svg" viewBox="0 0 107.07 314.44"><defs><style>.cls-1{fill:#085a72;}.cls-2{fill:#397b8e;}.cls-3{fill:none;stroke:#fff;stroke-linecap:round;stroke-linejoin:round;stroke-width:13.4px;}.cls-4{fill:#9cbdc6;}</style></defs><title>Artboard 3</title><circle class="cls-1" cx="50.23" cy="302.31" r="12.14"/><rect class="cls-2" x="22.67" y="205.24" width="55.13" height="97.06"/><path class="cls-3" d="M51.38,176.78V156.33h0a11,11,0,0,1,11-11H82.42a11,11,0,0,0,11-11h0a11,11,0,0,0-11-11H73.63"/><rect class="cls-4" x="1.7" y="165.8" width="97.06" height="97.06"/><path class="cls-3" d="M42.84,35.5A20.76,20.76,0,0,1,72.21,64.86l0,0L9.92,127.09a11,11,0,0,0,0,15.54h0a11,11,0,0,0,15.54,0L87.71,80.37l0,0a43.14,43.14,0,0,0-61-61"/><path class="cls-3" d="M42.87,35.47A11.41,11.41,0,1,1,26.74,19.33"/></svg>