<svg id="Layer_1" data-name="Layer 1" xmlns="http://www.w3.org/2000/svg" viewBox="0 0 97.06 314.44"><defs><style>.cls-1{fill:none;stroke:#ebf2f4;stroke-linecap:round;stroke-linejoin:round;stroke-width:13.4px;}.cls-2{fill:#085a72;}.cls-3{fill:#397b8e;}.cls-4{fill:#9cbdc6;}</style></defs><title>Artboard 1</title><path class="cls-1" d="M33.72,34.93A16.77,16.77,0,1,1,57.43,58.65l0,0"/><path class="cls-1" d="M34,34.66A11.39,11.39,0,0,1,17.89,18.55"/><path class="cls-1" d="M17.6,18.84A40,40,0,0,1,74.16,75.39l0,0v.07l0,0a40,40,0,0,1,0,56.56"/><path class="cls-1" d="M17.6,132.07a39.94,39.94,0,0,0,10.52,7.57"/><path class="cls-1" d="M57.19,90.9l0,0a18.17,18.17,0,0,1-25.7,25.7"/><path class="cls-1" d="M31.55,90.5a18.17,18.17,0,0,1,25.7,0"/><path class="cls-1" d="M31.55,116.6a10,10,0,1,0-14.12,14.12"/><path class="cls-1" d="M48.53,178.88V158.43c0-6.07,4.92-13,11-13"/><circle class="cls-2" cx="48.53" cy="302.31" r="12.14"/><rect class="cls-3" x="20.97" y="205.24" width="55.13" height="97.06"/><rect class="cls-4" y="165.8" width="97.06" height="97.06"/></svg>