<svg xmlns="http://www.w3.org/2000/svg" viewBox="0 0 1175 398.5"><defs><style>.cls-1,.cls-21,.cls-5{fill:#085a72;}.cls-2{fill:#397b8e;}.cls-10,.cls-12,.cls-13,.cls-15,.cls-16,.cls-17,.cls-18,.cls-19,.cls-20,.cls-22,.cls-3,.cls-8{fill:none;}.cls-15,.cls-20,.cls-3{stroke:#80acb8;}.cls-10,.cls-12,.cls-15,.cls-17,.cls-18,.cls-19,.cls-20,.cls-3,.cls-8,.cls-9{stroke-miterlimit:10;}.cls-12,.cls-15,.cls-18,.cls-19,.cls-3,.cls-8,.cls-9{stroke-width:0.86px;}.cls-4{fill:#fce85d;}.cls-5{font-size:17.12px;font-family:Dosis-Bold, Dosis;font-weight:700;}.cls-14,.cls-6,.cls-9{fill:#80acb8;}.cls-7{fill:#b0cad1;}.cls-16,.cls-8{stroke:#fce85d;}.cls-12,.cls-13,.cls-9{stroke:#397b8e;}.cls-10,.cls-18,.cls-19{stroke:#c0d5db;}.cls-10,.cls-13,.cls-16,.cls-20{stroke-width:1.71px;}.cls-11{fill:#c0d5db;}.cls-13,.cls-16,.cls-22{stroke-linecap:round;stroke-linejoin:round;}.cls-14,.cls-15{opacity:0.2;}.cls-17{stroke:#085a72;stroke-width:7.71px;}.cls-19{stroke-dasharray:3.39 3.39;}.cls-21{opacity:0.4;}.cls-22{stroke:#b0cad2;stroke-width:1.19px;}.cls-23{fill:#b0cad2;}</style></defs><title>communicatie-header2</title><g id="Layer_5" data-name="Layer 5"><rect class="cls-1" x="513.85" y="168.99" width="90.56" height="53.44"/><path class="cls-2" d="M604.41,169l-40.13-33a8.11,8.11,0,0,0-10.3,0l-40.13,33"/><polygon class="cls-2" points="559.13 195.71 513.85 168.99 513.85 222.43 604.41 222.43 604.41 168.99 559.13 195.71"/><polyline class="cls-3" points="513.85 222.43 559.13 195.71 604.41 222.43"/><circle class="cls-4" cx="513.85" cy="168.99" r="10.66"/><text class="cls-5" transform="translate(511.32 172.63) scale(0.58)">2</text><path class="cls-6" d="M400.07,246.13H605.24a0,0,0,0,1,0,0V363.66a3.42,3.42,0,0,1-3.42,3.42H403.5a3.42,3.42,0,0,1-3.42-3.42V246.13A0,0,0,0,1,400.07,246.13Z"/><path class="cls-1" d="M403.5,233.78H601.82a3.42,3.42,0,0,1,3.42,3.42v8.92a0,0,0,0,1,0,0H400.07a0,0,0,0,1,0,0V237.2A3.42,3.42,0,0,1,403.5,233.78Z"/><ellipse class="cls-4" cx="406.33" cy="239.95" rx="1.62" ry="1.57"/><ellipse class="cls-6" cx="412.11" cy="239.95" rx="1.62" ry="1.57"/><ellipse class="cls-2" cx="417.89" cy="239.95" rx="1.62" ry="1.57"/><circle class="cls-7" cx="496.37" cy="303.6" r="18.68"/><path class="cls-1" d="M497.27,300.66v0l0,0Z"/><path class="cls-1" d="M492.28,308.93h-3.21v-9.67h3.21Zm-1.61-11h0a1.68,1.68,0,1,1,1.84-1.67A1.67,1.67,0,0,1,490.65,297.94Zm13.2,11h-3.21v-5.17c0-1.3-.46-2.19-1.63-2.19a1.76,1.76,0,0,0-1.65,1.18,2.19,2.19,0,0,0-.11.78v5.4h-3.21s0-8.76,0-9.67h3.21v1.37a3.19,3.19,0,0,1,2.9-1.6c2.11,0,3.7,1.38,3.7,4.35Z"/><circle class="cls-7" cx="444.85" cy="304.41" r="19.18"/><path class="cls-1" d="M449.28,304.42h-2.9v10.34h-4.3V304.42h-2v-3.65h2V298.4a4,4,0,0,1,4.33-4.34h3.18v3.55h-2.31a.88.88,0,0,0-.91,1v2.15h3.28Z"/><circle class="cls-7" cx="551.95" cy="303.6" r="18.37"/><path class="cls-1" d="M561.06,300.8c0,.17,0,.35,0,.52a11.56,11.56,0,0,1-17.8,9.74,8,8,0,0,0,1,.06,8.15,8.15,0,0,0,5-1.74,4.06,4.06,0,0,1-3.8-2.82,4.07,4.07,0,0,0,1.83-.07,4.07,4.07,0,0,1-3.26-4v-.05a4,4,0,0,0,1.84.51,4.07,4.07,0,0,1-1.26-5.43,11.54,11.54,0,0,0,8.38,4.25,4.07,4.07,0,0,1,6.93-3.71,8.16,8.16,0,0,0,2.58-1,4.07,4.07,0,0,1-1.79,2.25,8,8,0,0,0,2.33-.64A8.24,8.24,0,0,1,561.06,300.8Z"/><rect class="cls-1" x="967.23" y="231.35" width="163.39" height="108.08" rx="10.65" ry="10.65" transform="translate(1334.32 -763.53) rotate(90)"/><polygon class="cls-2" points="1002.12 347.61 1002.12 212.98 1088.63 212.98 1061.07 347.61 1002.12 347.61"/><circle class="cls-8" cx="1048.92" cy="357.59" r="4.32"/><circle class="cls-9" cx="1048.92" cy="209.25" r="1.25"/><line class="cls-10" x1="950.2" y1="374.77" x2="950.2" y2="444.55"/><rect class="cls-11" x="947.3" y="364.76" width="6.27" height="10.01"/><rect class="cls-1" x="918.79" y="241.35" width="63.28" height="125.74"/><rect class="cls-2" x="922.12" y="255.09" width="56.62" height="96.37"/><circle class="cls-12" cx="950.43" cy="359.62" r="5.14"/><line class="cls-13" x1="946.07" y1="248.47" x2="954.8" y2="248.47"/><rect class="cls-14" x="924.55" y="258.86" width="15.14" height="15.14" rx="5.06" ry="5.06"/><rect class="cls-14" x="942.63" y="258.86" width="15.14" height="15.14" rx="5.06" ry="5.06"/><rect class="cls-14" x="960.56" y="258.86" width="15.14" height="15.14" rx="5.06" ry="5.06"/><rect class="cls-14" x="924.55" y="277.54" width="15.14" height="15.14" rx="5.06" ry="5.06"/><rect class="cls-14" x="960.56" y="277.54" width="15.14" height="15.14" rx="5.06" ry="5.06"/><rect class="cls-14" x="924.55" y="296.22" width="15.14" height="15.14" rx="5.06" ry="5.06"/><rect class="cls-14" x="942.63" y="296.22" width="15.14" height="15.14" rx="5.06" ry="5.06"/><rect class="cls-14" x="960.56" y="296.22" width="15.14" height="15.14" rx="5.06" ry="5.06"/><rect class="cls-14" x="924.2" y="334.03" width="15.14" height="15.14" rx="5.06" ry="5.06"/><rect class="cls-14" x="943.31" y="334.03" width="15.14" height="15.14" rx="5.06" ry="5.06"/><rect class="cls-14" x="961.51" y="334.03" width="15.14" height="15.14" rx="5.06" ry="5.06"/><rect class="cls-15" x="942.63" y="277.54" width="15.14" height="15.14" rx="5.06" ry="5.06"/><polyline class="cls-16" points="952.63 289.73 947.78 284.88 952.63 284.88 948 280.26"/><path class="cls-1" d="M1005.83,174.59H927.89a10.26,10.26,0,0,0-10.26,10.26h0a10.2,10.2,0,0,0,1.34,5.07l-1.34,5,4.94-1.32a10.19,10.19,0,0,0,5.32,1.5h77.94a10.26,10.26,0,0,0,10.26-10.26h0A10.26,10.26,0,0,0,1005.83,174.59Z"/><path class="cls-4" d="M937.8,202.36h-9.91a10.26,10.26,0,0,0-10.26,10.26h0a10.2,10.2,0,0,0,1.34,5.07l-1.34,5,4.94-1.32a10.19,10.19,0,0,0,5.32,1.5h9.91a10.26,10.26,0,0,0,10.26-10.26h0A10.26,10.26,0,0,0,937.8,202.36Z"/><path class="cls-2" d="M927.89,146.61h108.37a10.26,10.26,0,0,1,10.26,10.26h0a10.2,10.2,0,0,1-1.34,5.07l1.34,5-4.94-1.32a10.19,10.19,0,0,1-5.32,1.5H927.89a10.26,10.26,0,0,1-10.26-10.26h0A10.26,10.26,0,0,1,927.89,146.61Z"/><circle class="cls-6" cx="926.54" cy="212.62" r="1.62"/><circle class="cls-6" cx="932.85" cy="212.62" r="1.62"/><circle class="cls-6" cx="939.24" cy="212.62" r="1.62"/><path class="cls-6" d="M724.88,71.56a16.07,16.07,0,0,0-26.42-15.07,22,22,0,1,0-41.51,14.66,17.11,17.11,0,0,0,1.84,34.11h61.94a17.11,17.11,0,0,0,4.15-33.71Z"/><line class="cls-17" x1="689.76" y1="94.88" x2="689.76" y2="116.39"/><polygon class="cls-1" points="676.91 98.64 689.76 76.39 702.61 98.64 676.91 98.64"/><path class="cls-1" d="M742.1,130H839a5.17,5.17,0,0,1,5.17,5.17v67.1a5.17,5.17,0,0,1-5.17,5.17H828.6v13.5l-13.5-13.5h-73a5.17,5.17,0,0,1-5.17-5.17v-67.1A5.17,5.17,0,0,1,742.1,130Z"/><path class="cls-6" d="M809.77,116.39H712.83a5.17,5.17,0,0,0-5.17,5.17v67.1a5.17,5.17,0,0,0,5.17,5.17h10.44v13.5l13.5-13.5h73a5.17,5.17,0,0,0,5.17-5.17v-67.1A5.17,5.17,0,0,0,809.77,116.39Z"/><polygon class="cls-1" points="598.32 98.41 605.45 116.39 650.29 116.39 598.32 98.41"/><polygon class="cls-2" points="615.36 89.02 605.45 116.39 650.29 116.39 615.36 89.02"/><path class="cls-18" d="M594.29,116.39q-.86,0-1.71,0"/><path class="cls-19" d="M589.2,116.76a35.14,35.14,0,0,0-30.07,34.79v22.73"/><line class="cls-18" x1="559.13" y1="175.98" x2="559.13" y2="177.69"/><rect class="cls-6" x="1066.92" y="147.87" width="33.21" height="29.54"/><rect class="cls-2" x="1060.21" y="153.94" width="6.71" height="17.41"/><rect class="cls-1" x="1074.55" y="177.41" width="10.91" height="18.3"/><rect class="cls-1" x="1056.85" y="157.88" width="3.35" height="9.53"/><circle class="cls-4" cx="1136.57" cy="162.64" r="6.16"/><polygon class="cls-2" points="1132.52 196.25 1099.07 177.41 1099.07 147.87 1132.52 129.03 1132.52 196.25"/><rect class="cls-1" x="1132.52" y="127.61" width="4.05" height="70.67"/><line class="cls-20" x1="1146.06" y1="145.67" x2="1143.86" y2="149.47"/><line class="cls-20" x1="1153" y1="152.62" x2="1149.19" y2="154.81"/><line class="cls-20" x1="1155.54" y1="162.11" x2="1151.14" y2="162.11"/><line class="cls-20" x1="1152.98" y1="171.6" x2="1149.17" y2="169.39"/><line class="cls-20" x1="1146.01" y1="178.54" x2="1143.82" y2="174.72"/><path class="cls-1" d="M732.05,367.52s-1.53-41.46-1.05-61.3c1.94-41-19.58-48-38.62-44.4-49.87,9.37-57.67,35.93-53.91,51.47,2.64,10.92,3,38.69,3,54.23Z"/><path class="cls-6" d="M833.24,342.24s-5.28-.34-8.34,1.14-5.07,3.4-7.76,3c-2.3-.31-3.68,2.23-.67,3.42s15-1.16,15-1.16Z"/><path class="cls-1" d="M863.22,267.57c-27.68,10.77-23.78,17.88-26.57,29.19-2.51,10.18-13.37,24.75-1.8,41.52,1.47,3,13.23,9,13.23,9l-8.2,20.29H908c0-11.33-6.42-22.4-6.42-28.59s6.67-28.26-.23-45.37C893.36,273.79,880.08,261,863.22,267.57Z"/><ellipse class="cls-2" cx="845.25" cy="233.6" rx="15.96" ry="13.95" transform="translate(-31.31 259.31) rotate(-17.13)"/><path class="cls-2" d="M875.55,251.67a13.7,13.7,0,1,1-26.16,8.06c-2.31-7.49-2.09-22.47,5.13-24.7S873.24,244.18,875.55,251.67Z"/><path class="cls-2" d="M836.61,244.61a12.18,12.18,0,0,0-.25-6.36c-1.72-5.57-6.76-9-11.27-7.56s-6.77,7-5.06,12.6a12.18,12.18,0,0,0,3.37,5.4c-3.52,4.28-4.75,10.95-2.71,17.56,2.95,9.56,11.61,15.38,19.36,13s11.64-12.07,8.69-21.64C846.7,251,841.93,246.17,836.61,244.61Z"/><path class="cls-6" d="M837.33,231.51h0a14.6,14.6,0,0,1,18.26,9.65l4.71,15.28,4.84,15.71c.74,2.42,5.14,21.58-11.55,26.72s-7.88-13.18-9-16.69c-2.27-7.09-7.25-8.38-10.8-14.69s-6.11-17.73-6.11-17.73A14.6,14.6,0,0,1,837.33,231.51Z"/><path class="cls-2" d="M854.06,236.21a8.49,8.49,0,0,0-1.11.45,9,9,0,0,0-.06-7.31c-1.84-4-6.69-6.27-11.55-5.37a94.17,94.17,0,0,0-9.22,2.82c-2.2,2.44-3.2,3-5.58,3.28-.22,0-.45.07-.7.12-6.55,1.36-11.31,6.9-10.54,12.82.89,6.84,8.24,10.7,15.34,8.51a13.27,13.27,0,0,0,6.17-4c1.79-2.09,3.77-3.05,7.06-4.07s4.61,1.81,6,3.51a7.47,7.47,0,0,0,6.77,2.55c4.9-.66,8-5.07,6.76-9.07C862.27,236.86,858.09,235,854.06,236.21Z"/><path class="cls-6" d="M862.34,251.86c1,3.23-2.28,3.84-1.12,7.58,0,0-3.3-2.35-4.08-4.9s.93-5.33.93-5.33S861.22,248.23,862.34,251.86Z"/><polygon class="cls-11" points="848.57 391.9 825.67 362.21 781.27 381.62 804.18 411.31 848.57 391.9"/><path class="cls-21" d="M804.79,402.06l-29.85-19.29c16.91-8.66,40-25.17,40-25.17l30.79,17.77S823.52,390.43,804.79,402.06Z"/><path class="cls-4" d="M804.79,402.06l-29.85-19.29c16.91-8.66,28.38-42.95,28.38-42.95l29.85,19.29S823.52,390.43,804.79,402.06Z"/><path class="cls-6" d="M873.8,305c-2.17-8,16.4-26,23.39-11.39s4.57,29.23,0,41.22c-4,10.46-35.79,15.88-53.53,21.72a58.76,58.76,0,0,0-6.75,2.61c-7.52,3.59-12.93,3.84-14,1.84-2,.17-5.35.32-5.82-1.44-1.68-.67-3.77-.16-4.55-2.42-2.77-.29-4.32-1.5-3.86-2.88s8-2.4,14.22-5.36c4.43-2.12,7.26-6.6,10.42-6.61,7.57,0,39.23-6.3,42.39-15.14C877.84,320.88,876,313,873.8,305Z"/><path class="cls-6" d="M710.81,275.52c-7.19.47-9.53,6.91-19.36,4.41-13.26-3.37-10.53-14.12-10.53-14.12l4.58-18,4.18-16.46a19.71,19.71,0,0,1,24-14.25h0c10.55,2.68,16.87,13.91,13.67,26.5S723.55,274.71,710.81,275.52Z"/><path class="cls-2" d="M685.41,248.17s-1.86-4.3-.27-12c1.73-8.44,3.7-17.22,13.28-20.73s22.23-.42,28.32,6.84,3.78,16.5-3.38,14.69c-7-1.77-13.9-10.84-20.25-9.2-4.62,1.19-6,8.63-6.49,11.42-.91,4.66-1.33,4.8-3.11,4.35s1.39-7.41-2.69-7.82c-2.56-.26-4.59,5.57-1.37,8.22C687.64,249.69,685.41,248.17,685.41,248.17Z"/><path class="cls-6" d="M655.42,323.49c-4.49-14.86,14.06-31.08,25.37-20.11,6.29,6.1,23,30.33,43.36,29.58s32.74-4.28,43.14-1.22a185.72,185.72,0,0,1,19.43,6.93c3.74,1.5,2.86,6.27-1.72,5-2.82-.81-10.68-2.54-12.41-2.06-5.19.64-4.09,13-15.71,12.73-15.49-.37-37.61,8.76-56.19.07S657,328.82,655.42,323.49Z"/><path class="cls-2" d="M416.33,183.16a5,5,0,0,1,5,5v17.6a5,5,0,0,1-5,5h-3.95a5,5,0,0,1-5-5v-17.6a5,5,0,0,1,5-5h3.95m0-8.34h-3.95A13.39,13.39,0,0,0,399,188.19v17.6a13.39,13.39,0,0,0,13.38,13.38h3.95a13.39,13.39,0,0,0,13.38-13.38v-17.6a13.39,13.39,0,0,0-13.38-13.38Z"/><rect class="cls-1" x="421.37" y="171.04" width="42.82" height="52.24" transform="translate(885.55 394.32) rotate(-180)"/><polygon class="cls-6" points="447.76 204.05 459.1 204.05 459.1 194.63 453.69 192.39 447.76 194.63 447.76 204.05"/><line class="cls-22" x1="453.43" y1="171.04" x2="453.43" y2="193.14"/><path class="cls-23" d="M352.09,147v.24a4.65,4.65,0,0,0,4.65,4.65h10a4.65,4.65,0,0,1,4.65,4.65v.24a4.65,4.65,0,0,0,4.65,4.65h41.43a4.65,4.65,0,0,1,4.65,4.65v.16a4.65,4.65,0,0,0,4.65,4.65H458a4.65,4.65,0,0,0,4.65-4.65V166a4.65,4.65,0,0,0-4.65-4.65H447a4.65,4.65,0,0,1-4.65-4.65v-.16a4.65,4.65,0,0,1,4.65-4.65h0a4.65,4.65,0,0,0,4.65-4.65V147a4.65,4.65,0,0,0-4.65-4.65H430.07a4.65,4.65,0,0,1-4.65-4.65v-.24a4.65,4.65,0,0,0-4.65-4.65H407.67a4.65,4.65,0,0,1-4.65-4.65v-.24a4.65,4.65,0,0,0-4.65-4.65H371a4.65,4.65,0,0,0-4.65,4.65v.24a4.65,4.65,0,0,0,4.65,4.65h9.26a4.65,4.65,0,0,1,4.65,4.65v.24a4.65,4.65,0,0,1-4.65,4.65H356.74A4.65,4.65,0,0,0,352.09,147Zm50.27,1.45a3.45,3.45,0,0,1,3.45-3.45h4.39a3.45,3.45,0,0,1,0,6.9h-4.39A3.45,3.45,0,0,1,402.36,148.44Z"/></g></svg>