<svg xmlns="http://www.w3.org/2000/svg" viewBox="0 0 1175 398.5"><defs><style>.cls-1,.cls-17{fill:#397b8e;}.cls-2,.cls-5{fill:#085a72;}.cls-10,.cls-12,.cls-13,.cls-15,.cls-16,.cls-19,.cls-20,.cls-22,.cls-23,.cls-24,.cls-25,.cls-3,.cls-8{fill:none;}.cls-15,.cls-25,.cls-3{stroke:#80acb8;}.cls-10,.cls-12,.cls-15,.cls-19,.cls-23,.cls-24,.cls-25,.cls-3,.cls-8,.cls-9{stroke-miterlimit:10;}.cls-12,.cls-15,.cls-20,.cls-23,.cls-24,.cls-3,.cls-8,.cls-9{stroke-width:0.89px;}.cls-4{fill:#fce85d;}.cls-5{font-size:17.77px;font-family:Dosis-Bold, Dosis;font-weight:700;}.cls-14,.cls-6,.cls-9{fill:#80acb8;}.cls-7{fill:#b0cad1;}.cls-16,.cls-8{stroke:#fce85d;}.cls-12,.cls-13,.cls-9{stroke:#397b8e;}.cls-10,.cls-22,.cls-23,.cls-24{stroke:#c0d5db;}.cls-10,.cls-13,.cls-16,.cls-25{stroke-width:1.78px;}.cls-11{fill:#c0d5db;}.cls-13,.cls-16,.cls-20,.cls-22{stroke-linecap:round;stroke-linejoin:round;}.cls-14,.cls-15{opacity:0.2;}.cls-17{font-size:34.32px;font-family:Dosis-ExtraLight, Dosis;}.cls-18{letter-spacing:-0.03em;}.cls-19{stroke:#085a72;stroke-width:8px;}.cls-20{stroke:#b0cad2;}.cls-21{fill:#b0cad2;}.cls-22{stroke-width:2.67px;}.cls-24{stroke-dasharray:3.52 3.52;}</style></defs><title>communicatie-header</title><g id="Layer_5" data-name="Layer 5"><rect class="cls-1" x="737.42" y="306.18" width="28.06" height="60.19"/><rect class="cls-2" x="601.99" y="145.06" width="298.92" height="171.82"/><polygon class="cls-1" points="802.21 302.99 615.25 302.99 615.25 158.95 864.75 158.95 802.21 302.99"/><rect class="cls-2" x="699.32" y="366.37" width="102.89" height="5.32"/><rect class="cls-2" x="495.07" y="166.11" width="93.99" height="55.46"/><path class="cls-1" d="M589.05,166.11l-41.65-34.28a8.41,8.41,0,0,0-10.69,0l-41.65,34.28"/><polygon class="cls-1" points="542.06 193.84 495.07 166.11 495.07 221.57 589.05 221.57 589.05 166.11 542.06 193.84"/><polyline class="cls-3" points="495.07 221.57 542.06 193.84 589.05 221.57"/><circle class="cls-4" cx="495.07" cy="166.11" r="11.07"/><text class="cls-5" transform="translate(492.44 169.89) scale(0.58)">2</text><path class="cls-6" d="M377,246.16H589.91a0,0,0,0,1,0,0v122a3.55,3.55,0,0,1-3.55,3.55H380.54a3.55,3.55,0,0,1-3.55-3.55v-122A0,0,0,0,1,377,246.16Z"/><path class="cls-2" d="M380.54,233.35H586.36a3.55,3.55,0,0,1,3.55,3.55v9.26a0,0,0,0,1,0,0H377a0,0,0,0,1,0,0V236.9A3.55,3.55,0,0,1,380.54,233.35Z"/><ellipse class="cls-4" cx="383.48" cy="239.75" rx="1.68" ry="1.63"/><ellipse class="cls-6" cx="389.48" cy="239.75" rx="1.68" ry="1.63"/><ellipse class="cls-1" cx="395.47" cy="239.75" rx="1.68" ry="1.63"/><circle class="cls-7" cx="476.93" cy="305.81" r="19.38"/><path class="cls-2" d="M477.86,302.76v0l0,0Z"/><path class="cls-2" d="M472.68,311.34h-3.34v-10h3.34ZM471,299.93h0a1.74,1.74,0,1,1,1.91-1.73A1.73,1.73,0,0,1,471,299.93Zm13.7,11.4h-3.34V306c0-1.35-.48-2.27-1.69-2.27a1.83,1.83,0,0,0-1.71,1.22,2.27,2.27,0,0,0-.11.81v5.6h-3.33s0-9.09,0-10h3.33v1.42a3.31,3.31,0,0,1,3-1.66c2.19,0,3.84,1.43,3.84,4.52Z"/><circle class="cls-7" cx="423.45" cy="306.65" r="19.9"/><path class="cls-2" d="M428.05,306.66h-3v10.73h-4.46V306.66h-2.12v-3.79h2.12v-2.45a4.18,4.18,0,0,1,4.5-4.5h3.3v3.68H426a.91.91,0,0,0-.95,1v2.23h3.4Z"/><circle class="cls-7" cx="534.6" cy="305.81" r="19.06"/><path class="cls-2" d="M544.06,302.9c0,.18,0,.36,0,.54a12,12,0,0,1-18.47,10.11,8.34,8.34,0,0,0,1,.06,8.45,8.45,0,0,0,5.24-1.8,4.22,4.22,0,0,1-3.94-2.93,4.23,4.23,0,0,0,1.9-.07,4.22,4.22,0,0,1-3.38-4.14v-.05a4.18,4.18,0,0,0,1.91.53,4.22,4.22,0,0,1-1.31-5.63,12,12,0,0,0,8.69,4.41,4.22,4.22,0,0,1,7.19-3.85,8.47,8.47,0,0,0,2.68-1,4.23,4.23,0,0,1-1.85,2.33,8.34,8.34,0,0,0,2.42-.66A8.55,8.55,0,0,1,544.06,302.9Z"/><rect class="cls-2" x="965.59" y="230.83" width="169.57" height="112.16" rx="11.05" ry="11.05" transform="translate(1337.29 -763.46) rotate(90)"/><polygon class="cls-1" points="1001.8 351.48 1001.8 211.76 1091.58 211.76 1062.98 351.48 1001.8 351.48"/><circle class="cls-8" cx="1050.37" cy="361.84" r="4.49"/><circle class="cls-9" cx="1050.37" cy="207.9" r="1.3"/><line class="cls-10" x1="947.92" y1="379.67" x2="947.92" y2="428.84"/><rect class="cls-11" x="944.9" y="369.28" width="6.51" height="10.39"/><rect class="cls-2" x="915.32" y="241.2" width="65.68" height="130.5"/><rect class="cls-1" x="918.78" y="255.46" width="58.76" height="100.01"/><circle class="cls-12" cx="948.16" cy="363.94" r="5.34"/><line class="cls-13" x1="943.63" y1="248.6" x2="952.69" y2="248.6"/><rect class="cls-14" x="921.29" y="259.37" width="15.71" height="15.71" rx="5.26" ry="5.26"/><rect class="cls-14" x="940.06" y="259.37" width="15.71" height="15.71" rx="5.26" ry="5.26"/><rect class="cls-14" x="958.67" y="259.37" width="15.71" height="15.71" rx="5.26" ry="5.26"/><rect class="cls-14" x="921.29" y="278.76" width="15.71" height="15.71" rx="5.26" ry="5.26"/><rect class="cls-14" x="958.67" y="278.76" width="15.71" height="15.71" rx="5.26" ry="5.26"/><rect class="cls-14" x="921.29" y="298.15" width="15.71" height="15.71" rx="5.26" ry="5.26"/><rect class="cls-14" x="940.06" y="298.15" width="15.71" height="15.71" rx="5.26" ry="5.26"/><rect class="cls-14" x="958.67" y="298.15" width="15.71" height="15.71" rx="5.26" ry="5.26"/><rect class="cls-14" x="920.94" y="337.39" width="15.71" height="15.71" rx="5.26" ry="5.26"/><rect class="cls-14" x="940.77" y="337.39" width="15.71" height="15.71" rx="5.26" ry="5.26"/><rect class="cls-14" x="959.66" y="337.39" width="15.71" height="15.71" rx="5.26" ry="5.26"/><rect class="cls-15" x="940.06" y="278.76" width="15.71" height="15.71" rx="5.26" ry="5.26"/><polyline class="cls-16" points="950.43 291.42 945.4 286.39 950.43 286.39 945.64 281.59"/><path class="cls-2" d="M1005.65,171.92H924.76a10.65,10.65,0,0,0-10.65,10.65h0a10.59,10.59,0,0,0,1.4,5.26l-1.4,5.21,5.13-1.37a10.58,10.58,0,0,0,5.52,1.55h80.89a10.65,10.65,0,0,0,10.65-10.65h0A10.65,10.65,0,0,0,1005.65,171.92Z"/><path class="cls-4" d="M935,200.74H924.76a10.65,10.65,0,0,0-10.65,10.65h0a10.59,10.59,0,0,0,1.4,5.26l-1.4,5.21,5.13-1.37a10.58,10.58,0,0,0,5.52,1.55H935a10.65,10.65,0,0,0,10.65-10.65h0A10.65,10.65,0,0,0,935,200.74Z"/><path class="cls-1" d="M924.76,142.89h112.46a10.65,10.65,0,0,1,10.65,10.65h0a10.59,10.59,0,0,1-1.4,5.26l1.4,5.21-5.13-1.37a10.58,10.58,0,0,1-5.52,1.55H924.76a10.65,10.65,0,0,1-10.65-10.65h0A10.65,10.65,0,0,1,924.76,142.89Z"/><circle class="cls-6" cx="923.36" cy="211.39" r="1.69"/><circle class="cls-6" cx="929.91" cy="211.39" r="1.69"/><circle class="cls-6" cx="936.54" cy="211.39" r="1.69"/><rect class="cls-2" x="715.65" y="217.48" width="70.23" height="26.77" rx="4.36" ry="4.36"/><text class="cls-17" transform="translate(728.87 237.67) scale(0.58)">Sha<tspan class="cls-18" x="47.57" y="0">r</tspan><tspan x="57.25" y="0">e</tspan></text><path class="cls-6" d="M787.78,91.7a16.67,16.67,0,0,0-27.42-15.64,22.85,22.85,0,1,0-43.08,15.21,17.75,17.75,0,0,0,1.91,35.4h64.28a17.75,17.75,0,0,0,4.3-35Z"/><line class="cls-19" x1="751.33" y1="115.9" x2="751.33" y2="138.23"/><polygon class="cls-2" points="738 119.8 751.33 96.71 764.66 119.8 738 119.8"/><path class="cls-1" d="M850.13,341.47a5.23,5.23,0,0,1,5.23,5.23v10.18a5.23,5.23,0,1,1-10.45,0V346.7a5.23,5.23,0,0,1,5.23-5.23m0-6.22a11.46,11.46,0,0,0-11.45,11.45v10.18a11.45,11.45,0,1,0,22.89,0V346.7a11.46,11.46,0,0,0-11.45-11.45Z"/><rect class="cls-2" x="812.98" y="332.43" width="31.92" height="38.95"/><polygon class="cls-6" points="825.23 357.04 816.77 357.04 816.77 350.02 820.81 348.35 825.23 350.02 825.23 357.04"/><line class="cls-20" x1="821" y1="332.43" x2="821" y2="348.91"/><path class="cls-21" d="M893.08,311H875.53a3.47,3.47,0,0,1-3.47-3.47v-.18a3.47,3.47,0,0,1,3.47-3.47h6.91a3.47,3.47,0,0,0,3.47-3.47v-.18a3.47,3.47,0,0,0-3.47-3.47H862.05a3.47,3.47,0,0,0-3.47,3.47v.18a3.47,3.47,0,0,1-3.47,3.47h-9.76a3.47,3.47,0,0,0-3.47,3.47v.18a3.47,3.47,0,0,1-3.47,3.47H825.78a3.47,3.47,0,0,0-3.47,3.47v.18a3.47,3.47,0,0,0,3.47,3.47h0a3.47,3.47,0,0,1,3.47,3.47v.12a3.47,3.47,0,0,1-3.47,3.47h-8.15a3.47,3.47,0,0,0-3.47,3.47v.18a3.47,3.47,0,0,0,3.47,3.47h23.24a3.47,3.47,0,0,0,3.47-3.47v-.12a3.47,3.47,0,0,1,3.47-3.47h30.88a3.47,3.47,0,0,0,3.47-3.47v-.18a3.47,3.47,0,0,1,3.47-3.47h7.46a3.47,3.47,0,0,0,3.47-3.47v-.18A3.47,3.47,0,0,0,893.08,311Zm-36.58,7.12h-3.27a2.57,2.57,0,0,1,0-5.15h3.27a2.57,2.57,0,0,1,0,5.15Z"/><rect class="cls-2" x="627.16" y="352.44" width="63.53" height="19.26"/><circle class="cls-4" cx="686.34" cy="356.78" r="1.37"/><path class="cls-22" d="M616.85,353.85A13.84,13.84,0,0,1,630.69,340"/><path class="cls-22" d="M609.33,353.85a21.36,21.36,0,0,1,21.36-21.36"/><path class="cls-22" d="M601.71,353.85a29,29,0,0,1,29-29"/><path class="cls-2" d="M402.39,142.58h69.42a3.7,3.7,0,0,1,3.7,3.7v48.05a3.7,3.7,0,0,1-3.7,3.7h-7.48v9.67L454.67,198H402.39a3.7,3.7,0,0,1-3.7-3.7V146.28A3.7,3.7,0,0,1,402.39,142.58Z"/><path class="cls-6" d="M450.85,132.86H381.43a3.7,3.7,0,0,0-3.7,3.7v48.05a3.7,3.7,0,0,0,3.7,3.7h7.48V198l9.67-9.67h52.28a3.7,3.7,0,0,0,3.7-3.7V136.57A3.7,3.7,0,0,0,450.85,132.86Z"/><polygon class="cls-2" points="582.73 92.86 590.13 111.53 636.67 111.53 582.73 92.86"/><polygon class="cls-1" points="600.41 83.12 590.13 111.53 636.67 111.53 600.41 83.12"/><path class="cls-23" d="M578.55,111.53q-.89,0-1.78,0"/><path class="cls-24" d="M573.27,111.9A36.47,36.47,0,0,0,542.06,148V171.6"/><line class="cls-23" x1="542.06" y1="173.37" x2="542.06" y2="175.14"/><rect class="cls-6" x="1069.05" y="144.19" width="34.46" height="30.66"/><rect class="cls-1" x="1062.08" y="150.49" width="6.96" height="18.07"/><rect class="cls-2" x="1076.97" y="174.85" width="11.32" height="18.99"/><rect class="cls-2" x="1058.6" y="154.58" width="3.48" height="9.89"/><circle class="cls-4" cx="1141.33" cy="159.52" r="6.39"/><polygon class="cls-1" points="1137.13 194.4 1102.41 174.85 1102.41 144.19 1137.13 124.64 1137.13 194.4"/><rect class="cls-2" x="1137.13" y="123.16" width="4.2" height="73.34"/><line class="cls-25" x1="1151.18" y1="141.9" x2="1148.9" y2="145.86"/><line class="cls-25" x1="1158.39" y1="149.12" x2="1154.43" y2="151.4"/><line class="cls-25" x1="1161.02" y1="158.97" x2="1156.45" y2="158.97"/><line class="cls-25" x1="1158.36" y1="168.82" x2="1154.41" y2="166.53"/><line class="cls-25" x1="1151.13" y1="176.02" x2="1148.86" y2="172.06"/></g></svg>