<svg xmlns="http://www.w3.org/2000/svg" viewBox="0 0 500 500"><defs><style>.cls-1{fill:#c4d7dd;}.cls-2,.cls-6{fill:#085a72;}.cls-3{fill:#9cbdc7;}.cls-4{fill:#80acb8;}.cls-5{fill:#397b8e;}.cls-6{opacity:0.4;}.cls-7{fill:#fce85d;}</style></defs><title>Social-small</title><g id="Social-small"><polygon class="cls-1" points="427.01 349.55 427.01 149.28 253.58 49.15 80.15 149.28 80.15 349.55 253.58 449.68 427.01 349.55"/><path class="cls-2" d="M203.72,68.1H339.09a7.22,7.22,0,0,1,7.22,7.22V163a7.22,7.22,0,0,1-7.22,7.22H324.51V189.1l-18.85-18.85H203.72a7.22,7.22,0,0,1-7.22-7.22V75.33A7.22,7.22,0,0,1,203.72,68.1Z"/><path class="cls-3" d="M230.62,360.14a9.07,9.07,0,0,0-9.07,9.07v62l32,18.5,155.1-89.54Z"/><path class="cls-4" d="M298.21,49.15H162.84a7.22,7.22,0,0,0-7.22,7.22v93.71a7.22,7.22,0,0,0,7.22,7.22h14.58v18.85l18.85-18.85H298.21a7.22,7.22,0,0,0,7.22-7.22V56.38A7.22,7.22,0,0,0,298.21,49.15Z"/><path class="cls-2" d="M179.11,406.69s18.82-88.77,19.37-111.94c2.26-47.85-22.87-56-45.11-51.85-58.24,10.94-67.35,42-63,60.11,3.08,12.75.56,52.79.56,52.79Z"/><path class="cls-4" d="M317.9,336.82s-6.17-.4-9.74,1.33-5.92,4-9.06,3.55c-2.69-.36-4.3,2.61-.78,4s17.5-1.35,17.5-1.35Z"/><path class="cls-2" d="M352.91,249.6c-32.33,12.58-27.78,20.89-31,34.09-2.93,11.89-15.62,28.91-2.1,48.49,1.72,3.47,15.45,10.47,15.45,10.47l-10.11,17.48h79.53c0-13.24-7-20-7-27.18s7.79-33-.27-53C388.12,256.87,372.61,241.94,352.91,249.6Z"/><ellipse class="cls-5" cx="331.92" cy="209.93" rx="18.64" ry="16.3" transform="translate(-47.11 107.07) rotate(-17.13)"/><path class="cls-5" d="M367.31,231c2.7,8.75-2,17.94-10.4,20.54s-17.46-2.38-20.16-11.13-2.45-26.25,6-28.85S364.62,222.29,367.31,231Z"/><path class="cls-5" d="M321.84,222.79a14.23,14.23,0,0,0-.3-7.43c-2-6.5-7.9-10.46-13.16-8.83s-7.91,8.21-5.91,14.71a14.23,14.23,0,0,0,3.94,6.31c-4.11,5-5.55,12.78-3.17,20.51,3.44,11.17,13.57,18,22.61,15.17S339.44,249.13,336,238C333.62,230.23,328,224.61,321.84,222.79Z"/><path class="cls-4" d="M322.67,207.49h0A17.06,17.06,0,0,1,344,218.76l5.5,17.84L355.15,255c.87,2.82,6,25.2-13.49,31.21s-9.21-15.4-10.52-19.49c-2.65-8.28-8.46-9.78-12.61-17.15s-7.13-20.71-7.13-20.71A17.06,17.06,0,0,1,322.67,207.49Z"/><path class="cls-5" d="M342.21,213a9.92,9.92,0,0,0-1.3.53,10.48,10.48,0,0,0-.07-8.54c-2.15-4.68-7.82-7.32-13.49-6.28a110,110,0,0,0-10.77,3.3c-2.57,2.85-3.74,3.5-6.52,3.84-.25,0-.52.08-.82.14-7.65,1.58-13.21,8.06-12.31,15,1,8,9.63,12.49,17.91,9.94a15.5,15.5,0,0,0,7.21-4.67c2.09-2.44,4.41-3.57,8.25-4.75s5.38,2.11,7,4.1a8.72,8.72,0,0,0,7.91,3c5.72-.77,9.34-5.92,7.9-10.6C351.8,213.74,346.93,211.52,342.21,213Z"/><path class="cls-4" d="M351.88,231.25c1.16,3.77-2.66,4.48-1.31,8.86,0,0-3.85-2.75-4.77-5.72s1.09-6.23,1.09-6.23S350.58,227,351.88,231.25Z"/><polygon class="cls-1" points="335.8 394.82 309.05 360.14 257.2 382.81 283.95 417.49 335.8 394.82"/><path class="cls-6" d="M284.66,406.69l-34.86-22.53c19.75-10.11,46.7-29.4,46.7-29.4l36,20.75S306.54,393.1,284.66,406.69Z"/><path class="cls-7" d="M284.66,406.69l-34.86-22.53C269.55,374,283,334,283,334l34.86,22.53S306.54,393.1,284.66,406.69Z"/><path class="cls-4" d="M365.26,293.28c-2.53-9.34,19.16-30.41,27.32-13.31s5.34,34.13,0,48.14c-4.7,12.22-41.8,18.55-62.52,25.37a68.63,68.63,0,0,0-7.89,3c-8.79,4.19-15.1,4.48-16.37,2.15-2.36.2-6.25.38-6.8-1.68-2-.78-4.4-.19-5.32-2.83-3.23-.34-5-1.75-4.51-3.37s9.37-2.8,16.61-6.26c5.17-2.47,8.48-7.71,12.17-7.72,8.84,0,45.82-7.36,49.5-17.68C370,311.87,367.79,302.62,365.26,293.28Z"/><path class="cls-4" d="M174.91,258.89c-8.39.55-11.13,8.07-22.61,5.15-15.49-3.94-12.29-16.5-12.29-16.5l5.35-21.07,4.89-19.23a23,23,0,0,1,28-16.64h0c12.32,3.13,19.7,16.25,16,31S189.78,257.94,174.91,258.89Z"/><path class="cls-5" d="M145.24,227s-2.17-5-.32-14.07c2-9.86,4.32-20.11,15.51-24.21s26-.49,33.07,8,4.41,19.27-3.94,17.15c-8.15-2.07-16.24-12.66-23.66-10.74-5.4,1.4-7,10.08-7.58,13.33-1.06,5.45-1.55,5.61-3.64,5.08s1.62-8.65-3.14-9.13c-3-.3-5.36,6.51-1.61,9.6C147.84,228.72,145.24,227,145.24,227Z"/><path class="cls-4" d="M110.25,314.63c-5.48-18.12,17.15-37.89,30.93-24.51,7.66,7.44,28,37,52.86,36.06s39.91-5.22,52.59-1.48a226.39,226.39,0,0,1,23.69,8.44c4.56,1.83,3.49,7.64-2.09,6-3.44-1-13-3.09-15.12-2.51-6.33.78-5,15.86-19.15,15.52-18.88-.46-45.84,10.68-68.5.09S112.21,321.13,110.25,314.63Z"/></g></svg>