<svg xmlns="http://www.w3.org/2000/svg" viewBox="0 0 500 500"><defs><style>.cls-1,.cls-7{fill:#80acb8;}.cls-2,.cls-5{fill:#085a72;}.cls-3{fill:#397b8e;}.cls-4{fill:#fce85d;}.cls-5{font-size:30.95px;font-family:Dosis-Bold, Dosis;font-weight:700;}.cls-6,.cls-8,.cls-9{fill:none;}.cls-6{stroke:#fce85d;}.cls-6,.cls-7,.cls-8,.cls-9{stroke-miterlimit:10;}.cls-7{stroke:#397b8e;}.cls-8,.cls-9{stroke:#c0d5db;}.cls-9{stroke-dasharray:4.12 4.12;}</style></defs><title>communicatie</title><g id="Layer_9" data-name="Layer 9"><path class="cls-1" d="M206.52,243.7a21.69,21.69,0,0,0-35.68-20.34,29.73,29.73,0,1,0-56.05,19.79,23.1,23.1,0,0,0,2.49,46.07h83.64a23.1,23.1,0,0,0,5.6-45.51Z"/><path class="cls-2" d="M251.52,129.58h120.9a6.45,6.45,0,0,1,6.45,6.45v83.69a6.45,6.45,0,0,1-6.45,6.45h-13V243l-16.83-16.83h-91a6.45,6.45,0,0,1-6.45-6.45V136A6.45,6.45,0,0,1,251.52,129.58Z"/><path class="cls-3" d="M335.91,112.65H215a6.45,6.45,0,0,0-6.45,6.45v83.69a6.45,6.45,0,0,0,6.45,6.45h13v16.83l16.83-16.83h91a6.45,6.45,0,0,0,6.45-6.45V119.1A6.45,6.45,0,0,0,335.91,112.65Z"/><circle class="cls-4" cx="378.87" cy="129.58" r="19.27"/><text class="cls-5" transform="translate(374.3 136.15) scale(0.58)">2</text><rect class="cls-2" x="160.56" y="257.27" width="237.58" height="157.15" rx="12.44" ry="12.44" transform="translate(558.71 671.7) rotate(180)"/><polygon class="cls-3" points="188.89 267.79 346.76 267.79 297 401.1 188.89 401.1 188.89 267.79"/><circle class="cls-6" cx="174.38" cy="335.85" r="6.29"/><circle class="cls-7" cx="390.07" cy="335.85" r="1.82"/><polygon class="cls-2" points="303.65 68 310.86 86.19 356.19 86.19 303.65 68"/><polygon class="cls-3" points="320.87 58.52 310.86 86.19 356.19 86.19 320.87 58.52"/><path class="cls-8" d="M299.57,86.19q-1,0-2,.06"/><path class="cls-9" d="M293.48,86.71a35.53,35.53,0,0,0-29.45,35V144.1"/><line class="cls-8" x1="264.03" y1="146.16" x2="264.03" y2="148.16"/><path class="cls-4" d="M112.77,308.41h18A18.59,18.59,0,0,1,149.32,327h0a18.49,18.49,0,0,1-2.44,9.18l2.44,9.1-9-2.4a18.48,18.48,0,0,1-9.64,2.71h-18A18.59,18.59,0,0,1,94.17,327h0A18.59,18.59,0,0,1,112.77,308.41Z"/><circle class="cls-1" cx="133.18" cy="327" r="2.94"/><circle class="cls-1" cx="121.75" cy="327" r="2.94"/><circle class="cls-1" cx="110.17" cy="327" r="2.94"/></g></svg>