<svg xmlns="http://www.w3.org/2000/svg" viewBox="0 0 129.41 37.58"><defs><style>.cls-1{fill:#231f20;}</style></defs><title>Asset 1</title><g id="Layer_2" data-name="Layer 2"><g id="Layer_1-2" data-name="Layer 1"><path class="cls-1" d="M23.07,36.06a16.15,16.15,0,0,0,8.38-9.15L10.67,36.6a16.15,16.15,0,0,0,12.4-.54Z"/><path class="cls-1" d="M39.95,20.49,8,35.37a16.21,16.21,0,0,1-4-3.31L39.95,15.3v5.19Z"/><path class="cls-1" d="M39.95,7.65.67,26a16.32,16.32,0,0,0,.85,2.25,16.93,16.93,0,0,0,1.12,2l37.31-17.4V7.65Z"/><path class="cls-1" d="M39.95,0,.26,18.51a16.19,16.19,0,0,0-.08,5.23L39.95,5.19V0Z"/><path class="cls-1" d="M9.36,6.67a16.17,16.17,0,0,0-8.33,9l20.6-9.6a16.16,16.16,0,0,0-12.26.59Z"/><polygon class="cls-1" points="52.7 5.09 68.41 5.09 68.41 9.84 58.39 9.84 58.39 15.97 67.23 15.97 67.23 20.47 58.39 20.47 58.39 27.59 68.7 27.59 68.7 32.33 52.7 32.33 52.7 5.09 52.7 5.09"/><path class="cls-1" d="M75.82,18.67c0-7.4,4.87-14.07,14.07-14.07a14.16,14.16,0,0,1,8.18,2.17L95.5,11a9.77,9.77,0,0,0-5.69-1.6C84.7,9.38,82,13.48,82,18.51,82,23.7,84.57,28,89.89,28a9.63,9.63,0,0,0,6.18-2.09L98.44,30a13.7,13.7,0,0,1-8.63,2.86c-9.29,0-14-6.75-14-14.15Z"/><path class="cls-1" d="M105.76,5.09h5.81l9.82,14.11a48,48,0,0,1,2.86,4.58h.08c0-.37-.16-2.21-.16-4.3V5.09h5.24V32.33h-5.28L113.54,17.2a48.17,48.17,0,0,1-2.62-4.09h-.08c0,.37.16,1.92.16,3.64V32.33h-5.24V5.09Z"/></g></g></svg>