<?xml version="1.0" encoding="utf-8"?>
<!-- Generator: Adobe Illustrator 21.0.0, SVG Export Plug-In . SVG Version: 6.00 Build 0)  -->
<svg version="1.1" id="Layer_1" xmlns="http://www.w3.org/2000/svg" xmlns:xlink="http://www.w3.org/1999/xlink" x="0px" y="0px"
	 viewBox="0 0 106.9 60.8" style="enable-background:new 0 0 106.9 60.8;" xml:space="preserve">
<g>
	<path d="M42.4,9.6h21.1l0.5,0c0-0.1,0-0.4,0.2-0.8H42.7h-0.5C42.3,9,42.4,9.3,42.4,9.6L42.4,9.6z M67.4,11.8
		c-0.7,0-0.8-0.2-0.8-0.2v7.8c0,0,0.3-0.1,0.7-0.1h0v-5.8C65.8,12.9,67.4,11.8,67.4,11.8z M40.2,11.2L40.2,11.2L40.2,11.2L39.8,11
		l-0.1,0c0.5,0.9-0.5,0.7-0.5,0.7c0.2,0.2,0.4,0.3,0.4,0.3s1,0.7-0.3,1.3h0v6c0.4,0,0.6,0.1,0.7,0.1c0,0,0,0,0,0
		c0,0,0.3,0.2,0.5,0.3c0.1,0,0.1,0.1,0.1,0.1c0,0,0,0,0,0c0,0,0.1,0.1,0.2,0.2l0,0.1c0,0,0,0,0,0l0,0c0,0,0,0,0,0l0,0c0,0,0,0,0,0
		c0,0,0,0.1,0,0.1c0,0,0,0,0,0.1c0,0.1,0,0.1,0,0.3v0c0,0,0,0.1,0,0.1c0,0,0,0,0,0c0,0,0,0.1-0.1,0.1c0,0,0,0,0,0c0,0,0,0,0,0
		c0,0,0,0,0,0c0,0,0,0,0,0c0,0,0,0,0,0c0,0-0.1,0.1-0.4,0c0,0,0,0,0,0.1l0,0c0,0,0,0,0,0c0,0,0,0,0,0c0,0,0,0,0,0c0,0,0,0,0,0
		c0,0,0,0,0,0c0,0,0,0,0,0c0,0,0,0,0,0c0,0,0,0,0,0c0,0,0,0,0,0c0.1,0.1,0.3,0.3,0.3,0.4c0,0,0,0,0,0c0,0,0.1,0.1,0.1,0.2
		c0,0,0,0,0,0c0,0,0,0.1,0.1,0.2c0,0,0,0.1,0,0.1c0,0,0,0,0,0v0c0,0,0,0,0,0l0,0c0,0,0,0,0,0c0,0,0,0,0,0c0,0,0,0,0,0
		c0,0,0,0.1,0,0.1c0,0.1,0,0.2,0,0.3v0c0,0,0,0.1,0,0.1c0,0,0,0,0,0.1v0l0,0.1c0,0.1,0,0.1-0.1,0.2c0,0,0,0,0,0c0,0,0,0,0,0
		c0,0,0,0,0,0c0,0,0,0-0.1,0.1c-0.1,0.1-0.2,0.1-0.3,0.1c0,0-0.2,0-0.5-0.1c0,0,0,0-0.1,0v0c0,0,0,0.1,0,0.1c0,0,0,0.1,0,0.1l0,0.1
		c0,0.1,0,0.1,0,0.2l0,0v0c0,0.2,0.1,0.4,0.1,0.6c0,0,0,0.1,0,0.1c0,0,0,0.1,0,0.1c0,0,0,0,0,0.1l0,0.1c0,0,0,0.1,0,0.1v0
		c0,0,0,0.3-0.1,0.5v0c-0.2,0.2-0.8,0.2-0.8,0.2h0v2.5h0c0,0.1,0,0.1,0,0.2c0.1,3.7,2.9,5.4,2.9,5.4c0.2,0.1,0.3,0.2,0.5,0.3
		c1,0.7,2.1,1.2,3.2,1.7c2,0.8,3.5,1.1,3.5,1.1c0.3,0.1,0.6,0.2,0.9,0.2c2.5,0.5,5.5,0,5.5,0c0.9-0.2,1.6-0.4,2.1-0.5
		c0.3-0.1,0.5-0.2,0.7-0.2c0.2-0.1,0.4-0.1,0.4-0.1l0,0c0,0,0,0,0,0c0.5-0.2,1.1-0.3,1.6-0.5c1.8-0.7,2.9-1.4,3.3-1.7
		c0.1-0.1,0.2-0.1,0.2-0.1c1.6-1.2,2.1-2,2.3-2.2c0,0,0-0.1,0-0.1c0.5-0.7,0.7-1.6,0.9-2.3c0-0.3,0.1-0.5,0.1-0.7l0,0
		c0,0,0-0.2,0-0.4l0,0v0c0,0,0,0,0-0.1c0-0.1,0-0.2,0-0.3c0,0,0,0,0,0l0-1.3v-0.9c0,0-0.2,0.1-0.8,0.1V28h0c0,2.7-1.7,4-1.7,4l0,0
		L41.2,10.4v0l0,0c0,0,0,0,0,0v0l0,0.4l0,0.3l0,0.1l0,0c0,0,0,0,0,0c0,0,0,0,0,0.1c0,0,0,0.1-0.1,0.2v0c0,0,0,0,0,0.1l0,0l0,0
		c0,0-0.1,0-0.1,0.1l0,0h0l0,0h0l0,0h0l0,0l0,0c0,0,0,0,0,0c-0.1,0-0.1-0.1-0.2-0.1c0,0,0,0,0,0l-0.2-0.1l-0.1-0.1
		C40.4,11.3,40.3,11.2,40.2,11.2C40.2,11.2,40.2,11.2,40.2,11.2C40.2,11.2,40.2,11.2,40.2,11.2z M26.7,10.6c0.7,0.4,1.6,0.8,2.3,1.2
		c0.6,0.3,1.4,0.6,1.8,0.8c0.9,0.4,2,0.8,2.9,1.1c1.1,0.4,1.9,0.7,2.8,1.2c-0.1-0.3-0.1-0.7-0.2-1c-0.2-0.7-2.5-1.5-4.5-2.3
		c-0.9-0.3-1.7-0.7-2.6-1.1c-0.8-0.4-1.4-0.9-2.2-1.2c-0.4-0.2-0.9-0.7-1.2-0.9c-0.4-0.3-1.2-0.8-1.7-1.2c-0.5-0.4-0.9-1-1.4-1.4
		c-0.1,0.4-0.3,1.1-0.1,1.3C23.4,9,25.1,9.7,26.7,10.6z"/>
	<path d="M23.2,10.4c0.8,0.7,1.8,1.3,2.9,1.8c1.2,0.6,2.5,1.2,3.9,1.7c0.8,0.3,1.6,0.7,2.3,1c0.5,0.2,1,0.3,1.4,0.5
		c0.9,0.4,1.7,0.8,2.6,1.2c0.3,0.1,0.5,0.4,0.6,0.4c0.2,0-0.1-1.2-0.2-1.3c-0.3-0.2-1.9-1-2.5-1.2c-1.2-0.4-2.4-0.9-3.5-1.4
		c-0.5-0.2-1.1-0.5-1.6-0.8c-0.9-0.4-2.2-1-3.1-1.5c-0.7-0.4-1.2-0.7-1.8-1.1C23,9,22.5,8,22.4,8.1c-0.1,0.3-0.2,1.1,0,1.4
		C22.5,9.7,23,10.2,23.2,10.4z M30.1,3C31.6,3.7,30,4,29.1,4c0.4,0.2,1,0.4,1.2,0.9c0.1-0.8,1.2-1.1,2.7-0.4c0.4,0.2,1.2,0.9,0,1
		c0.2,0.3,0.5,0.3,0.4,0.8c-0.1,1.1-2.5,0.4-3.1,0.1c-0.2-0.1-0.4-0.4-0.6-0.5c0,0.2,0,0.4,0,0.7c-0.1,0.4-0.3,0.7-0.4,1
		C29.1,8.7,30.5,9,31.5,9c0.1,0.1,0.1,0.3,0.1,0.4c0,0.2,0.1,0.4,0.4,0.3c0.2-0.2,0.1-0.8,0-1.1c-0.1-0.3-0.5,0.2-0.6-0.3
		c0-0.6,0.5,0.1,0.3-0.9c0-0.2,0.1-0.2,0.3-0.1c0,0.2,0,0.3-0.1,0.4c-0.1,0.2-0.1,0.3-0.1,0.4c1.5,0.7,3.5,1.4,4.5-0.6
		c0.2-0.3,0.1-0.7-0.1-1C36,6.3,35.7,6.1,35.3,6c-0.4,0-0.7-0.1-1.1,0.2c1.1,0.2,1,1.2-0.2,1.3c-0.3,0-0.8,0.1-1-0.1
		c0,0,0-0.2,0-0.2c0.8-0.3,0.6-0.6,0.8-1.4c0-0.3,0.3-0.6,0.2-1c-0.1-0.6-1.9-1.2-2.7-1.4c-0.3,0-0.3-0.4-0.5-0.6
		c-0.6-0.5-1.9-0.6-2.7-0.6c-1,0-1,0.1-0.8,0.4C27.6,3.1,29.1,2.6,30.1,3z M30.4,8.4c-0.2,0-0.3-0.1-0.4-0.1C30,8.1,30,8,30.1,8
		c0.1,0,0.3-0.1,0.5,0C30.9,8,30.6,8.4,30.4,8.4z M31,8.5c-0.1,0-0.1-0.2,0.1-0.3C31.1,8.2,31.1,8.5,31,8.5z M30.2,7.3
		c-0.1,0-0.1-0.4,0.3-0.4c0.1,0,0.5,0.2,0.7,0.2C31.6,7.2,30.4,7.2,30.2,7.3z M23.3,14.7c-0.6-0.3-1.6-1-1.9-1.3
		c-0.2-0.2-0.8-0.6-1.1-0.8c-0.5-0.4-1-1.1-0.9-0.7c0.2,0.6,0.5,1.2,0.8,1.8c0.4,0.6,1.1,1.2,1.7,1.6c0.4,0.2,1,0.5,1.3,0.8
		c0.3,0.3,0.6,1.1,0.6,1.5c0.7,3.3-1,5.9-2.2,7.8c-0.3,0.5-0.7,0.9-1,1.5c-0.4,1.2,0.2,2.9,1.7,2.3c1.4-0.8,0.6-2.1,1.3-3.5
		c0.4-0.8,1.1-0.5,1.3-0.9c0.1-0.3,0.3-0.8,0.5-1.2c0.4-0.9,1.1-2,1.3-2.6c0.1-0.3,0.3-1.8,0.2-2.2c0-0.1-0.6-0.4-0.7-0.5
		c0.6,2-0.2,3.5-1.3,4.9c-0.3,0.3-0.5,1-0.6,1.2c-0.6,0-1.2,0.8-1.3,1.1c-0.4,0.8-0.2,2-0.6,2.7c-0.2,0.3-0.8,0.6-1.1,0.2
		c-0.2-0.3-0.2-1.1,0-1.5c0.3-0.7,0.9-1.2,1.2-1.8c0.8-1.3,1.5-2.8,1.9-4.5c0.2-1.1,0.1-2.4-0.1-3.5c-0.1-0.5-0.4-1-0.6-1.5
		C23.5,15.4,23.4,15,23.3,14.7z M25.2,5.8c0.4,0.4,0.5,0.4,0.3-0.2c-0.1-0.2,0-0.4,0-0.5c-0.1-0.1-0.3-0.2-0.4-0.3
		c-0.4-0.3-0.7-0.9-0.6-1.6c0.1-0.4,0.1-0.6,0.4-0.5c0.2,0.1,0.6,0.5,0.7,0.7C26.1,4,25.9,4.4,26,5c0,0.5,0.1,0.9,0.5,1.5
		c0.1,0.1,0.3,0.3,0.3,0.2c0-0.1,0.1-0.8,0.2-0.9c0.1-0.1,0.4-0.7,0.5-1.2C27.5,4,27.3,3.4,27,2.9c-0.4-0.7-0.7-0.8-1.6-0.8
		c-0.2,0-0.6,0-0.7,0.1c-0.5,0.5-0.8,1.2-0.7,1.9C24.2,4.9,24.8,5.3,25.2,5.8z"/>
	<path d="M24.2,6.9c1.1,1,2.5,1.8,3.8,2.7c0.6,0.4,1.8,1,2,1c0.1,0,0.4,0.2,0.6,0.3c0.2,0.1,3.6,1.4,3.9,1.5
		c0.5,0.1,1.1,0.6,1.1,0.5c-0.2-0.7-0.6-1.1-1-1.5c-0.5-0.4-1.2-0.8-1.9-1c-0.6-0.2-1.3-0.5-2-0.7c-1.9-0.7-3.5-1.8-5-2.9
		c-0.3-0.2-0.6-0.6-0.9-0.8c-0.4-0.3-0.8-0.7-1.1-1.1c-0.2-0.3-0.2-0.8-0.2-1.2C23.4,4,23.1,4.6,23,5c0,0.3,0,0.4,0.2,0.7
		C23.5,6.2,23.8,6.6,24.2,6.9z M30.4,18.9c0.6,0,1.7,0.1,2.9,0.2c0.4,0-0.9-0.5-1.5-0.7c-0.7-0.2-1.4-0.5-2.1-0.7
		c-1.2-0.4-2.1-0.8-3.3-1.2c-0.8-0.3-1.2-0.6-1.5-0.8c-0.1-0.1-0.8-0.6-0.7-0.3c0.1,0.3,0.2,0.4,0.4,0.8
		C25.4,18,28.2,18.8,30.4,18.9z M22.9,14c0-0.3-0.4-0.9-0.5-1.1c-0.2-0.4-0.2-0.6-0.3-0.8c-0.2-0.1-0.7-0.5-1-0.8
		c-0.9-0.6-1.5-1.7-2-2.2c-0.1,0-0.2,0.8-0.1,1.1C19.4,11.5,20.5,12.4,22.9,14z M84.8,9.8c0,0.4-0.2,1.1-0.2,1.4
		c0.1,0.2,2.2-2.1,2.4-2.9c0.1-0.3-0.3-0.9-0.5-1.1c-0.2,0.4-0.4,0.8-0.6,1.1C84.9,9.5,84.9,9.4,84.8,9.8z M84.9,7.6
		c0,0.3,0.1,0.6,0.1,1c0.1,0.1,0.9-1.2,0.9-1.4c0.3-0.6-0.1-1-0.5-1.2C85.2,6.1,85,6.5,85,6.6C84.8,6.8,84.8,7,84.9,7.6z M83.9,10.3
		c-2,1.9-6.4,3.7-7.9,4.2c-1.7,0.6-3.3,1.4-4.9,2.1c-0.3,0.1-2.1,1-2.2,1.2c0,0.1,0,1,0,1c1.6-0.9,3.4-1.6,5-2.4
		c1.2-0.5,2.6-0.9,3.9-1.3c1.7-0.6,3.3-1.3,4.8-2.3c0.6-0.4,1-0.8,1.2-1.3C83.9,11.2,83.9,10.7,83.9,10.3z M81.3,16.9
		c0.4-0.5,0.7-1,0.9-1.7c-2.1,1.4-4.6,2.1-7.1,2.9c-0.8,0.3-2.7,1-2.2,0.9c1.7-0.3,3.2,0,4.6-0.3C79.2,18.4,80.4,18,81.3,16.9z
		 M84.8,6.2c0.1-0.3,0.4-0.8-0.4-0.9c-0.2-0.1-0.3,0.1,0.1,0.5C84.6,5.9,84.6,6.4,84.8,6.2z M21.7,6.2c0.1,0,0.1-0.3,0.2-0.3
		c0.1-0.2,0.2-0.4,0.3-0.5c0-0.1,0-0.1-0.1-0.1c0,0-0.6,0.1-0.6,0.3C21.4,5.8,21.5,6.2,21.7,6.2z M28,15c1.7,0.6,3.3,1,3.8,1.3
		c0.5,0.2,1.2,0.5,1.7,0.7c1.4,0.6,2.8,1.3,3.9,1.9c0.1,0,0-1.1-0.3-1.3c-1-0.5-2-1.1-3-1.5c-1.1-0.5-2.3-1-3.4-1.5
		c-0.5-0.2-0.9-0.4-1.5-0.6c-0.4-0.2-0.8-0.3-1.2-0.5c-2.9-1-4.5-2.4-5-2.7c-0.1-0.1-0.5-0.4-0.6-0.5c-0.1,0,0,0.5,0,0.5
		c0.1,0.7,0.3,1,0.7,1.4c0.4,0.5,1.2,0.9,1.9,1.2C26,14.1,27,14.6,28,15z M21.4,8.4c0.1-0.2,0.1-0.6,0.1-1.1c0-0.6-0.1-0.8-0.3-1.1
		c-0.1-0.2-0.2-0.4-0.3-0.3c-0.2,0.1-0.6,0.4-0.6,0.7c0,0.3,0.2,0.7,0.3,1C20.9,7.8,21.3,8.5,21.4,8.4z"/>
	<path d="M80.9,23.8c0.3,0.7,0.5,1.3,0.6,1.3c0.1,0.1,0.3,0.1,0.5,0.1c0.3,0.1,0.7,0.5,0.8,0.8c0.5,1.1,0,3.2,1.5,3.4
		c0.5,0.1,1-0.1,1.2-0.4c0.3-0.3,0.4-0.9,0.4-1.5c-0.3-1.3-1-1.8-1.5-2.7c-1.2-1.7-3-5.8-1.2-8.6c0.3-0.5,1.1-0.7,1.6-1
		c0.5-0.3,1-0.9,1.4-1.3c0.2-0.2,1.1-1.8,0.8-2c-0.8,0.8-1.7,1.5-2.7,2.2c-0.4,0.2-0.9,0.4-1.2,0.8c-0.3,0.4-0.4,0.9-0.6,1.3
		c-1.5,3.3,0,7.4,1.7,9.7c0.3,0.4,1.6,2.2,0.6,2.9c-0.3,0.2-0.8,0-0.9-0.3c-0.4-0.7-0.2-1.9-0.5-2.7c-0.1-0.3-0.5-0.8-0.9-0.9
		c-0.1-0.1-0.3,0-0.4-0.1c-0.1-0.1-0.3-0.5-0.5-0.8c-0.5-0.8-1.3-1.7-1.6-2.8c-0.2-0.7-0.3-1.4-0.1-2.1c0-0.2,0.1-0.4,0.2-0.5
		c0.1-0.2-0.9,0.3-0.9,0.6c0,0.5,0.1,1.1,0.1,1.7C79.6,21.4,80.4,22.7,80.9,23.8L80.9,23.8z M19.7,9.1c0.5,0.8,1.5,1.8,2,2.1
		c0,0-0.1-0.5-0.2-1c0-0.2,0-0.5-0.2-0.8C21.1,9,20.2,8.2,20,7.2c-0.2-0.2-0.6,0.8-0.6,1.1C19.4,8.5,19.6,8.9,19.7,9.1z M79.1,5
		c0.1,0.4,0.5,0.8,0.5,1.3c-0.1,0.5,0.1,0.6,0.4,0.2c0.9-1.3,0.1-2,0.8-3c0.2-0.4,0.7-1,0.9-0.6c0.3,0.8,0.1,1.4-0.1,1.7
		c-0.3,0.4-0.8,0.5-0.8,1.2c0,0.3-0.1,0.5,0.1,0.4c0.3-0.3,0.9-0.8,1.2-1.4c0.4-0.6,0.1-2.1-0.4-2.4c-0.2-0.1-0.8-0.2-1.3-0.2
		c-0.4,0.1-0.7,0.3-0.9,0.7C79.1,3.3,78.8,4.1,79.1,5z"/>
	<path d="M80.4,6.9c-1.5,1.1-3.2,2.1-4.9,2.8c-1.3,0.5-2.6,0.7-3.6,1.5c-0.5,0.4-1.5,1.8-1.3,1.7c1.9-0.9,4-1.6,5.9-2.4
		c2.2-1,4.1-2.3,5.8-3.8c0.3-0.3,1-0.9,1-1.3C83.5,4.9,83,4,82.8,3.7c-0.2,0.1,0,1-0.4,1.4C82.1,5.4,80.8,6.7,80.4,6.9z M46.2,8.2
		l2-0.8l-2-0.8l-2,0.8L46.2,8.2z M84,12.6c-0.2,0.5-0.4,0.9-0.6,1.3c0,0.2,3.4-2.1,3.9-3.4c0.1-0.4,0.1-1.1,0-1.4
		c-0.4,0.5-0.8,1.1-1.2,1.5C85.1,11.6,84.4,11.8,84,12.6z M82.1,9.7c-3.1,1.9-6.5,3.5-10.2,4.8c-0.5,0.2-2.4,1.1-2.5,1.2
		c-0.2,0.4-0.3,0.9-0.3,1.3c0.8-0.4,2.2-1.1,3.3-1.6c3.4-1.4,7.1-2.5,9.9-4.5c0.6-0.4,1.2-0.8,1.6-1.3c0.3-0.4,0.1-1.2,0-1.6
		C83.4,8.6,82.8,9.3,82.1,9.7z"/>
	<path d="M81.5,8c-0.5,0.4-2.9,1.9-4.1,2.6c-1.5,0.8-3.2,1.4-4.7,1.9c-0.8,0.3-2.5,1.1-2.5,1.4c-0.1,0.4-0.3,0.8-0.4,1.2
		c1.9-0.9,2.4-1,4.5-1.8c0.8-0.3,2.3-0.9,2.5-1.1c1.4-0.6,2.7-1.4,3.7-1.9c1.6-0.8,3-2.1,3.4-2.9c0.2-0.5,0-1-0.1-1.4
		C83.7,6,82.6,7.2,81.5,8L81.5,8z M53,6.4c-0.8,0.1-1.6,0.2-2.1,0.5c-0.3,0.2-0.3,0.6-0.3,0.6c0,0.2,0.5,0.5,0.7,0.5
		c1.2,0.4,3,0.3,4-0.2c0.3-0.1,0.7-0.4,0.4-0.8C55.4,6.6,53.9,6.4,53,6.4z M55.1,7.5c-0.2,0.2-1,0.4-1.8,0.4c-1,0-1.9-0.1-1.9-0.4
		c0-0.1,0.1-0.2,0.4-0.3c0.4-0.1,1-0.2,1.6-0.2c0.8,0,1.8,0.1,1.9,0.4C55.1,7.4,55.1,7.5,55.1,7.5z M74.7,8.1c0-0.2,0-0.3-0.1-0.4
		c-0.1-0.2-0.1-0.3-0.1-0.4c0.2-0.1,0.4-0.1,0.3,0.1c-0.1,1,0.4,0.3,0.3,0.9c0,0.5-0.4,0-0.6,0.3c-0.1,0.3-0.2,0.9,0,1.1
		c0.3,0,0.4-0.1,0.4-0.3c0-0.2,0-0.3,0.1-0.4c0.9,0,2.4-0.3,2.1-1.4c-0.1-0.4-0.3-0.7-0.4-1c0-0.3,0-0.5,0-0.7
		c-0.2,0.2-0.4,0.4-0.6,0.5c-0.6,0.4-3,1-3.1-0.1c0-0.5,0.2-0.5,0.4-0.8c-1.1-0.1-0.3-0.8,0-1c1.4-0.8,2.5-0.4,2.7,0.4
		C76.4,4.4,77,4.2,77.4,4c-1,0-2.6-0.3-1-1c1-0.5,2.5,0.1,2.7-0.3c0.2-0.3,0.2-0.4-0.8-0.4c-0.8,0-2.1,0.1-2.7,0.6
		c-0.2,0.1-0.3,0.5-0.5,0.6c-0.8,0.1-2.5,0.8-2.7,1.4c-0.1,0.5,0.2,0.7,0.2,1c0.1,0.9-0.1,1.1,0.8,1.4c0,0,0,0.1,0,0.2
		c-0.2,0.2-0.7,0.2-1,0.1c-1.1-0.1-1.3-1.1-0.2-1.3C71.9,5.9,71.6,6,71.2,6c-0.4,0.1-0.7,0.2-0.9,0.5c-0.2,0.3-0.2,0.7-0.1,1
		C71.2,9.4,73.3,8.9,74.7,8.1L74.7,8.1z M75.5,8.5c-0.1,0-0.2-0.3-0.1-0.3C75.7,8.3,75.6,8.4,75.5,8.5z M76.4,8.2
		c0,0.1-0.2,0.1-0.4,0.1c-0.2,0-0.5-0.4-0.2-0.4c0.2,0,0.4,0,0.5,0C76.5,8,76.5,8.1,76.4,8.2z M75.4,7.1c0.2,0,0.6-0.2,0.7-0.2
		c0.3,0,0.4,0.3,0.3,0.4C76.1,7.2,74.9,7.2,75.4,7.1z M60.1,8.2l2-0.8l-2-0.8l-2,0.8L60.1,8.2z"/>
	<path d="M35.8,8.8c-0.2,0.4-0.1,0.9,0,1.4c-0.4,0.2-0.7,0.5-0.9,0.9c0.1,0.1,0.2,0.3,0.3,0.3c0.2,0,0.3-0.1,0.3-0.2
		c0.2-0.2,0.8-0.7,0.9-0.9c0.1-0.1,0-0.4,0-0.6c-0.2-0.8,0.3-0.9,0.5-0.9c0.4-0.1,0.6,0.1,0.8-0.2c0.1-0.1,0-0.3,0-0.5
		c0.1-0.7,0.8-0.7,1.3-0.4c0.3,0.2,0.6,0.2,0.9-0.1c0.3-0.3,0.9-0.2,1.2,0.3c-0.5,0.1-0.8,0.4-0.8,0.8c-0.4-0.2-0.6-0.1-0.8,0
		c-0.4,0.2-0.6,0.5-0.8,0.8c-0.1,0-0.3-0.1-0.5,0c-0.4,0.1-0.8,0.5-0.8,0.9c0,0.4,0.4,0.7,0.6,0.9c0.5,0.5-0.3,0.3-0.4,0.7
		c-0.1,0.4,0.2,0.8-0.3,0.8c-0.4,0-0.6-0.6-0.8-0.5c0,0.1-0.1,0.8,0,0.7c0.3-0.1,0.5,0.2,0.7,0.2c0.4,0,0.6-0.1,0.8-0.1
		c0.2,0,0.4,0.2,0.7,0.2c0.2,0.1,0.6,0,0.7,0h0c1.3-0.6,0.3-1.3,0.3-1.3s-0.2-0.2-0.4-0.3c0,0,1.1,0.2,0.5-0.7l0.1,0l0.3,0.1l0.1,0
		c0.1,0,0.1,0.1,0.2,0.1l0.2,0.1c0,0,0,0,0,0c0.1,0,0.1,0.1,0.2,0.1c0,0,0,0,0,0l0,0l0,0h0l0,0h0l0,0h0l0,0c0,0,0.1,0,0.1-0.1l0,0
		l0,0c0,0,0,0,0.1-0.1v0c0-0.1,0-0.1,0.1-0.2c0,0,0,0,0-0.1c0,0,0,0,0,0l0,0l0-0.1l0-0.3l0-0.4v0l0,0v0l0,0c0-0.2,0-0.3-0.1-0.5
		c0.6,0,0.6,0.6,0.9,0.5c0.1-0.1,0.2-0.5,0.3-0.8h0c0-0.3-0.1-0.5-0.2-0.8h0c0,0-0.4-0.6-0.4-0.7c-0.1-0.2-0.1-0.4-0.2-0.6
		c-0.1-0.1-0.5-0.4-0.5-0.6c0-0.4,0-1.1,0.2-1.1c4.3,0,19.5-0.1,23.2-0.1c0.5,0,0.9,0.2,0.8,0.2c0,0.2,0.1,0.7,0,1
		c-0.1,0.2-0.4,0.3-0.5,0.5c-0.1,0.2-0.2,0.7-0.3,1l0,0c-0.1,0.1-0.2,0.3-0.3,0.4h-1.3c-0.1,0-0.1,0-0.2,0h1.4C64,9.2,64,9.5,64,9.6
		h0c0,0,0,0.3,0.1,0.6v0c0,0.1,0.1,0.2,0.2,0.2c0.2,0,0.6-0.5,1.2-0.5c0,0.4-0.1,1.6,0.2,1.5c0.3-0.1,0.6-0.5,0.8-0.4
		c-0.2,0.2-0.1,0.4,0,0.5v0c0,0,0.1,0.2,0.8,0.2c0,0-1.6,1.1-0.1,1.6c0.4-0.1,0.8-0.2,1-0.3c0.4-0.1,0.6,0.1,0.9,0
		c0.3-0.1,0.8-0.1,0.8-0.4c0-0.2-0.2-0.5-0.2-0.6c-0.4,0.2-0.6,0.7-1,0.5c0.2-0.4,0-1.1-0.5-1.1c-0.5-0.1,0.7-0.6,0.6-1.4
		c0-0.4-0.5-0.9-1.2-0.7c-0.2-0.3-0.4-0.7-0.7-0.8c-0.3-0.1-0.7-0.1-0.9,0C66,8.3,65.8,8.2,65.3,8c-0.1,0.1,0.2-0.8,1-0.4
		c0.2,0.1,0.3,0.3,0.5,0.3c0.6,0.1,0.9-0.6,1.6-0.2l0,0c0.1,0.1,0.4,0.5,0.2,0.9c0.3,0.5,0.7,0.1,1,0.3l0,0c0.7,0.5,0,0.8,0.2,1.4
		c0.1,0.3,0.7,0.6,0.9,0.8c0.3,0.4,0.8,0.1,0.5-0.2c-0.2-0.2-0.7-0.5-0.8-0.8c-0.1-0.2,0.1-0.4,0.2-0.6c0.1-0.9-0.6-1.3-1.5-1.3
		c-0.2-0.6-0.3-1-0.9-1.2c-0.8-0.3-0.9,0.2-1.3,0.2c0,0-1-0.3-1-0.4c-0.1-0.1-0.2-1.5-0.2-1.7C66.6,4.8,67.7,4,67.8,3
		c0.1-0.5,0-1.4,0-1.9c-0.6,0.1-1.5-0.1-2.1,0.1c-1.2,0.3-0.1,3-1.8,3.2c-0.7,0.1-1.1-0.4-1.3-0.8c-0.6-1.2,0.3-2.1,0.4-2.5
		C62.4,1.1,59,1,57.7,1c0,0.1,0.7,1.3,0.2,2.4C57.6,4,56.6,5,55.5,3.7c-0.4-0.4-0.4-1.2-0.3-1.9c0.1-0.3,0.2-0.4,0.3-0.9
		c-1.1,0-3.6,0-4.8,0C50.8,1.4,51,1.6,51.1,2c0.2,1.1-0.3,2.3-1.3,2.4c-1,0.1-1.7-1.1-1.6-2.1c0-0.4,0.2-0.8,0.3-1.2
		c-1.7,0.1-3.5,0-5.1,0.1c0.1,0.8,0.9,1.7,0.1,2.8c-0.5,0.8-2.1,0.9-2.2-0.7c-0.1-0.7-0.1-1.4-0.7-1.9c-0.7,0-1.5,0-2.2,0
		c-0.4,2.4,0.5,2.8,1.9,3.9v1.7c-0.3,0.1-0.9,0.4-1.2,0.4c-0.1,0-0.5-0.6-1.3-0.1c-0.5,0.2-0.8,0.8-0.9,1.2
		C36.6,8.3,36,8.4,35.8,8.8L35.8,8.8z M37.8,10.3c0.1,0,0.1-0.1,0.2-0.2c0.5-0.1,1,0.4,1.1,0.7c0,0,0,0.2,0,0.2
		C38.6,11.2,37.7,10.8,37.8,10.3z M38.8,12.9c-0.3,0-0.7-0.1-0.8-0.2c-0.2-0.2-0.2-0.6,0.2-0.6c0.3,0,0.7,0.3,0.9,0.5
		C39.2,12.7,39.2,12.8,38.8,12.9z M40.4,10.6c-0.4-0.1-1-0.3-1.1-0.6c-0.1-0.2,0.1-0.5,0.1-0.5C40,9.3,40.7,10.4,40.4,10.6z
		 M41.1,8.7c0.5-0.2,0.7,0.4,0.6,0.7C41.4,9.3,40.8,9,41.1,8.7z M67.4,12.9c-0.7,0,0.2-0.8,0.6-0.8C68.9,12,68.4,12.9,67.4,12.9z
		 M68.1,10.1c0.9-0.1,0.2,0.9-0.4,1C66.9,11.1,67.8,10.2,68.1,10.1z M66.6,9.5c0.2,0,0.2,0,0.4,0c0.2,0.6-0.4,0.9-0.8,1.1l-0.2,0
		C66,10.1,66.3,9.6,66.6,9.5z M65.2,9.1c-0.1,0.1-0.4,0.2-0.5,0.2l-0.2-0.1C64.6,9,64.7,8.7,65,8.7C65.4,8.6,65.4,9,65.2,9.1z
		 M65.8,2.5c0.1-0.2,0.4-0.4,0.8-0.4c0.8,0,0.4,1,0.4,0.9c0,0.1-0.1,0.3-0.2,0.4c-0.3,0.4-0.8,0.8-1.2,1C65.7,3.8,65.6,3,65.8,2.5z
		 M58.8,3c0-0.6-0.1-0.8,0.1-1.2c1,0,2.9-0.1,2.8,0.2c-0.4,1.7,0.2,2.5,0.9,3c-1.6,0-1.8-0.6-1.9-1.5c-0.3-0.2-0.6-0.1-1-0.1
		c-0.4,1-0.2,1.6-2,1.5C57.1,5.1,58.7,4.5,58.8,3z M52,3.2c0.1-0.4,0-0.9-0.1-1.2c0-0.2,2.6-0.3,2.5-0.1c-0.3,2.3,0.9,2.8,1.3,3.2
		c-1.3,0.1-1.9-0.1-2.1-1.4c-0.4,0-0.6,0-0.9,0c-0.1,1.3-0.7,1.5-2,1.4C51.3,4.6,51.8,4.1,52,3.2z M44.6,1.9c0.2,0,2.5-0.1,3-0.1
		c-0.1,0.7-0.1,2.5,1.2,3.1c-1.7,0.1-1.6-0.3-2.1-1.5c-0.2,0-0.6,0-0.9,0c-0.3,1.2-0.1,1.6-2,1.5C44.4,4.2,45.1,3.9,44.6,1.9z
		 M39.3,2c0.2,0,0.6,0,0.9,0c0.7,0.5,0.2,1.8,0.7,2.5C39.8,3.9,38.8,2.7,39.3,2z"/>
	<path d="M91,39.9c-0.4,0.5-1.5,0.9-2.3,0.9c0.1-1-0.8-1.4-1-2.3c-0.2-0.6,0.2-1.2,0.2-1.6c0.1-0.7-0.5-0.7-0.6-1.1
		c-0.1-0.3,0-0.7,0-0.9c0-0.2-0.4-0.4-0.9-0.6c-0.8,0.7-1.6,0.8-2.2,0.4c-0.2-0.1-0.4-0.3-0.4-0.4c-0.1-0.7,0.6-1.6,0.8-2.1
		c0.2-0.4,0.2-0.9,0.3-1.3c1.6-0.3,2.5-1.4,2.3-3.3c-0.1-0.5-0.3-1-0.5-1.4c-0.3-0.4-0.5-0.9-0.8-1.3c-0.6-0.8-1.2-1.7-1.6-2.7
		c-0.8-1.9-0.7-4.7,0.3-6.2c0,0,0.5-0.6,0.3-0.5c-0.2,0-0.5,0.3-0.7,0.4c-0.5,0.3-0.8,1.2-0.9,1.9c-0.1,0.4-0.1,0.7-0.1,1
		c0,0.3,0,0.8,0.1,1.1c0.2,1.6,0.7,2.5,1.3,3.7c0.7,1.4,2.6,2.9,2.3,5.1c-0.2,1.4-1.6,1.6-2.9,1.6c0.1,0.6,0.2,1.4,0.1,2.1
		c-0.1,0.7-0.7,1.3-0.5,2.2c0,0,0.2,1.7,3.3,0.6c0.1,0.5,0.2,0.9,0.4,1.2c0.4,0.5,0.3-0.1,0.1,0.9c-0.1,0.5,0,1.1,0.1,1.4
		c0.2,0.6,0.6,1,0.8,1.6c0,0,0,0.5-0.3,1.1c-0.7-0.1-1.9-0.1-2.4,0.2c-0.6,0.4-0.2,0.9-0.9,0.9c-0.2,0-0.1-0.3-0.2-0.4
		c-0.3-0.5-0.8-0.6-1.4-0.7c0.1-1.1,0.1-1.2-0.5-1.9c0.4-0.3,0.8-0.2,1.3,0.1c0.3,0.2,0.5,0.3,0.9,0.5c0.2-0.4,0-1.1,0.2-1.6
		c0.3-0.8,0.4-1.1,0-1.1c-0.8-0.1-1.4-0.2-1.7-0.9c-0.7-1.3-0.2-0.9-1.1-0.6c-2,0.8-2.8-0.1-3.4-0.6c-0.3-0.3-0.5-0.7-0.6-1.2
		c-0.3-1-0.4-2.3-0.3-3.5c0.1-1,0.5-2.4,0.2-3.8c-0.1-0.6-0.6-1.4-1-1.6c-0.5-0.2-1.1-0.2-1.6-0.4c-1.3-0.4-2.4-2-1.7-3.5
		c0.5-1.1,1.8-1.7,1.8-2.1c-0.3,0-0.6,0-0.9,0c-0.6,0.9-3.4,2.9-4.2,3.5c0.5,0.8,0,1.5,0.1,1.3c-0.8-0.9-1.4,0.5-1.7,0.4
		c-0.2-1.1-0.3-1.1-1.2-1.6c0.1-0.7,0.5-1.2,0-1.8l0-0.2c0.1-0.3,0.1-0.6,0.1-1c0.4-0.1,1.2,0.9,1.4,0.8c0.9-0.3,1.8-1.2,3.7-2
		c1.2-0.5,2.5-1,3.7-1.4c2-0.7,5.4-1.7,6.4-3.2c0.2-0.3,0.3-0.7,0.4-1.1C83,13,81.6,14,80.2,14.7c-1.2,0.5-3.3,1.1-4.5,1.6
		c-1.6,0.6-3.3,1.2-4.8,2c-1.1,0.6-1.6,1-1.9,1.1c-0.4,0.2,0.1,0.4-0.2,0.6c-0.4-0.4-1-0.7-1.5-0.8v0h0c-0.4,0-0.7,0.1-0.7,0.1v-0.1
		c0,0,0,0,0,0v0.1c0,0-0.1,0-0.2,0.1c-0.2,0.2-0.7,0.4-0.8,0.6c-0.2,0.3-0.2,0.8-0.1,1c0.1,0.1,0.4,0.2,0.5,0.2
		c-0.4,0.3-0.8,0.8-0.8,1.4c-0.2,1.4,1.2,0.5,1.3,0.9c0.2,0.6-0.3,1.1-0.2,1.8c0,0.1,0.1,0.3,0.2,0.4c0,0,0.1,0.1,0.1,0.1
		c0.6,0.1,0.8-0.1,0.8-0.1c0.8-0.5,0.6-0.3,0.7-0.4c0.7,0,0.3,0.6,0.1,0.7c-0.1,0.1-0.6,0.3-0.2,0.4c0.7,0.1,1,0.3,1.8-0.3
		c0.6-0.4,1.1-1.4,1.2-2.3c0,0-0.1-0.6,0-0.7c0-0.1,1.8-1.4,1.8-1.4c0.2,0.2-0.5,2.3,0.9,3.5c0.9,0.8-1.1-0.3-3.4,0.7
		c-1.1,0.5-1.7,1.2-2.3,2.2c-1.1,2,0.3,3.6,1.8,4.4c0,0.8,0.1,0.8-0.1,0.9c-0.2,0.1-0.4,0-0.6,0.1c-1.1,0.4-0.9,1.3-1.5,1.2
		c-0.8-0.2-1.3-1.4-2.4-1.3c-0.5,0.1-0.6,0.5-1,0.7c-0.3,0.1-0.3,0.1-0.3,0c-0.4,0.3-1.5,1-3.3,1.7c0.3-0.1,0.7-0.2,1-0.2
		c0.2,0,0.9-0.1,1.1,0.1c0.1,0.1,0.2,0.6,0.4,0.6c0,0,1.2-0.8,0.9,0c-0.2,0.2-1.3,0.5-0.6,1.9c0.9,0.5,1.7,1.1,2.4,2
		c0.9,1.4,0.5,3-0.7,3.7c0.6-1.8-0.1-3.5-1.9-3.8c-0.9-0.2-1.7-0.1-2.5-0.4c-1-0.4-1.7-1.1-2.5-1.6c-0.7-0.4-1.6-0.5-2.3-0.9
		c0,0-3,0.4-5.5,0c0.1,0,0.2,0,0.3,0.1c-1,0.4-2,0.7-2.9,1.2c-0.7,0.4-1.3,1-2.1,1.3c-0.7,0.3-1.5,0.2-2.4,0.4
		c-1.7,0.4-2.5,1.9-1.9,3.8c-1.1-0.7-1.6-2.2-0.8-3.6c0.6-1,1.7-1.6,2.7-2.2c0-0.1,0-0.2,0-0.3c0.1-0.7,0-0.7-0.1-0.9
		c-0.1-0.2-0.3-0.5-0.8-0.6c0-0.1-0.1-0.2,0-0.3c0.2-0.1,0.4,0.2,0.6,0.2c0.6,0.2,0.4-0.7,1-0.7c0.7,0,1.3,0.1,1.8,0.3
		c-1.1-0.5-2.2-1-3.2-1.7c-0.2,0-0.5-0.1-0.7-0.1c0-0.3-0.5-0.7-1.3-0.7c-0.8,0.1-1.2,1.2-2.4,1.3c-0.5-0.8-0.8-1.2-1.7-1.3
		c-0.1-0.1-0.2-0.7-0.1-0.9c-0.1,0.1,1.1-0.6,1.5-1.1c1.9-2.1-0.4-4.9-2.1-5.6c-1-0.4-2.2-0.2-3.3-0.3c0.7-1.2,1.3-2,1-3.9
		c0.3,0.1,1.8,1.1,1.9,1.4c0.1,0.3,0,0.7,0,1c0.1,0.8,0.7,1.7,1.3,2.1c0.5,0.3,1.4,0.4,1.9,0c-0.5-0.2-0.9-0.7-0.4-1
		c0.1,0.1,0.2,0.2,0.4,0.3c0.1,0.1,0.4,0.2,0.7,0.3c0,0,0.6,0,0.8-0.2v0c0.1-0.2,0.1-0.5,0.1-0.5v0c0,0,0-0.1,0-0.1l0-0.1
		c0,0,0,0,0-0.1c0,0,0-0.1,0-0.1c0,0,0-0.1,0-0.1c0-0.2-0.1-0.4-0.1-0.6v0l0,0c0-0.1,0-0.1,0-0.2l0-0.1c0,0,0-0.1,0-0.1
		c0,0,0-0.1,0-0.1v0c0,0,0,0,0.1,0c0.3,0.1,0.5,0.1,0.5,0.1c0.1,0,0.2,0,0.3-0.1c0.1,0,0.1-0.1,0.1-0.1c0,0,0,0,0,0c0,0,0,0,0,0
		c0-0.1,0.1-0.1,0.1-0.2l0-0.1v0c0,0,0,0,0-0.1c0,0,0-0.1,0-0.1v0c0-0.1,0-0.2,0-0.3c0,0,0-0.1,0-0.1c0,0,0,0,0,0c0,0,0,0,0,0
		c0,0,0,0,0,0c0,0,0,0,0,0c0,0,0,0,0,0v0c0,0,0,0,0,0c0,0,0-0.1,0-0.1c0-0.1,0-0.1-0.1-0.2c0,0,0,0,0,0c0-0.1-0.1-0.1-0.1-0.2
		c0,0,0,0,0,0c0-0.1-0.3-0.3-0.3-0.4c0,0,0,0-0.1-0.1c0,0,0,0,0,0c0,0,0,0,0,0c0,0,0,0,0,0c0,0,0,0,0,0c0,0,0,0,0,0c0,0,0,0,0,0
		c0,0,0,0,0,0c0,0,0,0,0,0c0-0.1,0-0.1,0-0.1c0.2,0,0.3,0,0.4,0c0,0,0,0,0,0c0,0,0,0,0,0c0,0,0,0,0,0c0,0,0,0,0,0c0,0,0,0,0,0
		c0,0,0.1-0.1,0.1-0.1c0,0,0,0,0,0c0,0,0-0.1,0-0.1v0v0c0-0.1,0-0.2,0-0.3c0,0,0,0,0-0.1c0,0,0-0.1,0-0.1c0,0,0,0,0,0l0,0
		c0,0,0,0,0,0l0,0c0,0,0-0.1-0.1-0.1c-0.1-0.1-0.1-0.2-0.2-0.2c0,0,0,0,0,0c0,0-0.1-0.1-0.1-0.1c-0.1-0.1-0.3-0.2-0.5-0.3
		c0,0,0,0,0,0c-0.2-0.1-0.5-0.1-0.7-0.1c-0.3,0-0.6,0-0.8,0.1c-0.4,0.1-0.6,0.4-0.8,0.6c-0.1,0.1-0.2,0-0.1-0.4c0-0.2-1.2-0.8-1.5-1
		c-1.1-0.6-1.9-1-3-1.4c-0.9-0.4-1.8-0.7-2.6-1c-1.2-0.4-2.5-0.7-3.7-1.3c-0.7-0.3-1.4-0.7-2.1-1.1c-0.8-0.5-1.4-0.9-1.3-0.7
		c0.1,0.3,0.2,0.7,0.5,1.1c0.3,0.4,1.2,1,1.6,1.3c1.1,0.6,2.7,1.1,4.3,1.7c1.5,0.5,3,1.1,4.5,1.8c0.8,0.4,1.6,0.8,2.3,1.2
		c0.3,0.1,0.8,0.6,1.2,0.5c0.1,0,0.4-0.4,0.6-0.5c0.2-0.1,0.4-0.3,0.5-0.3c0.4-0.2-0.1,0.3,0.3,1.2c-0.1,0.1-0.1,0.2-0.2,0.3
		c-0.3,0.4,0,1.1,0.2,1.6c-0.5,0.2-0.8,0.4-1,0.8c-0.3,0.7,0,1-0.6,0.6c-0.3-0.2-0.3-0.6-1-0.4c-0.3,0.1-0.4,0.4-0.5-0.3
		c0-0.2,0.1-0.6,0.2-0.8c-1.2-0.9-2.6-1.7-3.6-2.8c-0.4-0.5-0.4-0.8-1.5-0.6c1.8,1.4,2.2,2.2,2.1,3.4c-0.1,0.5-0.4,1-0.8,1.3
		c-0.2,0.2-0.5,0.6-0.8,0.7c-0.9,0.4-2,0.2-2.5,1c-0.9,1.4-0.3,3.7-0.2,5.4c0.1,1,0,2-0.3,2.9c-0.1,0.4-0.2,0.7-0.4,1
		c-0.6,1-1.9,1.7-3.5,1.1c-0.3-0.1-0.4-0.3-0.8-0.4c-0.4,0.9-0.6,1.2-1.2,1.6c-0.4,0.3-1.2,0.2-1.2,0.4c-0.1,0.4,0.2,0.7,0.2,0.9
		c0.1,0.4,0.2,1.3,0.1,1.6c0.1,0.1,0.2,0.2,0.3,0.1c0.4-0.3,1-0.9,1.7-0.7c0.1,0,0.3,0.1,0.2,0.2c-0.7,0.7-0.7,0.9-0.5,1.8
		c-0.3,0.3-0.5,0-0.9,0.3c-0.3,0.2-0.5,0.5-0.6,0.8c0,0.2-0.3,0.1-0.3,0.1c-0.1-0.2-0.2-0.4-0.3-0.6c-0.1-0.2-0.3-0.4-0.5-0.4
		c-0.6-0.2-1.7-0.3-2.2-0.1c-0.1,0-0.3-0.7-0.3-1.2c0-0.3,0.2-0.5,0.3-0.7c0.1-0.1,0.5-0.8,0.6-1.5c0-0.3,0-0.7,0-0.9
		c0-0.1-0.3-0.6-0.2-0.7c0.5-0.4,0.6-0.8,0.8-1.4c0.3,0.1,0.6,0.2,0.8,0.2c1,0.3,2.3,0.2,2.4-0.8c0.1-0.7-0.1-1.2-0.3-1.6
		c-0.3-0.8-0.4-1.9-0.1-2.8c-1.4,0.3-2.9-0.3-2.9-2.1c0-1.4,1.1-2.4,1.6-3.3c0.6-1,1.4-2.4,1.8-3.7c0.3-1.2,0.4-3.4-0.4-4.8
		c-0.2-0.4-0.6-0.5-1.1-0.7c0.2,0.5,0.6,0.9,0.8,1.4c0.5,1.4,0.5,3,0.1,4.4c-0.5,1.6-1.5,2.8-2.3,4.1c-0.4,0.7-1.1,1.6-1,2.9
		c0.2,1.6,1,2.2,2.4,2.6c0,0.5,0.2,0.9,0.3,1.3c0.2,0.5,0.7,1.6,0.6,2.2c0,0-0.2,0.5-1.1,0.5c-1,0-1.4-0.6-1.5-0.6
		c-0.1,0-0.5,0.3-0.6,0.3c-0.4,0.2-0.1,0.4-0.2,0.8c0,0.1-0.1,0.5-0.3,0.6c-0.3,0.2-0.6,0.5-0.4,0.9c0.2,0.3,0.3,0.8,0.2,1.3
		c-0.1,0.6-0.6,1-0.8,1.4c-0.5,0.7-0.1,1-0.3,1.1c-0.5,0-1.3-0.3-1.8-0.6c-0.2-0.2-0.6-0.5-0.5,0c0.2,0.6,0.4,1.2,0.6,1.7
		c0.7,1.4,2.8,3.6,7,3.4c0.9,0,2.5-0.4,3.3-0.8c0.2-0.1,0.5,1.1,0.8,1c0.4-2,2.4-2.3,4.4-2.5c0.2,0,0.4-0.1,0.6-0.1
		c0.7-0.1,0.7-0.3,1.4-0.4c0.5,1,1,1.7,1.8,1.9c1.3,0.4,0.8-0.1,0.7-0.4c-0.2-0.7-0.2-1.5,0.5-2c0.5-0.4,2.4-0.9,3.3-0.7
		c-0.2,1.4,0.4,2.2,1.2,2.9c0.2,0.1,0.4,0.4,0.7,0.4c0.1,0,0.2,0,0.2,0c0-0.4-0.2-0.7-0.3-1.2c-0.2-1.5,0.9-1.9,1.9-2.2
		c0.5-0.1,1.5-0.2,2.1-0.1c-0.1,1.1,0.2,2.1,0.7,2.8c0.1-0.4,0.1-0.8,0.3-1.1c0.5-0.8,1.7-1.7,2.8-1.8c1.1-0.1,2.1,0.2,3,0.4
		c0.1,0,0.2,0,0.3,0v0c0,0,0.1,0,0.1,0c0.1,0,0.1,0,0.2,0l0,0c0.8,0,1.6-0.2,2.4-0.4c1.9-0.3,3.7,0.5,4.4,1.8
		c0.1,0.2,0.1,0.3,0.2,0.6l0.1,0.4c0.5-0.8,0.6-1.6,0.6-2.8c0.6-0.2,1.7,0,2.3,0.1c1.4,0.4,2.2,1.5,1.4,3.1c0,0-0.2,0.4,0.3,0.3
		c1.2-0.2,2.1-1.9,1.9-3.3c0.2,0,0.5-0.1,0.7-0.1c1.5,0.2,3.6,0.7,3.1,2.6l-0.2,0.8c1.6,0.1,2.4-1.4,2.6-2c0.1-0.3,0.2,0,0.9,0.3v0
		c0.1,0,0.1,0,0.2,0c0,0,0,0,0.1,0v0c0.1,0,0.3,0.1,0.5,0.1c2.2,0.3,4.4,0.4,4.8,2.6c0.4-0.2,0.5-0.6,0.8-1c1.9,0.9,5.3,1,7.3,0.1
		c1.1-0.4,2.1-1.4,2.8-2.2c0.3-0.3,0.5-0.9,0.7-1.3C90.8,41,91.2,40.1,91,39.9L91,39.9z M66,20.2c0.1-0.1,0.2-0.2,0.4-0.2
		c0.6-0.1,0.5,0.3,0.5,0.6C66.5,20.5,65.5,20.6,66,20.2z M65.7,22.9c-0.3-0.5,0.2-1.2,0.7-1.3c0.1,0,0.3,0,0.4,0c0,0,0,0.2,0,0.3
		C66.7,22.4,66.1,22.8,65.7,22.9z M67,25.1c-0.6,0.1,0-1.2,0.2-1.2C68.1,23.7,67.7,25.1,67,25.1z M69,25.8c0-0.3,0.2-1.2,0.6-1.2
		c0.1,0,0.2,0.1,0.2,0.1C70.1,25.2,69.4,25.6,69,25.8z M40.5,22.2c0.2,0.2,0.3,0.6,0.1,0.7c-0.1,0.1-1-0.5-1.2-1
		c-0.1-0.2,0.1-0.3,0.2-0.3C40.1,21.7,40.3,21.9,40.5,22.2z M39.5,20c0.7-0.1,0.9,0.4,0.9,0.4c0,0.3-0.4-0.1-0.7,0.1
		C39.3,20.8,39.3,20.2,39.5,20z M38.8,23.9c0.5-0.1,0.9,1.1,0.7,1.2C39,25.4,38.1,24.1,38.8,23.9z M36.6,24.5c0.3,0,0.4,0.2,0.5,0.4
		c0.2,0.6,0.3,0.9,0,0.8c-0.2-0.1-0.6-0.4-0.6-0.7C36.4,24.8,36.5,24.6,36.6,24.5z M42.8,37.7c-0.4-0.2-0.7-0.3-1.1-0.4
		c0-0.2,0-0.2,0.1-0.3c0-0.1,0.1-0.2,0.2-0.2C42.6,36.6,42.7,37.3,42.8,37.7z M41.6,34.9c0-0.1,0.3-0.3,0.4-0.3c0.7-0.1,1.1,0.5,1,1
		c-0.4-0.2-0.8-0.3-1.2-0.2C41.7,35.3,41.6,35.1,41.6,34.9z M29.8,25.8c0.4-0.4,0.7,0,2.5-0.8c-0.6,0.5-1.8,1.1-1.8,1.2
		C30.8,28.3,28,27.5,29.8,25.8z M30.1,28c0.7-0.2,0.9-0.7,1.3-1.1c0.5-0.4,1.3-0.7,2.2-0.8c1.4-0.1,2.4,0.5,3.2,1
		c1.8,1.3,1.3,4.6-1.1,5c0,0.2,0,1.5,0.4,1.8c0.2,0,0.6-0.1,1.2,0.4c0.7,0.6,0.4,0.8,0.7,1c0.7,0.6,1.9-0.7,2.2-0.9
		c0.2-0.1,0.6-0.3,0.9-0.2c0,0,0.1,0.2,0.1,0.2c-0.1,0.1-0.1,0.1-0.2,0.3c-0.2,0.4-0.2,0.8,0.1,1c0.3,0.3,0.6,0.4,0.5,0.6
		c0,0.1-0.2,0.2-0.4,0.4c-0.3,0.2-0.1,0.8-0.3,0.8c-2.2,0.2-2.8-1.5-4.5-1.5c0.3,0.5,0.2,0.6,0.1,1c-0.5-0.1-0.9-0.1-1.3,0.2
		c-0.3,0.2-0.3,0.5-0.4,0.8c-0.8-0.2-1.2-0.5-1.5-1.1c-1.3-2.1,0.6-3.2,0.5-5.4c0,0,0.1-1-0.4-1c-0.5,0-1.4,0.2-2.2,0
		c-0.5-0.2-1.8-0.6-2-1.5C28.7,27.2,29.3,28.2,30.1,28z M36.1,38.5c-0.4,0-0.7-0.3-0.7-0.6c-0.1-0.6,0.8-0.7,0.8-0.3
		c0,0.2,0.1,0.3,0.3,0.5C36.7,38.4,36.4,38.5,36.1,38.5z M22.3,39.4c-0.1-0.4-0.3-1.1-0.1-1.3c0.3-0.1,0.8-0.3,1.1-0.5
		c0.4-0.3,0.5-0.4,0.7-0.9c0-0.1,0.1-0.2,0.1-0.3c2.3,1.3,4.4,0.2,5.2-1.9l0,0c0,0,0-0.1,0-0.1v0c0-0.1,0.1-0.2,0.1-0.3
		c0.3-1.2,0-2.8-0.1-3.9c0.5,0.1,0.6,0.4,1,0.6c0.8,0.4,1.9,0.4,2.9,0.4c0.1,0.2,0.1,0.4,0,0.6c0,0.1,0,0.2,0,0.3c0,0.1,0,0.1,0,0.1
		c0,0.2-0.2,0.7-0.2,0.7c-0.5,1.4-1.4,2.8-0.3,4.2c0.1,0.1,0.2,0.3,0,0.4c-0.1,0.1-0.3,0.1-0.4,0.2c-0.4,0.1-0.9,0.3-1.3,0.4
		c-0.9,0.2-1.8,0.3-2.9-0.1c-0.4-0.1-0.5-0.4-1-0.6c-0.1,0.5,0.2,1.5,0,1.6c-0.5,0.3-1,0.3-1.5,0.4c-0.2,0-0.4,0.1-0.7,0.1
		c-0.2-0.3-0.4-0.5-0.8-0.7C23.6,38.5,22.8,39,22.3,39.4z M25.5,41.6c0,0-0.1,0.1-0.1,0.1c-0.1,0-0.4-0.5-0.6-0.5
		c-0.4,0-0.8,0-0.7-0.5c0.1-0.1,0.1-0.2,0.2-0.2C25,40.2,25.5,41.3,25.5,41.6z M22.8,42.4c0.5-0.3,1.4,1,0.7,1.5
		c-0.2,0.1-0.2-0.3-0.4-0.6C22.8,43,22.5,42.7,22.8,42.4z M19.2,42c0.3-0.1,0.8,0,0.8,0.2c-0.4,0.4-0.5,0.6-0.6,1.2
		C19.2,43.4,18.6,42.3,19.2,42z M24.4,44.4c-1.2,0.7-3.6,0.4-4.5,0.1c-2.4-0.9-3.7-2.7-3.8-3.3c0-0.1,0.8,0.3,1.2,0.3
		c0.8,0,0.9,0.5,1,0.6c0.1,0.2,0,0.7,0.2,1c0.3,0.5,0.6,0.9,1.3,0.9c0.1-0.3-0.1-0.4,0.3-1c0.5-0.7,0.8,0,0.9,0.2
		c0.2,0.1,0.3,0.3,1,0.4c0.5,0,0.9,0.2,1.1,1.1c0.2,0.1,1.2-0.9,0.8-1.7c-0.2-0.3-0.2-0.6,0-0.9c0.1-0.2,0.7-0.3,1,0.2
		c0.2,0.4,0.2,0.5,0.5,0.2c0.6-0.9,0.5-1.8-0.1-2.3c-0.4-0.2,0.4-0.4,1-0.5c0.3,0,1.3,0.1,1.9,0.5c0.3,0.2,1.1,0.3,0.7,0.5
		c-0.5,0.2-1.6,1-1.9,1.4C26.1,43.4,25.1,44,24.4,44.4z M32.7,41.6c-0.4,0.2-0.8,0.3-1.3,0.4c-0.3,0-0.5,0.1-0.8,0.1
		c-1.7,0.2-2.7,0.8-3.6,2.7c-0.1,0.2-0.8-1.2,0.6-2.7c0.8-0.9,2.7-1.4,3.6-1.9c0,0,0,0,0.1,0h-0.1c-1.8,0.1-3.3-0.6-3.7-2.1
		c0.7,0.5,1.5,0.7,2.7,0.8c0.3,0,0.6,0,0.9-0.1v0c0,0,0,0,0,0h0v0c0.5-0.1,1-0.3,1.5-0.4c1.1-0.2,2.2-0.1,2.7,0.4
		c0.3,0.4-0.2,0.5-0.5,0.7C34,40,33.6,41.1,32.7,41.6z M35.3,42c-0.3,0.9-0.2,1.2,0,1.6c0.2,0.4,0.3,0.7-0.3,0.3
		c-1.7-1-1.5-3.1,0.1-4.3c0.9-0.7,2-0.8,2.3-1c0-0.1-0.5-0.4-0.7-0.7c-0.2-0.4-0.1-0.9,0.4-0.9c0.6-0.1,1,0.4,1.3,0.5
		c0.5,0.3,2.3,1.3,3,0.6c0.4-0.4,1-0.1,0.8,0.1c-1.2,0.4-1.5,1.2-2.5,1.6C38.4,40.4,35.8,40.5,35.3,42z M60.1,42.4
		c-1.3-1.2-2.2-2.3-5-2.1c-0.5,0-0.8,0.1-1.3,0.3c-0.3,0.2-0.6,0.2-0.9,0.1c-0.2,0-0.5-0.1-0.8-0.2c-1.8-0.5-3.7,0.1-4.3,0.5
		c-0.4,0.2-1.2,0.8-1.3,1.1c-0.1,0.1-0.1,0.1-0.3,0.3c-0.1-0.1-0.1-0.3,0-1c0.1-1,1.1-1.9,1.7-2.4c1.2-0.9,2.7-1.2,4.7-1.4
		c0.1,0,0.5,0,0.6,0c0.5,0,1-0.1,1.4,0c2.3,0.3,4.6,1.3,5.5,3.2C60.2,41.2,60.3,41.8,60.1,42.4z M86.7,42.1c1-0.1,0.6,0.9,0.4,1.3
		c0,0-0.1,0.1-0.1,0.1c0,0,0-0.1,0-0.1c0-0.3,0-0.5-0.1-0.7c-0.1-0.2-0.3-0.3-0.4-0.5C86.4,42.1,86.6,42.1,86.7,42.1z M83.2,42.4
		c0.9-0.1-0.4,1.4-0.4,1.5C82.5,43.4,82.5,42.5,83.2,42.4z M82.2,36.4c0.3,0.7,0.7,1.2,1.4,1.5c0.2,0.1,0.4,0.1,0.6,0.2
		c-0.1,0.4-0.1,0.8-0.2,1.2c-0.7-0.3-1.6-0.9-2.3-0.2c-0.1,0.1-0.3,0.3-0.4,0.4c-0.3-0.1-2.1-0.5-2.1-0.6c-0.1-0.3,0.2-1.1,0-1.5
		c-0.4,0.2-0.6,0.4-1,0.6c-1,0.4-2.4,0.3-3.5,0c-0.5-0.1-0.9-0.3-1.2-0.6c0.4-0.8,1-1.3,0.7-2.5c-0.3-1.2-1.4-2.4-1-3.7
		c0.7-0.2,1.5,0,2.3-0.2c0.6-0.2,0.9-0.6,1.4-0.8l0.1,0c0.1,0-0.1,0,0,0c0,0,0.1,0.1,0,0.1c-0.1,0.4-0.1,0.8-0.2,1.2
		c-0.1,1.2,0,2.2,0.4,3.1l0,0c0,0,0,0.1,0,0.1c0,0,0,0.1,0,0.1l0,0C78,36.7,79.7,37.6,82.2,36.4z M81.3,41.4c-0.4,0.5-0.4,0-0.4,0.1
		c0-0.5,0.3-0.9,0.8-1c0.2,0,0.4,0,0.4,0.1C82.4,41.5,81.4,41.2,81.3,41.4z M75.1,25.5c1,0.3,1.7,0.2,2,1.2c0.1,0,0,0.2,0,0.2
		c0,0.3-0.3,0.6-0.7,0.5c0,0-0.1,0-0.1,0c-0.4-0.1-0.6-0.7-0.5-1.2c-0.5-0.4-1.1-0.7-1.6-1.1C74.5,25.3,74.8,25.4,75.1,25.5z
		 M64.8,36.1c0-0.4,1-0.4,0.6-1.4c-0.1-0.2-0.1-0.2-0.2-0.4c0.4-0.1,0.6-0.1,0.9,0.1c0.3,0.2,2,1.8,2.4,0.7c0.2-0.6,0.7-1.2,1.9-1.3
		c0.1-0.3,0.3-1.3,0.3-1.5c-1.3-0.3-2.2-1.5-2.2-2.9c-0.1-1.8,1.8-3.2,3.8-3.3c0.9,0,1.7,0.3,2.3,0.6c1,0.5,0.8,1.4,2.4,1.2
		c0.7-0.1,0.2,1.2,0,1.4c-0.4,0.6-1.3,0.9-2.2,1.1c-0.8,0.2-1.8-0.3-2,0c-0.8,1.3,0.6,3.6,0.7,4.8c0.1,1.1-0.6,2.1-1.3,2.4
		c-0.3,0.2-0.6,0.1-0.6,0.1c-0.2-0.9-0.8-1-1.7-0.9c0-0.1-0.1-0.2-0.1-0.4c0-0.2,0.2-0.5,0.2-0.7c-1.4,0.1-3,2-4.5,1.6
		c-0.2-0.1-0.1-0.2-0.2-0.5C65.3,36.5,64.7,36.4,64.8,36.1L64.8,36.1z M70.3,38.5c-1.1,0.1,0-1.1,0-1.1
		C71.1,37.3,71.1,38.4,70.3,38.5z M63.2,35.6c0-0.3,0-0.6,0.2-0.8c0.1-0.1,0.4-0.2,0.6-0.2c0.2,0,0.5,0.1,0.6,0.3
		c0,0.1-0.1,0.3-0.1,0.4C64.1,35.4,63.7,35.4,63.2,35.6z M64,36.8c0.3,0,0.5,0,0.6,0.2c0,0.1,0,0.1,0.1,0.2c-0.4,0.1-0.7,0.3-1,0.5
		C63.5,37.4,63.6,36.9,64,36.8z M71.9,43.2c-0.2,0.3-0.6,0.8-1,0.8c-0.1,0,0-0.2,0-0.4c0.2-0.5,0.2-1.1,0-1.6
		c-0.6-1.5-2.3-1.6-3.9-2c-0.6-0.1-1.2-0.4-1.6-0.7c-0.5-0.4-0.9-0.9-1.6-1.2c0.1-0.1,0.3-0.2,0.4-0.1c0.3,0,0.4,0.2,0.6,0.3
		c0.9,0.3,2.4-0.5,2.9-0.8c0.3-0.2,0.5-0.5,0.9-0.5c0.5,0,0.9,0.3,0.7,0.8c-0.1,0.4-0.5,0.5-0.7,0.9c0.4,0.2,1,0.3,1.4,0.4
		C71.6,39.6,73,41.4,71.9,43.2z M79.4,44.7c-0.4-0.8-1-1.6-1.8-2.1c-1-0.6-2.5-0.4-3.7-0.8l-0.1,0c-1.2-0.5-1.5-1.9-2.6-2.4
		c-0.8-0.4-0.4-0.6,0.2-0.8c1.2-0.5,2-0.2,2.8,0.1c0,0,0,0,0,0c0,0,0.1,0,0.1,0v0c0.3,0.1,0.7,0.2,1.1,0.2c0.8,0.1,1.8,0,2.4-0.2
		c0.2-0.1,0.6-0.4,0.8-0.4c0.2,0,0,0.3,0,0.3c-0.6,1.2-2,1.8-3.8,1.6v0.1C76.8,40.8,80.3,42.1,79.4,44.7z M82.8,44.8
		c-1.7-0.3-3.2-2.3-4-3.1c-0.6-0.6-1.7-1-1.5-1.2c0.7-0.3,1.4-0.7,2.2-0.8c0.6-0.1,1.1,0.2,1.4,0.4c-0.1,0.1-0.2,0.2-0.3,0.4
		c-0.1,0.3-0.2,0.8-0.2,1.2c0.1,0.3,0.2,0.5,0.3,0.7c0.6,0.8,0.3-0.5,1-0.5c0.1,0,0.4,0,0.4,0.1c0.5,0.6-0.9,1.7,0.7,2.7
		c0.2-0.3,0.3-0.7,0.6-0.9c0.3-0.2,0.6-0.1,1-0.2c0.4-0.1,0.7-0.4,1-0.7c0.1-0.1,0.3-0.2,0.5,0c0.3,0.2,0.3,0.9,0.5,1.2
		c0.6-0.2,1.2-0.4,1.3-1c0.1-0.6,0-0.7,0.3-1.1c0.4-0.4,1.4-0.6,2-0.7C89.1,43.4,86.2,45.3,82.8,44.8L82.8,44.8z"/>
</g>
<g>
	<path d="M9.5,57.3c-0.8,0.2-1.3,0.3-1.7,0.4c-0.4,0-0.7,0.1-1.1,0.1c-1.6,0-2.8-0.4-3.5-1.3c-0.7-0.8-1.1-1.9-1.1-3.2
		c0-0.9,0.2-1.6,0.5-2.3c0.3-0.7,0.8-1.2,1.5-1.6c0.7-0.4,1.5-0.6,2.6-0.6c0.9,0,1.9,0.1,2.8,0.3v1.4C8.7,50.2,8.1,50,7.8,50
		c-0.3,0-0.6-0.1-1-0.1c-1,0-1.7,0.3-2.2,1C4.2,51.5,4,52.3,4,53.2c0,1,0.3,1.8,0.8,2.4C5.3,56.2,6,56.5,7,56.5c0.2,0,0.5,0,0.7-0.1
		v-2.8h1.8C9.5,53.6,9.5,57.3,9.5,57.3z M16.3,57.3c-0.8,0.2-1.6,0.4-2.3,0.4c-0.7,0-1.3-0.1-1.8-0.4C11.6,57,11.2,56.6,11,56
		c-0.3-0.6-0.4-1.2-0.4-1.8c0-0.6,0.1-1.1,0.4-1.6c0.2-0.5,0.6-0.9,1-1.2c0.4-0.3,1-0.4,1.7-0.4c0.8,0,1.5,0.3,1.9,0.8
		c0.5,0.5,0.7,1.5,0.7,2.9h-3.9c0,0.4,0.1,0.8,0.3,1c0.2,0.2,0.4,0.4,0.6,0.6c0.3,0.1,0.6,0.2,1.1,0.2c0.6,0,1.2-0.1,1.9-0.4
		C16.3,56.1,16.3,57.3,16.3,57.3z M12.3,53.7h2.3c0-0.6-0.1-1-0.3-1.2c-0.2-0.2-0.5-0.4-0.8-0.4c-0.3,0-0.6,0.1-0.8,0.4
		C12.5,52.8,12.4,53.2,12.3,53.7z M17.5,57.5v-6.3h1.6v1.2c0.2-0.4,0.5-0.7,0.9-1c0.3-0.3,0.8-0.4,1.3-0.4c0.3,0,0.6,0,0.8,0.1
		c0.2,0.1,0.4,0.2,0.6,0.4c0.2,0.2,0.3,0.5,0.3,0.8c0.3-0.5,0.6-0.8,1-1c0.3-0.2,0.7-0.3,1.2-0.3c0.5,0,0.9,0.1,1.3,0.5
		c0.3,0.3,0.5,0.8,0.5,1.5v4.6h-1.6v-4c0-0.5-0.1-0.8-0.2-0.9c-0.1-0.1-0.3-0.2-0.5-0.2c-0.3,0-0.5,0.1-0.8,0.3
		c-0.3,0.2-0.5,0.5-0.7,0.8v4h-1.6v-4c0-0.5-0.1-0.8-0.2-0.9c-0.1-0.1-0.3-0.2-0.5-0.2c-0.2,0-0.5,0.1-0.7,0.3
		c-0.2,0.2-0.5,0.5-0.7,0.8v4L17.5,57.5L17.5,57.5L17.5,57.5z M33.6,57.3c-0.8,0.2-1.6,0.4-2.3,0.4c-0.7,0-1.3-0.1-1.8-0.4
		c-0.5-0.3-0.9-0.7-1.2-1.2c-0.3-0.6-0.4-1.2-0.4-1.8c0-0.6,0.1-1.1,0.4-1.6c0.2-0.5,0.6-0.9,1-1.2c0.4-0.3,1-0.4,1.7-0.4
		c0.8,0,1.5,0.3,1.9,0.8c0.5,0.5,0.7,1.5,0.7,2.9h-3.9c0,0.4,0.1,0.8,0.3,1c0.2,0.2,0.4,0.4,0.6,0.6c0.3,0.1,0.6,0.2,1.1,0.2
		c0.6,0,1.2-0.1,1.9-0.4C33.6,56.1,33.6,57.3,33.6,57.3z M29.6,53.7h2.3c0-0.6-0.1-1-0.3-1.2c-0.2-0.2-0.5-0.4-0.8-0.4
		c-0.3,0-0.6,0.1-0.8,0.4C29.8,52.8,29.7,53.2,29.6,53.7z M40.2,57.3c-0.8,0.2-1.6,0.4-2.3,0.4c-0.7,0-1.3-0.1-1.8-0.4
		c-0.5-0.3-0.9-0.7-1.2-1.2c-0.3-0.6-0.4-1.2-0.4-1.8c0-0.6,0.1-1.1,0.4-1.6c0.2-0.5,0.6-0.9,1-1.2c0.5-0.3,1-0.4,1.7-0.4
		c0.8,0,1.5,0.3,1.9,0.8c0.5,0.5,0.7,1.5,0.7,2.9h-3.9c0,0.4,0.1,0.8,0.3,1c0.2,0.2,0.4,0.4,0.6,0.6c0.3,0.1,0.6,0.2,1.1,0.2
		c0.6,0,1.2-0.1,1.9-0.4C40.2,56.1,40.2,57.3,40.2,57.3z M36.2,53.7h2.3c0-0.6-0.1-1-0.3-1.2c-0.2-0.2-0.5-0.4-0.8-0.4
		c-0.3,0-0.6,0.1-0.8,0.4C36.4,52.8,36.3,53.2,36.2,53.7z M41.5,57.5v-6.3h1.7v1.2c0.3-0.5,0.7-0.8,1-1c0.4-0.2,0.7-0.3,1.1-0.3
		c0.5,0,0.9,0.2,1.3,0.5c0.4,0.3,0.5,0.8,0.5,1.5v4.5h-1.7v-4.1c0-0.3,0-0.6-0.1-0.7c-0.1-0.1-0.1-0.2-0.3-0.3
		c-0.1-0.1-0.2-0.1-0.4-0.1c-0.2,0-0.5,0.1-0.7,0.2c-0.3,0.2-0.5,0.5-0.8,0.9v4C43.2,57.5,41.5,57.5,41.5,57.5z M52,57.4
		c-0.4,0.1-0.7,0.2-1,0.2c-0.6,0-1-0.1-1.3-0.2c-0.3-0.1-0.5-0.4-0.7-0.6c-0.2-0.3-0.2-0.7-0.2-1.2v-3.3h-0.7v-1.1h0.7v-1.1l1.7-0.2
		v1.3h1.3v1.1h-1.3v3.1c0,0.5,0.1,0.8,0.2,0.9c0.2,0.2,0.4,0.2,0.7,0.2c0.1,0,0.3,0,0.5-0.1C52,56.4,52,57.4,52,57.4z M58.3,57.3
		c-0.8,0.2-1.6,0.4-2.3,0.4c-0.7,0-1.3-0.1-1.8-0.4C53.7,57,53.3,56.6,53,56c-0.3-0.6-0.4-1.2-0.4-1.8c0-0.6,0.1-1.1,0.4-1.6
		c0.2-0.5,0.6-0.9,1-1.2c0.5-0.3,1-0.4,1.7-0.4c0.8,0,1.5,0.3,1.9,0.8c0.5,0.5,0.7,1.5,0.7,2.9h-3.9c0,0.4,0.1,0.8,0.3,1
		c0.2,0.2,0.4,0.5,0.6,0.6c0.3,0.1,0.6,0.2,1.1,0.2c0.6,0,1.2-0.1,1.9-0.4C58.3,56.1,58.3,57.3,58.3,57.3z M54.4,53.7h2.3
		c0-0.6-0.1-1-0.3-1.2c-0.2-0.2-0.5-0.4-0.8-0.4c-0.3,0-0.6,0.1-0.8,0.4C54.6,52.8,54.4,53.2,54.4,53.7z M62.9,48.9h1.8v5.3
		c0,0.9,0.2,1.6,0.5,1.9c0.3,0.3,0.7,0.5,1.3,0.5c0.5,0,0.9-0.2,1.2-0.5c0.3-0.3,0.4-0.9,0.4-1.8v-5.4h1.6v5.3c0,1-0.1,1.7-0.4,2.1
		c-0.3,0.4-0.6,0.8-1.1,1c-0.5,0.2-1.1,0.4-1.8,0.4c-0.7,0-1.3-0.1-1.8-0.3c-0.5-0.2-0.9-0.6-1.2-1c-0.3-0.5-0.4-1.2-0.4-2.2
		C62.9,54.2,62.9,48.9,62.9,48.9z M74.6,57.4c-0.4,0.1-0.7,0.2-1,0.2c-0.6,0-1-0.1-1.3-0.2c-0.3-0.1-0.5-0.4-0.7-0.6
		c-0.2-0.3-0.2-0.7-0.2-1.2v-3.3h-0.7v-1.1h0.7v-1.1l1.7-0.2v1.3h1.3v1.1h-1.3v3.1c0,0.5,0.1,0.8,0.2,0.9c0.2,0.2,0.4,0.2,0.7,0.2
		c0.2,0,0.3,0,0.5-0.1L74.6,57.4L74.6,57.4z M75.9,57.5v-6.3h1.7v1.2c0.2-0.4,0.5-0.7,0.8-1c0.3-0.2,0.8-0.4,1.2-0.4
		c0.1,0,0.2,0,0.3,0v1.5c-0.2-0.1-0.4-0.1-0.7-0.1c-0.3,0-0.6,0.1-0.9,0.3c-0.3,0.2-0.5,0.4-0.7,0.8v4
		C77.7,57.5,75.9,57.5,75.9,57.5z M86.2,57.3c-0.8,0.2-1.6,0.4-2.3,0.4c-0.7,0-1.3-0.1-1.8-0.4c-0.5-0.3-0.9-0.7-1.2-1.2
		c-0.3-0.5-0.4-1.2-0.4-1.8c0-0.6,0.1-1.1,0.3-1.6c0.2-0.5,0.6-0.9,1-1.2c0.5-0.3,1-0.4,1.7-0.4c0.8,0,1.5,0.3,1.9,0.8
		c0.5,0.5,0.7,1.5,0.7,2.9h-3.9c0,0.4,0.1,0.8,0.3,1c0.2,0.2,0.4,0.4,0.6,0.6c0.3,0.1,0.6,0.2,1.1,0.2c0.6,0,1.2-0.1,1.9-0.4
		L86.2,57.3L86.2,57.3L86.2,57.3z M82.2,53.7h2.3c0-0.6-0.1-1-0.3-1.2c-0.2-0.2-0.5-0.4-0.8-0.4c-0.3,0-0.6,0.1-0.8,0.4
		C82.4,52.8,82.3,53.2,82.2,53.7z M92.3,57.3c-0.6,0.2-1.3,0.3-2,0.3c-1.1,0-1.9-0.3-2.4-1c-0.5-0.6-0.8-1.4-0.8-2.4
		c0-1,0.3-1.8,0.9-2.4c0.6-0.6,1.4-0.9,2.5-0.9c0.5,0,1.1,0.1,1.8,0.2v1.2c-0.7-0.2-1.2-0.3-1.7-0.3c-0.6,0-1,0.2-1.3,0.7
		c-0.3,0.4-0.4,1-0.4,1.5c0,0.4,0.1,0.8,0.2,1.2c0.2,0.4,0.4,0.6,0.7,0.8c0.3,0.2,0.6,0.2,0.9,0.2c0.5,0,1-0.1,1.6-0.3L92.3,57.3
		C92.3,57.3,92.3,57.3,92.3,57.3z M93.6,57.5v-9.1h1.7v4c0.3-0.5,0.6-0.8,1-1c0.3-0.2,0.7-0.3,1.1-0.3c0.5,0,0.9,0.2,1.3,0.5
		c0.4,0.3,0.5,0.8,0.5,1.5v4.5h-1.7v-4.1c0-0.3,0-0.6-0.1-0.7c-0.1-0.1-0.1-0.2-0.3-0.3c-0.1-0.1-0.2-0.1-0.4-0.1
		c-0.2,0-0.5,0.1-0.7,0.2c-0.3,0.2-0.5,0.5-0.8,0.9v4H93.6z M104.1,57.4c-0.4,0.1-0.7,0.2-1,0.2c-0.6,0-1-0.1-1.3-0.2
		c-0.3-0.1-0.5-0.4-0.7-0.6c-0.2-0.3-0.2-0.7-0.2-1.2v-3.3h-0.7v-1.1h0.7v-1.1l1.7-0.2v1.3h1.3v1.1h-1.3v3.1c0,0.5,0.1,0.8,0.2,0.9
		c0.2,0.2,0.4,0.2,0.7,0.2c0.1,0,0.3,0,0.5-0.1L104.1,57.4L104.1,57.4z"/>
</g>
</svg>
