<svg xmlns="http://www.w3.org/2000/svg" viewBox="0 0 500 500"><defs><style>.cls-1,.cls-2{fill:#397b8e;}.cls-2{stroke:#fce85d;}.cls-10,.cls-11,.cls-13,.cls-2,.cls-3,.cls-8{stroke-miterlimit:10;}.cls-2,.cls-3,.cls-8{stroke-width:2px;}.cls-13,.cls-3,.cls-7{fill:none;}.cls-3{stroke:#085a72;}.cls-4{fill:#085a72;}.cls-5,.cls-8{fill:#80acb8;}.cls-10,.cls-11,.cls-6{fill:#fce85d;}.cls-10,.cls-11,.cls-13,.cls-14,.cls-7,.cls-8{stroke:#397b8e;}.cls-7{stroke-linecap:round;}.cls-14,.cls-7{stroke-linejoin:round;}.cls-8{opacity:0.6;}.cls-9{fill:#b0cad2;}.cls-11,.cls-12,.cls-13{opacity:0.2;}.cls-14{fill:#e6eef1;stroke-width:3px;}</style></defs><title>materialen</title><g id="Layer_8" data-name="Layer 8"><path class="cls-1" d="M168.08,164.77H275.71a0,0,0,0,1,0,0v58.72a9.13,9.13,0,0,1-9.13,9.13H177.21a9.13,9.13,0,0,1-9.13-9.13V164.77A0,0,0,0,1,168.08,164.77Z"/><circle class="cls-2" cx="221.89" cy="164.77" r="53.81"/><circle class="cls-3" cx="221.89" cy="164.77" r="43.12"/><circle class="cls-3" cx="221.89" cy="164.77" r="33.63"/><path class="cls-4" d="M221.89,207.77l-1.45,0,.31-9.35a34.59,34.59,0,0,0,4.7-.17l1,9.31A43.54,43.54,0,0,1,221.89,207.77Zm-4.45-.23a43,43,0,0,1-5.91-1l2.25-9.08a33.73,33.73,0,0,0,4.62.8Zm11.95-.42-1.62-9.22a33.5,33.5,0,0,0,4.55-1.13l2.9,8.9A42.82,42.82,0,0,1,229.39,207.12Zm-20.74-1.43a42.72,42.72,0,0,1-5.57-2.25l4.1-8.41a33.25,33.25,0,0,0,4.35,1.75ZM238,204.64,234.52,196a33.64,33.64,0,0,0,4.21-2.06l4.69,8.1A43,43,0,0,1,238,204.64Zm-37.6-2.6a43.2,43.2,0,0,1-5-3.35l5.76-7.38a33.76,33.76,0,0,0,3.89,2.62ZM246,200.41l-5.25-7.75a34.16,34.16,0,0,0,3.7-2.9l6.26,7A43.4,43.4,0,0,1,246,200.41Zm-52.81-3.65a43.21,43.21,0,0,1-4.17-4.31l7.16-6a33.83,33.83,0,0,0,3.26,3.37Zm59.68-2.13-6.74-6.5a34,34,0,0,0,3-3.6l7.57,5.51A43.74,43.74,0,0,1,252.84,194.63Zm-65.7-4.53a43.33,43.33,0,0,1-3.19-5.07l8.25-4.42a33.88,33.88,0,0,0,2.5,4Zm71.23-2.54-7.93-5a34,34,0,0,0,2.21-4.14l8.55,3.81A42.91,42.91,0,0,1,258.37,187.56Zm-75.74-5.22a42.78,42.78,0,0,1-2.06-5.64l9-2.59a33.51,33.51,0,0,0,1.61,4.4Zm79.69-2.86-8.79-3.2a33.18,33.18,0,0,0,1.29-4.51L264,173.7A43,43,0,0,1,262.32,179.48Zm-82.48-5.69a43.29,43.29,0,0,1-.84-5.94l9.34-.66a33.69,33.69,0,0,0,.66,4.64Zm84.65-3-9.27-1.29a33.9,33.9,0,0,0,.32-4.68v-.15h9.36v.15A43.41,43.41,0,0,1,264.49,170.74Zm-85.6-5.9v-.08a43.38,43.38,0,0,1,.4-5.89l9.27,1.28a33.91,33.91,0,0,0-.31,4.62Zm76.56-2.56a33.59,33.59,0,0,0-.66-4.64l9.15-2a43.05,43.05,0,0,1,.85,5.94ZM189,157.84l-9.16-1.91a42.67,42.67,0,0,1,1.64-5.78l8.8,3.18A33.57,33.57,0,0,0,189,157.84Zm65.25-2.47a33.45,33.45,0,0,0-1.62-4.4l8.53-3.84a43,43,0,0,1,2.07,5.63Zm-63.09-4.22-8.56-3.79a42.85,42.85,0,0,1,2.81-5.3l7.94,5A33.61,33.61,0,0,0,191.12,151.14Zm60.44-2.28a34,34,0,0,0-2.5-4l7.55-5.53a43.14,43.14,0,0,1,3.2,5.07Zm-56.93-3.82L187,139.56a43.39,43.39,0,0,1,3.84-4.6l6.75,6.48A34.18,34.18,0,0,0,194.63,145.05Zm53-2a33.67,33.67,0,0,0-3.27-3.36l6.24-7a43.17,43.17,0,0,1,4.18,4.3Zm-48.27-3.24L193,132.87a43.44,43.44,0,0,1,4.71-3.7l5.26,7.74A34,34,0,0,0,199.32,139.81Zm43.2-1.63a34.09,34.09,0,0,0-3.9-2.62l4.66-8.11a43.32,43.32,0,0,1,5,3.34ZM205,135.66l-4.71-8.09a42.92,42.92,0,0,1,5.38-2.65l3.53,8.67A33.36,33.36,0,0,0,205,135.66Zm31.54-1.19a33.32,33.32,0,0,0-4.35-1.74l2.86-8.91a42.71,42.71,0,0,1,5.58,2.23Zm-25.14-1.68-2.91-8.89a42.72,42.72,0,0,1,5.82-1.46l1.64,9.21A33.45,33.45,0,0,0,211.4,132.79Zm18.53-.7a33.53,33.53,0,0,0-4.62-.79l.94-9.31a42.92,42.92,0,0,1,5.91,1Zm-11.66-.77-1-9.31a44.46,44.46,0,0,1,6-.22l-.28,9.35A34.51,34.51,0,0,0,218.27,131.31Z"/><path class="cls-5" d="M245.56,168.84h3.06a24.73,24.73,0,0,0,0-8.3h-3v-8.9a27.06,27.06,0,0,0-21.44-13.83v1.73a2.23,2.23,0,0,1-4.46,0v-1.73a27.06,27.06,0,0,0-21.61,14.13v8.76h-2.89a24.73,24.73,0,0,0,0,8.3h2.87v8.61a27.06,27.06,0,0,0,21.61,14.13V190a2.23,2.23,0,0,1,4.46,0v1.73a27.06,27.06,0,0,0,21.44-13.83Z"/><circle class="cls-1" cx="235.57" cy="164.77" r="3.57"/><circle class="cls-1" cx="208.21" cy="164.77" r="3.57"/><circle class="cls-4" cx="258.66" cy="216.53" r="6.35"/><circle class="cls-6" cx="258.66" cy="216.53" r="4.35"/><path class="cls-4" d="M243.27,275.37H231.09a1.92,1.92,0,0,0-1.66.94l-6.09,10.38a1.86,1.86,0,0,0,0,1.88L229.43,299a1.92,1.92,0,0,0,1.66.94h12.18a1.92,1.92,0,0,0,1.66-.94L251,288.57a1.86,1.86,0,0,0,0-1.88l-6.09-10.38A1.92,1.92,0,0,0,243.27,275.37Zm-4.53,20a7.88,7.88,0,1,1,6.28-6.18A7.94,7.94,0,0,1,238.75,295.35Z"/><path class="cls-4" d="M196,265.82l-8.62,8.62a1.92,1.92,0,0,0-.51,1.84l3,11.65a1.86,1.86,0,0,0,1.33,1.33l11.65,3a1.92,1.92,0,0,0,1.84-.51l8.62-8.62a1.92,1.92,0,0,0,.51-1.84l-3-11.65a1.86,1.86,0,0,0-1.33-1.33l-11.65-3A1.92,1.92,0,0,0,196,265.82ZM207,283.15a7.88,7.88,0,1,1,.07-8.81A7.94,7.94,0,0,1,207,283.15Z"/><path class="cls-4" d="M262.09,312l-8.62-8.62a1.92,1.92,0,0,0-1.84-.51l-11.65,3a1.86,1.86,0,0,0-1.33,1.33l-3,11.65a1.92,1.92,0,0,0,.51,1.84l8.62,8.62a1.92,1.92,0,0,0,1.84.51l11.65-3a1.86,1.86,0,0,0,1.33-1.33l3-11.65A1.92,1.92,0,0,0,262.09,312Zm-17.33,10.93a7.88,7.88,0,1,1,8.81.07A7.94,7.94,0,0,1,244.76,322.95Z"/><rect class="cls-4" x="208.8" y="310.55" width="13.43" height="25.1" rx="1" ry="1" transform="translate(-107.58 538.61) rotate(-90)"/><rect class="cls-1" x="208.3" y="315.34" width="13.43" height="15.52" transform="translate(-108.08 538.11) rotate(-90)"/><path class="cls-4" d="M202.37,298.56h23.29a2,2,0,0,1,2,2v6.35a2,2,0,0,1-2,2H202.37a0,0,0,0,1,0,0V298.56A0,0,0,0,1,202.37,298.56Z" transform="translate(-88.72 518.75) rotate(-90)"/><line class="cls-7" x1="209.84" y1="314.55" x2="220.19" y2="311.42"/><line class="cls-7" x1="209.84" y1="310.55" x2="220.19" y2="307.42"/><line class="cls-7" x1="209.84" y1="306.55" x2="220.19" y2="303.42"/><line class="cls-7" x1="209.84" y1="302.55" x2="220.19" y2="299.42"/><line class="cls-7" x1="209.84" y1="298.55" x2="220.19" y2="295.42"/><line class="cls-7" x1="209.84" y1="294.55" x2="216.55" y2="292.52"/><rect class="cls-4" x="254.95" y="258.96" width="13.43" height="25.1" rx="1" ry="1" transform="translate(533.18 9.85) rotate(90)"/><rect class="cls-1" x="255.44" y="263.75" width="13.43" height="15.52" transform="translate(533.67 9.36) rotate(90)"/><path class="cls-4" d="M249.51,285.7H272.8a2,2,0,0,1,2,2V294a2,2,0,0,1-2,2H249.51a0,0,0,0,1,0,0V285.7a0,0,0,0,1,0,0Z" transform="translate(553.03 28.72) rotate(90)"/><line class="cls-7" x1="267.33" y1="280.06" x2="256.98" y2="283.19"/><line class="cls-7" x1="267.33" y1="284.06" x2="256.98" y2="287.19"/><line class="cls-7" x1="267.33" y1="288.06" x2="256.98" y2="291.19"/><line class="cls-7" x1="267.33" y1="292.06" x2="256.98" y2="295.19"/><line class="cls-7" x1="267.33" y1="296.06" x2="256.98" y2="299.19"/><line class="cls-7" x1="267.33" y1="300.06" x2="260.62" y2="302.09"/><rect class="cls-4" x="184.29" y="287.04" width="13.43" height="25.1" rx="1" ry="1" transform="translate(543.69 256.53) rotate(115.56)"/><rect class="cls-1" x="183.85" y="291.61" width="13.43" height="15.52" transform="translate(542.85 256.62) rotate(115.56)"/><path class="cls-4" d="M169.56,311.66h23.29a2,2,0,0,1,2,2V320a2,2,0,0,1-2,2H169.56a0,0,0,0,1,0,0V311.66A0,0,0,0,1,169.56,311.66Z" transform="translate(546.65 289.16) rotate(115.56)"/><line class="cls-7" x1="182.2" y1="304.85" x2="190.2" y2="312.14"/><line class="cls-7" x1="180.48" y1="308.46" x2="188.47" y2="315.75"/><line class="cls-7" x1="178.75" y1="312.07" x2="186.74" y2="319.35"/><line class="cls-7" x1="177.03" y1="315.68" x2="185.02" y2="322.96"/><line class="cls-7" x1="175.3" y1="319.28" x2="183.29" y2="326.57"/><line class="cls-7" x1="173.57" y1="322.89" x2="178.76" y2="327.62"/><rect class="cls-8" x="166.85" y="260.79" width="110.09" height="72.2"/><rect class="cls-8" x="166.85" y="245.37" width="110.09" height="72.2"/><path class="cls-4" d="M143.88,178l0,13.49a.87.87,0,0,1-.45.76,19.87,19.87,0,0,1-19,0,.86.86,0,0,1-.45-.76L124,178a1.7,1.7,0,0,0-2.84-1.26,17.88,17.88,0,0,0-5.9,13.42,18.67,18.67,0,0,0,37.33-.37,17.86,17.86,0,0,0-5.86-13A1.7,1.7,0,0,0,143.88,178Z"/><path class="cls-4" d="M123.74,329.65l0-13.49a.87.87,0,0,1,.45-.76,19.87,19.87,0,0,1,19,0,.86.86,0,0,1,.45.76l0,13.48a1.7,1.7,0,0,0,2.84,1.26,17.88,17.88,0,0,0,5.9-13.42,18.67,18.67,0,0,0-37.33.37,17.86,17.86,0,0,0,5.86,13A1.7,1.7,0,0,0,123.74,329.65Z"/><rect class="cls-4" x="124.22" y="199.96" width="19.12" height="102.03" transform="translate(0.44 -0.23) rotate(0.1)"/><rect class="cls-1" x="130.06" y="207.14" width="7.14" height="92.39" transform="translate(0.45 -0.23) rotate(0.1)"/><rect class="cls-1" x="294.54" y="140.95" width="121.16" height="189.88" transform="translate(-12.27 19.61) rotate(-3.11)"/><rect class="cls-4" x="301.11" y="152.42" width="99.98" height="30.3" transform="translate(-8.57 19.29) rotate(-3.11)"/><rect class="cls-6" x="308.81" y="299.48" width="47.05" height="20.9" transform="translate(-16.32 18.49) rotate(-3.11)"/><rect class="cls-4" x="361.05" y="297.36" width="20.9" height="20.9" transform="translate(-16.15 20.61) rotate(-3.11)"/><rect class="cls-9" x="387.79" y="295.9" width="20.9" height="20.9" transform="matrix(1, -0.05, 0.05, 1, -16.03, 22.06)"/><rect class="cls-4" x="307.4" y="273.88" width="20.9" height="20.9" transform="matrix(1, -0.05, 0.05, 1, -14.96, 17.66)"/><rect class="cls-4" x="333.51" y="272.46" width="20.9" height="20.9" transform="translate(-14.84 19.08) rotate(-3.11)"/><rect class="cls-9" x="386.36" y="269.59" width="20.9" height="20.9" transform="translate(-14.61 21.94) rotate(-3.11)"/><rect class="cls-4" x="305.94" y="247.01" width="20.9" height="20.9" transform="translate(-13.5 17.54) rotate(-3.11)"/><rect class="cls-4" x="332.05" y="245.59" width="20.9" height="20.9" transform="translate(-13.39 18.96) rotate(-3.11)"/><rect class="cls-9" x="384.9" y="242.72" width="20.9" height="20.9" transform="translate(-13.15 21.82) rotate(-3.11)"/><rect class="cls-4" x="359.63" y="271.04" width="20.9" height="20.9" transform="translate(-14.73 20.49) rotate(-3.11)"/><rect class="cls-4" x="358.17" y="244.17" width="20.9" height="20.9" transform="translate(-13.27 20.37) rotate(-3.11)"/><rect class="cls-4" x="356.73" y="217.72" width="20.9" height="20.9" transform="translate(-11.84 20.25) rotate(-3.11)"/><rect class="cls-4" x="330.61" y="219.14" width="20.9" height="20.9" transform="translate(-11.95 18.84) rotate(-3.11)"/><rect class="cls-4" x="304.5" y="220.56" width="20.9" height="20.9" transform="translate(-12.07 17.43) rotate(-3.11)"/><rect class="cls-9" x="383.47" y="216.27" width="20.9" height="20.9" transform="translate(-11.72 21.7) rotate(-3.11)"/><rect class="cls-9" x="355.29" y="191.28" width="20.9" height="20.9" transform="translate(-10.4 20.14) rotate(-3.11)"/><rect class="cls-9" x="329.18" y="192.7" width="20.9" height="20.9" transform="translate(-10.52 18.72) rotate(-3.11)"/><rect class="cls-9" x="303.06" y="194.12" width="20.9" height="20.9" transform="translate(-10.64 17.31) rotate(-3.11)"/><rect class="cls-9" x="382.03" y="189.83" width="20.9" height="20.9" transform="translate(-10.29 21.59) rotate(-3.11)"/><rect class="cls-4" x="171.33" y="354.95" width="172.26" height="42.81" rx="4.9" ry="4.9"/><path class="cls-5" d="M193.39,389.08v1.65a13.29,13.29,0,0,0,4.46,0v-1.63h4.79a14.54,14.54,0,0,0,7.43-11.52h-.93a1.2,1.2,0,1,1,0-2.39h.93a14.54,14.54,0,0,0-7.59-11.61h-4.7V362a13.29,13.29,0,0,0-4.46,0v1.54h-4.62a14.54,14.54,0,0,0-7.59,11.61H182a1.2,1.2,0,0,1,0,2.39h-.93a14.54,14.54,0,0,0,7.43,11.52Z"/><circle class="cls-1" cx="195.58" cy="383.71" r="1.92"/><circle class="cls-1" cx="195.58" cy="369.01" r="1.92"/><path class="cls-5" d="M230,389.08v1.65a13.29,13.29,0,0,0,4.46,0v-1.63h4.79a14.54,14.54,0,0,0,7.43-11.52h-.93a1.2,1.2,0,1,1,0-2.39h.93a14.54,14.54,0,0,0-7.59-11.61h-4.7V362a13.29,13.29,0,0,0-4.46,0v1.54h-4.62a14.54,14.54,0,0,0-7.59,11.61h.93a1.2,1.2,0,0,1,0,2.39h-.93a14.54,14.54,0,0,0,7.43,11.52Z"/><circle class="cls-1" cx="232.21" cy="383.71" r="1.92"/><circle class="cls-1" cx="232.21" cy="369.01" r="1.92"/><path class="cls-5" d="M266.66,389.08v1.65a13.29,13.29,0,0,0,4.46,0v-1.63h4.79a14.54,14.54,0,0,0,7.43-11.52h-.93a1.2,1.2,0,1,1,0-2.39h.93a14.54,14.54,0,0,0-7.59-11.61H271V362a13.29,13.29,0,0,0-4.46,0v1.54H262a14.54,14.54,0,0,0-7.59,11.61h.93a1.2,1.2,0,0,1,0,2.39h-.93a14.54,14.54,0,0,0,7.43,11.52Z"/><circle class="cls-1" cx="268.85" cy="383.71" r="1.92"/><circle class="cls-1" cx="268.85" cy="369.01" r="1.92"/><path class="cls-5" d="M303.29,389.08v1.65a13.29,13.29,0,0,0,4.46,0v-1.63h4.79A14.54,14.54,0,0,0,320,377.56H319a1.2,1.2,0,1,1,0-2.39H320a14.54,14.54,0,0,0-7.59-11.61h-4.7V362a13.29,13.29,0,0,0-4.46,0v1.54h-4.62A14.54,14.54,0,0,0,291,375.16h.93a1.2,1.2,0,0,1,0,2.39H291a14.54,14.54,0,0,0,7.43,11.52Z"/><circle class="cls-1" cx="305.48" cy="383.71" r="1.92"/><circle class="cls-1" cx="305.48" cy="369.01" r="1.92"/><rect class="cls-1" x="343.59" y="367.19" width="2.39" height="18.54"/><rect class="cls-10" x="327.3" y="366.79" width="7.85" height="19.34"/><line class="cls-11" x1="327.3" y1="376.36" x2="335.15" y2="376.36"/><g class="cls-12"><path class="cls-1" d="M331.22,370.74a1.09,1.09,0,1,1-1.09,1.09,1.09,1.09,0,0,1,1.09-1.09m0-1a2.09,2.09,0,1,0,2.09,2.09,2.09,2.09,0,0,0-2.09-2.09Z"/></g><line class="cls-13" x1="331.22" y1="378.7" x2="331.22" y2="382.88"/><path class="cls-1" d="M89.83,98,87.56,212.24a5.38,5.38,0,0,0,10.76,0L96,98l2.79-10.66L96,72.85h-6.2L87,87.33Z"/><path class="cls-4" d="M106.6,229.51a9.87,9.87,0,0,1,2.53-6.61,6.55,6.55,0,0,0,1.77-4.35v-4.83a10.22,10.22,0,0,0-10.22-10.22H85.18A10.22,10.22,0,0,0,75,213.71v4.83a6.55,6.55,0,0,0,1.77,4.35,9.9,9.9,0,0,1,0,13.23A6.55,6.55,0,0,0,75,240.47v51.3A10.22,10.22,0,0,0,85.18,302h15.49a10.22,10.22,0,0,0,10.22-10.22v-51.3a6.55,6.55,0,0,0-1.77-4.35A9.87,9.87,0,0,1,106.6,229.51Z"/><line class="cls-14" x1="92.93" y1="292.65" x2="92.93" y2="244.56"/><line class="cls-14" x1="83.64" y1="292.65" x2="83.64" y2="244.56"/><line class="cls-14" x1="102.22" y1="292.65" x2="102.22" y2="244.56"/></g></svg>