<svg xmlns="http://www.w3.org/2000/svg" viewBox="0 0 1175 329.4"><defs><style>.cls-1,.cls-2{fill:#397b8e;}.cls-13,.cls-14,.cls-2,.cls-20,.cls-7{stroke:#fce85d;}.cls-10,.cls-11,.cls-14,.cls-18,.cls-2,.cls-20,.cls-22,.cls-23,.cls-24,.cls-25,.cls-3,.cls-7,.cls-8,.cls-9{stroke-miterlimit:10;}.cls-13,.cls-18,.cls-2,.cls-21,.cls-23,.cls-24,.cls-25,.cls-7,.cls-8{stroke-width:0.9px;}.cls-10,.cls-11,.cls-13,.cls-14,.cls-18,.cls-20,.cls-21,.cls-25,.cls-3,.cls-7,.cls-8,.cls-9{fill:none;}.cls-10,.cls-3,.cls-9{stroke:#085a72;}.cls-11,.cls-14,.cls-20,.cls-22,.cls-3{stroke-width:1.81px;}.cls-4{fill:#085a72;}.cls-22,.cls-5{fill:#80acb8;}.cls-23,.cls-24,.cls-6{fill:#fce85d;}.cls-11,.cls-19,.cls-21,.cls-22,.cls-23,.cls-24,.cls-25,.cls-8{stroke:#397b8e;}.cls-20,.cls-21,.cls-9{stroke-linecap:round;}.cls-19,.cls-9{stroke-width:2.71px;}.cls-10{stroke-width:3.62px;}.cls-12{fill:#b0cad2;}.cls-13,.cls-19,.cls-21{stroke-linejoin:round;}.cls-15{fill:#d0dfe4;}.cls-16{fill:#c0d5db;}.cls-17,.cls-24,.cls-25{opacity:0.2;}.cls-18{stroke:#80acb8;}.cls-19{fill:#e6eef1;}.cls-22{opacity:0.6;}</style></defs><title>materialen-header</title><g id="Layer_5" data-name="Layer 5"><path class="cls-1" d="M395.75,262.39h72.79a0,0,0,0,1,0,0V300a8.26,8.26,0,0,1-8.26,8.26H404a8.26,8.26,0,0,1-8.26-8.26V262.39A0,0,0,0,1,395.75,262.39Z"/><circle class="cls-2" cx="432.14" cy="262.39" r="36.39"/><circle class="cls-3" cx="432.14" cy="262.39" r="29.16"/><circle class="cls-3" cx="432.14" cy="262.39" r="22.75"/><path class="cls-4" d="M432.14,291.47l-1,0,.21-6.33a23.39,23.39,0,0,0,3.18-.11l.66,6.3A29.44,29.44,0,0,1,432.14,291.47Zm-3-.15a29.1,29.1,0,0,1-4-.7l1.52-6.14a22.81,22.81,0,0,0,3.12.54Zm8.08-.29-1.1-6.23a22.66,22.66,0,0,0,3.08-.77l2,6A29,29,0,0,1,437.21,291Zm-14-1a28.89,28.89,0,0,1-3.77-1.52l2.77-5.69a22.49,22.49,0,0,0,2.94,1.19Zm19.87-.71-2.38-5.87a22.75,22.75,0,0,0,2.85-1.39l3.17,5.48A29.08,29.08,0,0,1,443.06,289.35Zm-25.43-1.76a29.22,29.22,0,0,1-3.37-2.27l3.89-5a22.83,22.83,0,0,0,2.63,1.77Zm30.79-1.1-3.55-5.24a23.1,23.1,0,0,0,2.5-2l4.24,4.7A29.35,29.35,0,0,1,448.42,286.49ZM412.7,284a29.23,29.23,0,0,1-2.82-2.91l4.84-4.07a22.88,22.88,0,0,0,2.21,2.28Zm40.37-1.44-4.56-4.39a23,23,0,0,0,2-2.43l5.12,3.72A29.59,29.59,0,0,1,453.07,282.59Zm-44.43-3.07a29.31,29.31,0,0,1-2.16-3.43l5.58-3a22.92,22.92,0,0,0,1.69,2.69Zm48.18-1.72-5.37-3.36a23,23,0,0,0,1.49-2.8l5.78,2.58A29,29,0,0,1,456.81,277.8Zm-51.23-3.53a28.93,28.93,0,0,1-1.4-3.81l6.08-1.75a22.66,22.66,0,0,0,1.09,3Zm53.9-1.93-5.95-2.17a22.44,22.44,0,0,0,.87-3l6.19,1.31A29.11,29.11,0,0,1,459.48,272.33Zm-55.79-3.85a29.28,29.28,0,0,1-.57-4l6.31-.45a22.79,22.79,0,0,0,.44,3.14Zm57.25-2.06-6.27-.87a22.93,22.93,0,0,0,.22-3.17v-.1h6.33v.1A29.36,29.36,0,0,1,460.95,266.43Zm-57.89-4v-.05a29.34,29.34,0,0,1,.27-4l6.27.86a22.93,22.93,0,0,0-.21,3.12Zm51.78-1.73a22.72,22.72,0,0,0-.45-3.14l6.19-1.34a29.12,29.12,0,0,1,.58,4Zm-45-3-6.2-1.29a28.86,28.86,0,0,1,1.11-3.91l6,2.15A22.71,22.71,0,0,0,409.87,257.7ZM454,256a22.62,22.62,0,0,0-1.1-3l5.77-2.6a29.09,29.09,0,0,1,1.4,3.81Zm-42.67-2.86-5.79-2.56a29,29,0,0,1,1.9-3.59l5.37,3.35A22.73,22.73,0,0,0,411.33,253.17Zm40.88-1.54a23,23,0,0,0-1.69-2.68l5.1-3.74a29.18,29.18,0,0,1,2.16,3.43Zm-38.5-2.58-5.13-3.71a29.35,29.35,0,0,1,2.6-3.11l4.57,4.38A23.12,23.12,0,0,0,413.7,249.05Zm35.82-1.35a22.77,22.77,0,0,0-2.21-2.28l4.22-4.72a29.19,29.19,0,0,1,2.83,2.91Zm-32.65-2.19-4.25-4.69a29.38,29.38,0,0,1,3.19-2.5l3.56,5.24A23,23,0,0,0,416.88,245.51Zm29.22-1.1a23.06,23.06,0,0,0-2.64-1.77l3.15-5.49a29.3,29.3,0,0,1,3.37,2.26Zm-25.38-1.7-3.18-5.47a29,29,0,0,1,3.64-1.79l2.39,5.86A22.56,22.56,0,0,0,420.72,242.7Zm21.33-.81a22.53,22.53,0,0,0-2.94-1.18l1.93-6a28.89,28.89,0,0,1,3.77,1.51Zm-17-1.14-2-6a28.89,28.89,0,0,1,3.94-1l1.11,6.23A22.62,22.62,0,0,0,425,240.76Zm12.53-.47a22.68,22.68,0,0,0-3.12-.54l.63-6.3a29,29,0,0,1,4,.69Zm-7.89-.52-.67-6.29a30.07,30.07,0,0,1,4-.15l-.19,6.33A23.34,23.34,0,0,0,429.69,239.76Z"/><path class="cls-5" d="M448.15,265.14h2.07a16.73,16.73,0,0,0,0-5.61h-2.06v-6a18.3,18.3,0,0,0-14.5-9.36v1.17a1.51,1.51,0,1,1-3,0v-1.17A18.3,18.3,0,0,0,416,253.71v5.92h-2a16.73,16.73,0,0,0,0,5.61H416v5.82a18.3,18.3,0,0,0,14.62,9.56v-1.17a1.51,1.51,0,0,1,3,0v1.17a18.3,18.3,0,0,0,14.5-9.36Z"/><circle class="cls-1" cx="441.39" cy="262.39" r="2.41"/><circle class="cls-1" cx="422.89" cy="262.39" r="2.41"/><circle class="cls-4" cx="457.01" cy="297.39" r="4.3"/><circle class="cls-6" cx="457.01" cy="297.39" r="2.94"/><rect class="cls-4" x="343" y="294.45" width="11.07" height="3.52" transform="translate(646.82 -50.55) rotate(90.34)"/><rect class="cls-4" x="263.33" y="294.45" width="17.92" height="3.52" transform="translate(570.12 25.69) rotate(90.34)"/><rect class="cls-1" x="297.41" y="258.43" width="24.5" height="74.73" transform="translate(607.3 -12.09) rotate(90.34)"/><circle class="cls-4" cx="286.96" cy="295.84" r="5.54" transform="translate(-10.59 581.03) rotate(-89.66)"/><line class="cls-7" x1="286.94" y1="298.9" x2="286.98" y2="292.79"/><circle class="cls-4" cx="332.08" cy="295.93" r="5.54" transform="translate(34.17 626.24) rotate(-89.66)"/><line class="cls-7" x1="335.14" y1="295.95" x2="329.02" y2="295.92"/><line class="cls-7" x1="332.06" y1="298.99" x2="332.1" y2="292.88"/><rect class="cls-1" x="365.17" y="228.46" width="11.07" height="3.52" transform="matrix(1, 0.01, -0.01, 1, 1.38, -2.21)"/><rect class="cls-1" x="361.74" y="304.7" width="17.92" height="3.52" transform="translate(1.84 -2.21) rotate(0.34)"/><rect class="cls-4" x="358.45" y="231.73" width="24.5" height="74.73" transform="translate(1.61 -2.21) rotate(0.34)"/><circle class="cls-8" cx="370.47" cy="291.79" r="5.54" transform="matrix(0.01, -1, 1, 0.01, 76.47, 660.52)"/><line class="cls-7" x1="373.53" y1="291.81" x2="367.42" y2="291.78"/><circle class="cls-8" cx="370.56" cy="246.67" r="5.54" transform="translate(121.68 615.76) rotate(-89.66)"/><line class="cls-7" x1="370.58" y1="243.62" x2="370.55" y2="249.73"/><line class="cls-7" x1="373.62" y1="246.69" x2="367.51" y2="246.65"/><path class="cls-9" d="M812.36,170.42c-66,0-41.9,45.51-92.53,45.51-21.82,0-38.57-15.59-45.63-40.53-9.32-32.93-1.77-71.14,33.25-71.14s46.08,67.42-1.49,67.42c-48.28,0-36.55-33.64-90.42-33.64H588.61"/><rect class="cls-6" x="872.64" y="159.29" width="6.8" height="23.03" transform="translate(705.23 1046.85) rotate(-90)"/><rect class="cls-1" x="851.89" y="166.84" width="13.55" height="7.94" transform="translate(687.86 1029.47) rotate(-90)"/><path class="cls-6" d="M894.74,170.77l-5.72-3.3v6.6a0,0,0,0,0,.07,0l5.65-3.26A0,0,0,0,0,894.74,170.77Z"/><rect class="cls-1" x="825.94" y="150.49" width="13.55" height="40.64" transform="translate(661.91 1003.52) rotate(-90)"/><path class="cls-9" d="M733.66,214.29c21-3.5,42-34,78.91-13.17"/><rect class="cls-6" x="865.45" y="219.02" width="6.8" height="23.03" transform="translate(258 890.02) rotate(-62.05)"/><rect class="cls-1" x="846.73" y="218.43" width="13.55" height="7.94" transform="translate(257.03 872.13) rotate(-62.05)"/><path class="cls-6" d="M885.39,239.27l-3.46-5.53a0,0,0,0,0-.08,0l-3.06,5.76a0,0,0,0,0,0,.07l6.52-.23A0,0,0,0,0,885.39,239.27Z"/><rect class="cls-1" x="823.81" y="189.92" width="13.55" height="40.64" transform="translate(255.6 845.42) rotate(-62.05)"/><rect class="cls-4" x="583.33" y="136.29" width="10.57" height="3.62" transform="translate(726.71 -450.51) rotate(90)"/><rect class="cls-10" x="507.69" y="96.96" width="55.16" height="26.22" rx="13.11" ry="13.11"/><rect class="cls-1" x="480.11" y="110.97" width="108.51" height="141.06"/><circle class="cls-4" cx="556.51" cy="209.73" r="14.02" transform="translate(-0.92 2.46) rotate(-0.25)"/><circle class="cls-11" cx="556.51" cy="209.73" r="8.68" transform="translate(-0.92 2.46) rotate(-0.25)"/><polygon class="cls-4" points="556.43 191.71 553.88 196.17 559.02 196.15 556.43 191.71"/><circle class="cls-4" cx="512" cy="209.65" r="14.02" transform="translate(-2.4 5.97) rotate(-0.67)"/><circle class="cls-11" cx="512" cy="209.65" r="8.68" transform="translate(-2.4 5.97) rotate(-0.67)"/><polygon class="cls-4" points="511.79 191.63 509.27 196.11 514.41 196.05 511.79 191.63"/><circle class="cls-4" cx="489.15" cy="120.02" r="2.71"/><circle class="cls-4" cx="579.57" cy="120.02" r="2.71"/><circle class="cls-4" cx="579.57" cy="242.99" r="2.71"/><circle class="cls-4" cx="489.15" cy="242.99" r="2.71"/><path class="cls-12" d="M497.74,130.87v35.26h28.48a8.14,8.14,0,1,1,16.28,0H571V130.87Z"/><line class="cls-11" x1="534.36" y1="146.24" x2="534.36" y2="139"/><path class="cls-11" d="M553.54,146.95l-5.12,5.12a19.89,19.89,0,0,0-28.13,0l-5.12-5.12"/><line class="cls-13" x1="536.79" y1="158.36" x2="543.7" y2="136.29"/><circle class="cls-6" cx="534.36" cy="189.41" r="3.26"/><path class="cls-4" d="M761.44,123.91l12.2-.1a.79.79,0,0,1,.69.4,18,18,0,0,1,.14,17.16.78.78,0,0,1-.68.41l-12.19.1a1.54,1.54,0,0,0-1.11,2.58,16.17,16.17,0,0,0,12.19,5.22,16.88,16.88,0,0,0-.66-33.75,16.15,16.15,0,0,0-11.73,5.42A1.54,1.54,0,0,0,761.44,123.91Z"/><path class="cls-4" d="M898.69,140.78l-12.2.1a.79.79,0,0,1-.69-.4,18,18,0,0,1-.14-17.16.78.78,0,0,1,.68-.41l12.19-.1a1.54,1.54,0,0,0,1.11-2.58A16.17,16.17,0,0,0,887.46,115a16.88,16.88,0,0,0,.66,33.75,16.15,16.15,0,0,0,11.73-5.42A1.54,1.54,0,0,0,898.69,140.78Z"/><rect class="cls-4" x="818.82" y="86.27" width="17.29" height="92.26" transform="translate(701.67 960.89) rotate(-90.46)"/><rect class="cls-1" x="826.38" y="90.74" width="6.45" height="83.54" transform="translate(703.71 963.15) rotate(-90.46)"/><rect class="cls-12" x="278.82" y="203.63" width="98.75" height="41.28" transform="translate(552.47 -103.93) rotate(90)"/><circle class="cls-14" cx="328.62" cy="224.27" r="8.1"/><line class="cls-8" x1="339.96" y1="244.06" x2="339.96" y2="263.77"/><line class="cls-8" x1="336.07" y1="244.06" x2="336.07" y2="263.77"/><line class="cls-8" x1="332.18" y1="244.06" x2="332.18" y2="263.77"/><line class="cls-8" x1="328.28" y1="244.06" x2="328.28" y2="263.77"/><line class="cls-8" x1="324.39" y1="244.06" x2="324.39" y2="263.77"/><line class="cls-8" x1="320.5" y1="244.06" x2="320.5" y2="263.77"/><line class="cls-8" x1="316.61" y1="244.06" x2="316.61" y2="263.77"/><rect class="cls-4" x="322.12" y="238.47" width="12.17" height="30.65" transform="translate(581.99 -74.41) rotate(90)"/><circle class="cls-5" cx="339.96" cy="183.99" r="2.92"/><circle class="cls-5" cx="315.8" cy="183.99" r="2.92"/><line class="cls-8" x1="755.21" y1="277.34" x2="805.52" y2="277.34"/><line class="cls-8" x1="755.21" y1="281.78" x2="805.52" y2="281.78"/><line class="cls-8" x1="755.21" y1="286.23" x2="805.52" y2="286.23"/><line class="cls-8" x1="755.21" y1="290.68" x2="805.52" y2="290.68"/><line class="cls-8" x1="755.21" y1="295.12" x2="805.52" y2="295.12"/><line class="cls-8" x1="755.21" y1="299.57" x2="805.52" y2="299.57"/><line class="cls-8" x1="755.21" y1="304.01" x2="805.52" y2="304.01"/><rect class="cls-4" x="759.2" y="273.27" width="42.06" height="35"/><rect class="cls-1" x="765.51" y="278.92" width="29.83" height="23.9"/><rect class="cls-1" x="405.4" y="118.12" width="61.7" height="96.7"/><rect class="cls-4" x="410.64" y="123.9" width="50.92" height="15.43"/><rect class="cls-6" x="410.64" y="198.17" width="23.96" height="10.64"/><rect class="cls-4" x="437.28" y="198.17" width="10.64" height="10.64"/><rect class="cls-12" x="450.91" y="198.17" width="10.64" height="10.64"/><rect class="cls-4" x="410.64" y="184.75" width="10.64" height="10.64"/><rect class="cls-4" x="423.96" y="184.75" width="10.64" height="10.64"/><rect class="cls-12" x="450.91" y="184.75" width="10.64" height="10.64"/><rect class="cls-4" x="410.64" y="171.04" width="10.64" height="10.64"/><rect class="cls-4" x="423.96" y="171.04" width="10.64" height="10.64"/><rect class="cls-12" x="450.91" y="171.04" width="10.64" height="10.64"/><rect class="cls-4" x="437.28" y="184.75" width="10.64" height="10.64"/><rect class="cls-4" x="437.28" y="171.04" width="10.64" height="10.64"/><rect class="cls-4" x="437.28" y="157.56" width="10.64" height="10.64"/><rect class="cls-4" x="423.96" y="157.56" width="10.64" height="10.64"/><rect class="cls-4" x="410.64" y="157.56" width="10.64" height="10.64"/><rect class="cls-12" x="450.91" y="157.56" width="10.64" height="10.64"/><rect class="cls-12" x="437.28" y="144.07" width="10.64" height="10.64"/><rect class="cls-12" x="423.96" y="144.07" width="10.64" height="10.64"/><rect class="cls-12" x="410.64" y="144.07" width="10.64" height="10.64"/><rect class="cls-12" x="450.91" y="144.07" width="10.64" height="10.64"/><line class="cls-8" x1="797.75" y1="240.66" x2="797.75" y2="260.37"/><line class="cls-8" x1="793.85" y1="240.66" x2="793.85" y2="260.37"/><line class="cls-8" x1="789.96" y1="240.66" x2="789.96" y2="260.37"/><line class="cls-8" x1="786.07" y1="240.66" x2="786.07" y2="260.37"/><line class="cls-8" x1="782.17" y1="240.66" x2="782.17" y2="260.37"/><line class="cls-8" x1="778.28" y1="240.66" x2="778.28" y2="260.37"/><line class="cls-8" x1="774.39" y1="240.66" x2="774.39" y2="260.37"/><rect class="cls-4" x="779.9" y="235.07" width="12.17" height="30.65" transform="translate(1036.37 -535.59) rotate(90)"/><rect class="cls-15" x="1051.53" y="297.77" width="11.57" height="11.24" rx="0.9" ry="0.9" transform="translate(753.92 1360.71) rotate(-90)"/><path class="cls-12" d="M1054.64,119.28l-3.76,11.39h12.9L1060,119.28a8.5,8.5,0,0,1-5.38,0Z"/><path class="cls-4" d="M1054.64,119.28a8.5,8.5,0,0,0,5.38,0l-2.69-8.13Z"/><rect class="cls-4" x="977.24" y="204.31" width="160.18" height="12.9" transform="translate(846.57 1268.09) rotate(-90)"/><rect class="cls-12" x="1053.43" y="288.31" width="7.78" height="12.87" transform="translate(762.58 1352.06) rotate(-90)"/><rect class="cls-16" x="911.67" y="129.94" width="125.54" height="179.3"/><rect class="cls-5" x="911.67" y="129.94" width="125.54" height="13.42"/><rect class="cls-1" x="911.67" y="143.36" width="125.54" height="1.52"/><g class="cls-17"><line class="cls-18" x1="1037.21" y1="299.57" x2="911.67" y2="299.57"/><line class="cls-18" x1="1037.21" y1="292.54" x2="911.67" y2="292.54"/><line class="cls-18" x1="1037.21" y1="285.52" x2="911.67" y2="285.52"/><line class="cls-18" x1="1037.21" y1="278.5" x2="911.67" y2="278.5"/><line class="cls-18" x1="1037.21" y1="271.47" x2="911.67" y2="271.47"/><line class="cls-18" x1="1037.21" y1="264.45" x2="911.67" y2="264.45"/><line class="cls-18" x1="1037.21" y1="257.42" x2="911.67" y2="257.42"/><line class="cls-18" x1="1037.21" y1="250.4" x2="911.67" y2="250.4"/><line class="cls-18" x1="1037.21" y1="243.38" x2="911.67" y2="243.38"/><line class="cls-18" x1="1037.21" y1="236.35" x2="911.67" y2="236.35"/><line class="cls-18" x1="1037.21" y1="229.33" x2="911.67" y2="229.33"/><line class="cls-18" x1="1037.21" y1="222.3" x2="911.67" y2="222.3"/><line class="cls-18" x1="1037.21" y1="215.28" x2="911.67" y2="215.28"/><line class="cls-18" x1="1037.21" y1="208.26" x2="911.67" y2="208.26"/><line class="cls-18" x1="1037.21" y1="201.23" x2="911.67" y2="201.23"/><line class="cls-18" x1="1037.21" y1="194.21" x2="911.67" y2="194.21"/><line class="cls-18" x1="1037.21" y1="187.18" x2="911.67" y2="187.18"/><line class="cls-18" x1="1037.21" y1="180.16" x2="911.67" y2="180.16"/><line class="cls-18" x1="1037.21" y1="173.14" x2="911.67" y2="173.14"/><line class="cls-18" x1="1037.21" y1="166.11" x2="911.67" y2="166.11"/><line class="cls-18" x1="1037.21" y1="159.09" x2="911.67" y2="159.09"/><line class="cls-18" x1="1037.21" y1="152.06" x2="911.67" y2="152.06"/></g><line class="cls-8" x1="927.35" y1="158.59" x2="927.35" y2="167.68"/><line class="cls-8" x1="930.76" y1="158.59" x2="931.67" y2="168.55"/><line class="cls-8" x1="938.03" y1="159.97" x2="938.03" y2="167.68"/><line class="cls-8" x1="934.85" y1="159.28" x2="934.85" y2="168.37"/><line class="cls-8" x1="942.12" y1="161.09" x2="922.8" y2="163.57"/><line class="cls-8" x1="954.62" y1="158.59" x2="954.62" y2="167.68"/><line class="cls-8" x1="958.03" y1="158.59" x2="958.94" y2="168.55"/><line class="cls-8" x1="965.3" y1="159.97" x2="965.3" y2="167.68"/><line class="cls-8" x1="962.12" y1="159.28" x2="962.12" y2="168.37"/><line class="cls-8" x1="969.39" y1="162.45" x2="950.07" y2="164.93"/><line class="cls-8" x1="981.89" y1="158.59" x2="981.89" y2="167.68"/><line class="cls-8" x1="985.3" y1="158.59" x2="986.21" y2="168.55"/><line class="cls-8" x1="992.57" y1="159.97" x2="992.57" y2="167.68"/><line class="cls-8" x1="989.39" y1="159.28" x2="989.39" y2="168.37"/><line class="cls-8" x1="996.66" y1="165.18" x2="977.35" y2="162.21"/><line class="cls-8" x1="1019.39" y1="168.55" x2="1019.39" y2="159.46"/><line class="cls-8" x1="1015.98" y1="168.55" x2="1015.07" y2="158.59"/><line class="cls-8" x1="1008.71" y1="167.18" x2="1008.71" y2="159.46"/><line class="cls-8" x1="1011.89" y1="167.86" x2="1011.89" y2="158.77"/><line class="cls-8" x1="1004.62" y1="161.96" x2="1023.93" y2="166.3"/><path class="cls-1" d="M615.59,68.29,613.54,171.6a4.87,4.87,0,0,0,9.73,0L621.2,68.29l2.52-9.64L621.2,45.55h-5.6l-2.52,13.09Z"/><path class="cls-4" d="M630.75,187.21a8.92,8.92,0,0,1,2.29-6,5.92,5.92,0,0,0,1.6-3.94v-4.37a9.24,9.24,0,0,0-9.24-9.24h-14a9.24,9.24,0,0,0-9.24,9.24v4.37a5.92,5.92,0,0,0,1.6,3.94,9,9,0,0,1,0,12,5.92,5.92,0,0,0-1.6,3.94v46.38a9.24,9.24,0,0,0,9.24,9.24h14a9.24,9.24,0,0,0,9.24-9.24V197.12a5.92,5.92,0,0,0-1.6-3.94A8.92,8.92,0,0,1,630.75,187.21Z"/><line class="cls-19" x1="618.39" y1="244.3" x2="618.39" y2="200.82"/><line class="cls-19" x1="609.99" y1="244.3" x2="609.99" y2="200.82"/><line class="cls-19" x1="626.8" y1="244.3" x2="626.8" y2="200.82"/><path class="cls-20" d="M898.7,308.28c-3.92,0-3.92-52.61-7.85-52.61s-3.92,52.61-7.85,52.61-3.92-52.61-7.85-52.61-3.92,52.61-7.85,52.61-3.92-52.61-7.85-52.61-3.92,52.61-7.85,52.61-3.92-52.61-7.85-52.61-3.92,52.61-7.85,52.61-3.92-52.61-7.85-52.61-3.93,52.61-7.85,52.61-3.92-52.61-7.85-52.61"/><path class="cls-4" d="M714.84,255.26h-11a1.74,1.74,0,0,0-1.5.85l-5.51,9.39a1.68,1.68,0,0,0,0,1.7l5.51,9.39a1.74,1.74,0,0,0,1.5.85h11a1.74,1.74,0,0,0,1.5-.85l5.51-9.39a1.68,1.68,0,0,0,0-1.7l-5.51-9.39A1.74,1.74,0,0,0,714.84,255.26Zm-4.09,18.07a7.12,7.12,0,1,1,5.68-5.59A7.18,7.18,0,0,1,710.74,273.33Z"/><path class="cls-4" d="M672.12,246.63l-7.79,7.79a1.74,1.74,0,0,0-.46,1.66l2.74,10.53a1.68,1.68,0,0,0,1.2,1.2l10.53,2.74a1.74,1.74,0,0,0,1.66-.46l7.79-7.79a1.74,1.74,0,0,0,.46-1.66l-2.74-10.53a1.68,1.68,0,0,0-1.2-1.2l-10.53-2.74A1.74,1.74,0,0,0,672.12,246.63ZM682,262.3a7.12,7.12,0,1,1,.07-8A7.18,7.18,0,0,1,682,262.3Z"/><path class="cls-4" d="M731.85,288.4l-7.79-7.79a1.74,1.74,0,0,0-1.66-.46l-10.53,2.74a1.68,1.68,0,0,0-1.2,1.2l-2.74,10.53a1.74,1.74,0,0,0,.46,1.66l7.79,7.79a1.74,1.74,0,0,0,1.66.46l10.53-2.74a1.68,1.68,0,0,0,1.2-1.2l2.74-10.53A1.74,1.74,0,0,0,731.85,288.4Zm-15.67,9.88a7.12,7.12,0,1,1,8,.07A7.18,7.18,0,0,1,716.18,298.29Z"/><rect class="cls-4" x="683.66" y="287.07" width="12.14" height="22.69" rx="0.9" ry="0.9" transform="translate(391.31 988.16) rotate(-90)"/><rect class="cls-1" x="683.22" y="291.41" width="12.14" height="14.03" transform="translate(390.87 987.71) rotate(-90)"/><path class="cls-4" d="M677.85,276.23h21.06a1.81,1.81,0,0,1,1.81,1.81v5.75a1.81,1.81,0,0,1-1.81,1.81H677.85a0,0,0,0,1,0,0v-9.36A0,0,0,0,1,677.85,276.23Z" transform="translate(408.37 970.2) rotate(-90)"/><line class="cls-21" x1="684.61" y1="290.69" x2="693.97" y2="287.87"/><line class="cls-21" x1="684.61" y1="287.07" x2="693.97" y2="284.25"/><line class="cls-21" x1="684.61" y1="283.46" x2="693.97" y2="280.63"/><line class="cls-21" x1="684.61" y1="279.84" x2="693.97" y2="277.02"/><line class="cls-21" x1="684.61" y1="276.22" x2="693.97" y2="273.4"/><line class="cls-21" x1="684.61" y1="272.61" x2="690.68" y2="270.77"/><rect class="cls-4" x="725.39" y="240.43" width="12.14" height="22.69" rx="0.9" ry="0.9" transform="translate(983.24 -479.69) rotate(90)"/><rect class="cls-1" x="725.84" y="244.76" width="12.14" height="14.03" transform="translate(983.69 -480.13) rotate(90)"/><path class="cls-4" d="M720.48,264.6h21.06a1.81,1.81,0,0,1,1.81,1.81v5.75a1.81,1.81,0,0,1-1.81,1.81H720.48a0,0,0,0,1,0,0V264.6A0,0,0,0,1,720.48,264.6Z" transform="translate(1001.2 -462.63) rotate(90)"/><line class="cls-21" x1="736.59" y1="259.51" x2="727.23" y2="262.33"/><line class="cls-21" x1="736.59" y1="263.12" x2="727.23" y2="265.95"/><line class="cls-21" x1="736.59" y1="266.74" x2="727.23" y2="269.57"/><line class="cls-21" x1="736.59" y1="270.36" x2="727.23" y2="273.18"/><line class="cls-21" x1="736.59" y1="273.97" x2="727.23" y2="276.8"/><line class="cls-21" x1="736.59" y1="277.59" x2="730.52" y2="279.42"/><rect class="cls-4" x="661.51" y="265.81" width="12.14" height="22.69" rx="0.9" ry="0.9" transform="translate(1205.64 -205.5) rotate(115.56)"/><rect class="cls-1" x="661.1" y="269.95" width="12.14" height="14.03" transform="translate(1204.89 -205.42) rotate(115.56)"/><path class="cls-4" d="M648.19,288.08h21.06a1.81,1.81,0,0,1,1.81,1.81v5.75a1.81,1.81,0,0,1-1.81,1.81H648.19a0,0,0,0,1,0,0v-9.36A0,0,0,0,1,648.19,288.08Z" transform="translate(1208.33 -176) rotate(115.56)"/><line class="cls-21" x1="659.62" y1="281.92" x2="666.84" y2="288.51"/><line class="cls-21" x1="658.06" y1="285.19" x2="665.28" y2="291.77"/><line class="cls-21" x1="656.49" y1="288.45" x2="663.72" y2="295.04"/><line class="cls-21" x1="654.93" y1="291.71" x2="662.16" y2="298.3"/><line class="cls-21" x1="653.37" y1="294.97" x2="660.6" y2="301.56"/><line class="cls-21" x1="651.81" y1="298.24" x2="656.5" y2="302.51"/><rect class="cls-22" x="645.73" y="242.09" width="99.55" height="65.29"/><rect class="cls-22" x="645.73" y="228.14" width="99.55" height="65.29"/><rect class="cls-4" x="478.68" y="269.92" width="155.76" height="38.71" rx="4.43" ry="4.43"/><path class="cls-5" d="M498.62,300.78v1.49a12,12,0,0,0,4,0v-1.48H507a13.15,13.15,0,0,0,6.72-10.42h-.84a1.08,1.08,0,0,1,0-2.17h.84a13.15,13.15,0,0,0-6.87-10.5h-4.25v-1.41a12,12,0,0,0-4,0v1.39h-4.18a13.15,13.15,0,0,0-6.87,10.5h.84a1.08,1.08,0,0,1,0,2.17h-.84a13.15,13.15,0,0,0,6.72,10.42Z"/><circle class="cls-1" cx="500.6" cy="295.92" r="1.73"/><circle class="cls-1" cx="500.6" cy="282.63" r="1.73"/><path class="cls-5" d="M531.75,300.78v1.49a12,12,0,0,0,4,0v-1.48h4.33a13.15,13.15,0,0,0,6.72-10.42H546a1.08,1.08,0,0,1,0-2.17h.84a13.15,13.15,0,0,0-6.87-10.5H535.7v-1.41a12,12,0,0,0-4,0v1.39h-4.18a13.15,13.15,0,0,0-6.87,10.5h.84a1.08,1.08,0,0,1,0,2.17h-.84a13.15,13.15,0,0,0,6.72,10.42Z"/><circle class="cls-1" cx="533.72" cy="295.92" r="1.73"/><circle class="cls-1" cx="533.72" cy="282.63" r="1.73"/><path class="cls-5" d="M564.87,300.78v1.49a12,12,0,0,0,4,0v-1.48h4.33a13.15,13.15,0,0,0,6.72-10.42h-.84a1.08,1.08,0,0,1,0-2.17h.84a13.15,13.15,0,0,0-6.87-10.5h-4.25v-1.41a12,12,0,0,0-4,0v1.39h-4.18a13.15,13.15,0,0,0-6.87,10.5h.84a1.08,1.08,0,0,1,0,2.17h-.84a13.15,13.15,0,0,0,6.72,10.42Z"/><circle class="cls-1" cx="566.85" cy="295.92" r="1.73"/><circle class="cls-1" cx="566.85" cy="282.63" r="1.73"/><path class="cls-5" d="M598,300.78v1.49a12,12,0,0,0,4,0v-1.48h4.33a13.15,13.15,0,0,0,6.72-10.42h-.84a1.08,1.08,0,0,1,0-2.17h.84a13.15,13.15,0,0,0-6.87-10.5H602v-1.41a12,12,0,0,0-4,0v1.39h-4.18a13.15,13.15,0,0,0-6.87,10.5h.84a1.08,1.08,0,0,1,0,2.17h-.84a13.15,13.15,0,0,0,6.72,10.42Z"/><circle class="cls-1" cx="599.97" cy="295.92" r="1.73"/><circle class="cls-1" cx="599.97" cy="282.63" r="1.73"/><rect class="cls-1" x="634.43" y="280.99" width="2.16" height="16.76"/><rect class="cls-23" x="619.7" y="280.63" width="7.1" height="17.49"/><line class="cls-24" x1="619.7" y1="289.28" x2="626.8" y2="289.28"/><g class="cls-17"><path class="cls-1" d="M623.25,284.2a1,1,0,1,1-1,1,1,1,0,0,1,1-1m0-.9a1.89,1.89,0,1,0,1.89,1.89,1.89,1.89,0,0,0-1.89-1.89Z"/></g><line class="cls-25" x1="623.25" y1="291.4" x2="623.25" y2="295.18"/><path class="cls-1" d="M1121.22,309.18H1142a.48.48,0,0,0,.39-.23l12.35-18.2h-33.5Z"/><path class="cls-12" d="M1104.81,290.75h-20.75a.48.48,0,0,0-.39.23l-12.35,18.2h33.5Z"/><path class="cls-16" d="M1121.22,290.75H1100.7a1,1,0,0,0-.78.46L1088.54,308c-.31.46-.07,1.19.39,1.19h32.3Z"/></g></svg>