<svg xmlns="http://www.w3.org/2000/svg" viewBox="0 0 1175 363.73"><defs><style>.cls-1,.cls-11,.cls-13,.cls-15,.cls-16,.cls-7,.cls-9{fill:none;}.cls-1{stroke:#80acb8;}.cls-1,.cls-9{stroke-linecap:round;stroke-linejoin:round;}.cls-1,.cls-13,.cls-15,.cls-7{stroke-width:0.87px;}.cls-2{fill:#c4d7dd;}.cls-3{fill:#397b8e;}.cls-4{fill:#80acb8;}.cls-5{fill:#085a72;}.cls-6{fill:#b0cad1;}.cls-7{stroke:#6195a5;}.cls-10,.cls-11,.cls-13,.cls-15,.cls-16,.cls-7{stroke-miterlimit:10;}.cls-8{fill:#6195a5;}.cls-10,.cls-9{stroke:#fff;stroke-width:1.74px;}.cls-10,.cls-17{fill:#fff;}.cls-11,.cls-13{stroke:#fce85d;}.cls-11{stroke-width:2.61px;}.cls-12{font-size:13.04px;fill:#fce85d;font-family:Dosis-Medium, Dosis;}.cls-14{fill:#b0cad2;opacity:0.8;}.cls-15{stroke:#b0cad1;}.cls-16{stroke:#085a72;stroke-width:1.3px;}</style></defs><title>stories-header</title><g id="Layer_5" data-name="Layer 5"><polyline class="cls-1" points="948.13 185.56 989.56 185.56 989.56 197.88 948.13 197.88"/><polyline class="cls-1" points="968.85 173.23 1010.27 173.23 1010.27 185.56 968.85 185.56"/><rect class="cls-2" x="577.91" y="132.12" width="370.23" height="188.89"/><rect class="cls-3" x="582.6" y="282.14" width="365.53" height="38.86"/><rect class="cls-3" x="681.78" y="144.49" width="75.47" height="137.65"/><rect class="cls-4" x="847.17" y="257.92" width="3.43" height="31.63"/><rect class="cls-4" x="918.17" y="257.92" width="3.43" height="31.63"/><rect class="cls-3" x="841.32" y="253.44" width="86.27" height="4.72"/><rect class="cls-5" x="840.46" y="202.76" width="87.99" height="45.96"/><polygon class="cls-4" points="843.25 205.58 908.76 205.58 890.28 245.9 843.25 245.9 843.25 205.58"/><rect class="cls-5" x="873.68" y="251.78" width="25.36" height="1.66"/><rect class="cls-5" x="883.52" y="247.69" width="5.26" height="5.26"/><rect class="cls-6" x="674.59" y="144.49" width="7.19" height="137.65"/><line class="cls-1" x1="1030.98" y1="197.88" x2="989.56" y2="197.88"/><line class="cls-1" x1="989.56" y1="185.56" x2="1030.98" y2="185.56"/><polyline class="cls-1" points="968.85 197.88 1010.27 197.88 1010.27 210.21 968.85 210.21"/><polyline class="cls-1" points="959.09 87.85 992.98 87.85 992.98 75.53 1034.41 75.53"/><line class="cls-1" x1="577.91" y1="132.12" x2="948.14" y2="132.12"/><line class="cls-1" x1="1051.7" y1="185.56" x2="1010.27" y2="185.56"/><path class="cls-5" d="M678.51,264.57H861a13.68,13.68,0,0,1,13.68,13.68v49.33H664.83V278.25A13.68,13.68,0,0,1,678.51,264.57Z"/><line class="cls-1" x1="1010.27" y1="173.23" x2="1051.7" y2="173.23"/><polyline class="cls-1" points="474.35 251.29 515.77 251.29 515.77 263.61 474.35 263.61"/><line class="cls-1" x1="557.2" y1="263.61" x2="515.77" y2="263.61"/><line class="cls-1" x1="515.77" y1="251.29" x2="557.2" y2="251.29"/><polyline class="cls-1" points="495.06 263.61 536.49 263.61 536.49 275.94 495.06 275.94"/><polyline class="cls-1" points="495.06 238.97 536.49 238.97 536.49 251.29 495.06 251.29"/><line class="cls-1" x1="577.91" y1="251.29" x2="536.48" y2="251.29"/><line class="cls-1" x1="536.48" y1="238.96" x2="577.91" y2="238.96"/><polyline class="cls-1" points="642.41 106.44 683.84 106.44 683.84 118.77 642.41 118.77"/><line class="cls-1" x1="725.26" y1="118.77" x2="683.84" y2="118.77"/><line class="cls-1" x1="621.7" y1="106.44" x2="663.13" y2="106.44"/><polyline class="cls-1" points="663.13 118.77 704.55 118.77 704.55 131.09"/><polyline class="cls-1" points="688.2 328.44 688.2 340.77 646.78 340.77"/><polyline class="cls-1" points="729.63 340.77 688.2 340.77 688.2 328.44"/><polyline class="cls-1" points="708.91 353.09 667.49 353.09 667.49 340.77 708.91 340.77"/><polyline class="cls-1" points="621.7 94.12 642.41 94.12 642.41 106.44 600.99 106.44"/><line class="cls-1" x1="642.41" y1="94.12" x2="683.84" y2="94.12"/><rect class="cls-4" x="1034.41" y="64.78" width="42.45" height="42.45"/><path class="cls-7" d="M1039.37,74h0a4.11,4.11,0,0,0,4.11,4.11H1068a4.11,4.11,0,0,0,4.11-4.11h0"/><path class="cls-7" d="M1039.37,80.11h0a4.11,4.11,0,0,0,4.11,4.11H1068a4.11,4.11,0,0,0,4.11-4.11h0"/><path class="cls-7" d="M1039.37,86.27h0a4.11,4.11,0,0,0,4.11,4.11H1068a4.11,4.11,0,0,0,4.11-4.11h0"/><path class="cls-7" d="M1039.37,92.44h0a4.11,4.11,0,0,0,4.11,4.11H1068a4.11,4.11,0,0,0,4.11-4.11h0"/><path class="cls-7" d="M1039.37,98.6h0a4.11,4.11,0,0,0,4.11,4.11H1068a4.11,4.11,0,0,0,4.11-4.11h0"/><rect class="cls-8" x="569.49" y="321.06" width="385.66" height="10.4"/><path class="cls-9" d="M1034.41,68.47V67.1a2.31,2.31,0,0,1,2.31-2.31h37.35a2.79,2.79,0,0,1,2.79,2.79V78.06"/><path class="cls-10" d="M755,321.06c7.45,0,11.81,3.66,22.08,3.66s16.95-3.66,24.65-3.66,20.8,3.66,42.11,3.66,21.81-3.66,39.45-3.66"/><circle class="cls-3" cx="623.46" cy="190.04" r="18.95"/><circle class="cls-4" cx="623.46" cy="190.04" r="12.67"/><path class="cls-11" d="M623.46,177.37a12.67,12.67,0,1,0,8.59,22"/><text class="cls-12" transform="translate(616.78 194.39)">20</text><circle class="cls-13" cx="631.03" cy="184.2" r="1.26"/><path class="cls-14" d="M1156.61,71.93h-20.28a4,4,0,0,1-4-4v-.21a4,4,0,0,1,4-4h8a4,4,0,0,0,4-4v-.21a4,4,0,0,0-4-4h-23.56a4,4,0,0,0-4,4v.21a4,4,0,0,1-4,4h-11.28a4,4,0,0,0-4,4v.21a4,4,0,0,1-4,4h-14.61a4,4,0,0,0-4,4v.21a4,4,0,0,0,4,4h0a4,4,0,0,1,4,4v.14a4,4,0,0,1-4,4h-9.42a4,4,0,0,0-4,4v.21a4,4,0,0,0,4,4h26.86a4,4,0,0,0,4-4v-.14a4,4,0,0,1,4-4H1140a4,4,0,0,0,4-4v-.21a4,4,0,0,1,4-4h8.62a4,4,0,0,0,4-4v-.21A4,4,0,0,0,1156.61,71.93Zm-42.28,8.23h-3.78a3,3,0,0,1,0-5.95h3.78a3,3,0,0,1,0,5.95Z"/><rect class="cls-5" x="650.36" y="261.66" width="3.81" height="3.81" transform="translate(1304.53 527.14) rotate(-180)"/><rect class="cls-4" x="641.84" y="278.35" width="2.84" height="7.58" transform="translate(1286.53 564.28) rotate(-180)"/><rect class="cls-3" x="577.91" y="257.73" width="73.26" height="20.62" transform="translate(1229.08 536.08) rotate(-180)"/><rect class="cls-3" x="653.14" y="259.79" width="8.03" height="7.56" transform="translate(1314.32 527.14) rotate(-180)"/><line class="cls-15" x1="661.17" y1="261.71" x2="653.14" y2="261.71"/><line class="cls-15" x1="661.17" y1="263.73" x2="653.14" y2="263.73"/><line class="cls-15" x1="661.17" y1="265.75" x2="653.14" y2="265.75"/><rect class="cls-4" x="577.91" y="132.12" width="9.38" height="188.95"/><path class="cls-5" d="M822.8,253.44h10.7a.34.34,0,0,1,.34.34V265.4a.87.87,0,0,1-.87.87H822.46a0,0,0,0,1,0,0V253.78A.34.34,0,0,1,822.8,253.44Z"/><path class="cls-16" d="M820,255h1.27a2.07,2.07,0,0,1,2.07,2.07v2.16a2.07,2.07,0,0,1-2.07,2.07H820a0,0,0,0,1,0,0V255A0,0,0,0,1,820,255Z" transform="translate(1643.25 516.32) rotate(180)"/><path class="cls-14" d="M869.23,237.76H858.84a2.05,2.05,0,0,1-2.05-2.05v-.11a2.05,2.05,0,0,1,2.05-2.05h4.08A2.05,2.05,0,0,0,865,231.5v-.11a2.05,2.05,0,0,0-2.05-2.05H850.87a2.05,2.05,0,0,0-2.05,2.05v.11a2.05,2.05,0,0,1-2.05,2.05H841a2.05,2.05,0,0,0-2.05,2.05v.11a2.05,2.05,0,0,1-2.05,2.05h-7.47a2.05,2.05,0,0,0-2.05,2.05v.11a2.05,2.05,0,0,0,2.05,2.05h0a2.05,2.05,0,0,1,2.05,2.05v.07a2.05,2.05,0,0,1-2.05,2.05h-4.82a2.05,2.05,0,0,0-2.05,2.05v.11a2.05,2.05,0,0,0,2.05,2.05h13.75a2.05,2.05,0,0,0,2.05-2.05v-.07a2.05,2.05,0,0,1,2.05-2.05h18.27a2.05,2.05,0,0,0,2.05-2.05V244a2.05,2.05,0,0,1,2.05-2.05h4.41a2.05,2.05,0,0,0,2.05-2.05v-.11A2.05,2.05,0,0,0,869.23,237.76ZM847.59,242h-1.94a1.52,1.52,0,1,1,0-3h1.94a1.52,1.52,0,1,1,0,3Z"/><path class="cls-5" d="M790.38,251.78s-3.77-24-28.42-24-39.52,19.63-39.52,70.64h61.7s-8.55-39.34,6.24-46.68Z"/><path class="cls-4" d="M790.38,251.78s9,24.67,10.27,25.05c2.22-1.68,17.4-11.22,17.4-11.22a7,7,0,0,0,2.2-2.28c1.26-2.11.15-7.51,2.2-7.51,0,1.75,2.46,3.73,5.56,3.77,3.55,0,5.82-1.88,5.82-3.94a1.88,1.88,0,0,1,1.9,1.39c.32.9-.17,1-.16,1.92,0,.56.35.94.42,1.8.12,1.5-1,1.57-.61,2.6.9,2.62-2.58,2.63-7.24,5.26-7.36,4.16-26.75,35.18-39.82,29-8.44-4-20.88-40.06-20.88-40.06C772.52,257.58,782.53,257.71,790.38,251.78Z"/><path class="cls-4" d="M788.28,235.29c-5.19,6.47-11,5.62-18,3-4.69-1.76-10.72-7.43-8.6-9.12,5.47-4.36,5.35-7.45,7.09-12.09,2.91-7.77,10.68-12,17.9-9.33C802.23,213.57,793.13,229.23,788.28,235.29Z"/><path class="cls-5" d="M769.75,226.5c2.42,1.68,8.85,3,11.13,1.39s1.56-4.72,3.24-5.72,2.73.08,2.41,2.63,1.7.4,2.11-.51-.88-5.89.51-8,4.71-.85,6.09.64c1.63.12.74-3.71-2.28-6.41s-8.66-6.8-15.14-4.68-9.5,8.6-11,13.65C765.44,224.13,767.33,224.82,769.75,226.5Z"/><path class="cls-17" d="M587.83,268.38c1,12.92.88,34.89,20.12,34.89,0,0,10.27,13.35,25.16,13.18,11.3-.13,16.95-4.82,22.85-4.82,0,0,5.52,3.46,19.26,3.46l55.53,5.9H577.91v-1c7,0,7.15-40.22,8.6-51.66A.66.66,0,0,1,587.83,268.38Z"/><path class="cls-9" d="M569.49,324.72v-.87a2.79,2.79,0,0,1,2.79-2.79H952.19a3,3,0,0,1,3,3v9.43"/><line class="cls-1" x1="636.13" y1="353.09" x2="667.49" y2="353.09"/><line class="cls-1" x1="683.5" y1="106.44" x2="704.21" y2="106.44"/><line class="cls-1" x1="992.98" y1="75.53" x2="978.26" y2="75.53"/><line class="cls-1" x1="992.98" y1="87.85" x2="1034.41" y2="87.85"/></g></svg>