<svg xmlns="http://www.w3.org/2000/svg" xmlns:xlink="http://www.w3.org/1999/xlink" viewBox="0 0 500 500"><defs><style>.cls-1,.cls-3,.cls-6{fill:none;}.cls-2{fill:#c4d7dd;}.cls-3{stroke:#80acb8;stroke-linecap:round;stroke-linejoin:round;}.cls-4{fill:#085a72;}.cls-5{fill:#80acb8;}.cls-6{stroke:#085a72;stroke-miterlimit:10;stroke-width:1.5px;}.cls-7{fill:#b0cad2;opacity:0.8;}.cls-8{fill:#fce85d;}.cls-9{clip-path:url(#clip-path);}</style><clipPath id="clip-path"><circle class="cls-1" cx="253.77" cy="239.83" r="178.09"/></clipPath></defs><title>stories</title><g id="Layer_10" data-name="Layer 10"><circle class="cls-2" cx="253.77" cy="239.83" r="178.09"/><polyline class="cls-3" points="331.83 401.07 379.5 401.07 379.5 415.25 331.83 415.25"/><line class="cls-3" x1="427.18" y1="415.25" x2="379.5" y2="415.25"/><line class="cls-3" x1="379.5" y1="401.07" x2="427.18" y2="401.07"/><polyline class="cls-3" points="355.67 415.25 403.34 415.25 403.34 429.44 355.67 429.44"/><polyline class="cls-3" points="355.67 386.88 403.34 386.88 403.34 401.07 355.67 401.07"/><line class="cls-3" x1="451.02" y1="401.07" x2="403.34" y2="401.07"/><line class="cls-3" x1="403.34" y1="386.88" x2="451.02" y2="386.88"/><rect class="cls-4" x="290.51" y="197.55" width="170.61" height="89.12"/><polygon class="cls-5" points="295.9 203.02 422.94 203.02 387.09 281.19 295.9 281.19 295.9 203.02"/><rect class="cls-4" x="354.92" y="292.61" width="49.16" height="3.21"/><rect class="cls-4" x="373.98" y="284.68" width="10.21" height="10.21"/><path class="cls-4" d="M260.3,282.26h18.07a.39.39,0,0,1,.39.39v19.85a1,1,0,0,1-1,1H259.91a0,0,0,0,1,0,0V282.66A.39.39,0,0,1,260.3,282.26Z"/><path class="cls-6" d="M255.76,284.87h3.15a2.38,2.38,0,0,1,2.38,2.38v5.66a2.38,2.38,0,0,1-2.38,2.38h-3.15a0,0,0,0,1,0,0V284.87A0,0,0,0,1,255.76,284.87Z" transform="translate(517.05 580.16) rotate(180)"/><path class="cls-7" d="M337.36,256.3H320.17a3.4,3.4,0,0,1-3.4-3.4v-.18a3.4,3.4,0,0,1,3.4-3.4h6.77a3.4,3.4,0,0,0,3.4-3.4v-.18a3.4,3.4,0,0,0-3.4-3.4H307a3.4,3.4,0,0,0-3.4,3.4v.18a3.4,3.4,0,0,1-3.4,3.4H290.6a3.4,3.4,0,0,0-3.4,3.4v.18a3.4,3.4,0,0,1-3.4,3.4H271.43a3.4,3.4,0,0,0-3.4,3.4v.18a3.4,3.4,0,0,0,3.4,3.4h0a3.4,3.4,0,0,1,3.4,3.4v.12a3.4,3.4,0,0,1-3.4,3.4h-8a3.4,3.4,0,0,0-3.4,3.4v.18a3.4,3.4,0,0,0,3.4,3.4h22.77a3.4,3.4,0,0,0,3.4-3.4v-.12a3.4,3.4,0,0,1,3.4-3.4h30.26a3.4,3.4,0,0,0,3.4-3.4v-.18a3.4,3.4,0,0,1,3.4-3.4h7.3a3.4,3.4,0,0,0,3.4-3.4v-.18A3.4,3.4,0,0,0,337.36,256.3Zm-35.84,7h-3.21a2.52,2.52,0,0,1,0-5h3.21a2.52,2.52,0,0,1,0,5Z"/><path class="cls-8" d="M206.78,279.52s-6.24-39.69-47.06-39.69c-30.11,0-51.41,17.69-60.51,60.87h94.72c1.88-9.61,5.73-17.64,12.86-21.17Z"/><path class="cls-5" d="M206.78,279.52s14.91,40.85,17,41.49c3.67-2.79,28.82-18.59,28.82-18.59a11.51,11.51,0,0,0,3.65-3.77c2.09-3.5.25-12.44,3.65-12.44,0,2.91,4.08,6.18,9.21,6.24,5.88.07,9.64-3.12,9.64-6.52a3.11,3.11,0,0,1,3.15,2.3c.53,1.48-.27,1.59-.27,3.17,0,.92.57,1.55.69,3,.2,2.48-1.59,2.6-1,4.31,1.49,4.34-4.27,4.36-12,8.72-12.2,6.88-44.3,58.26-66,48.1-14-6.69-34.59-66.34-34.59-66.34C177.19,289.12,193.78,289.33,206.78,279.52Z"/><path class="cls-5" d="M203.29,252.2c-8.59,10.72-18.2,9.31-29.75,5-7.77-2.91-17.75-12.3-14.24-15.1,9.07-7.23,8.86-12.34,11.75-20,4.82-12.87,17.69-19.94,29.64-15.46C226.4,216.23,211.33,242.16,203.29,252.2Z"/><path class="cls-4" d="M172.6,237.65c4,2.78,14.66,5,18.43,2.31s2.59-7.82,5.36-9.47,4.52.14,4,4.36,2.81.66,3.5-.85-1.46-9.75.85-13.32,7.8-1.41,10.09,1.05c2.7.2,1.23-6.14-3.78-10.62s-14.34-11.26-25.07-7.74-15.74,14.25-18.2,22.61C165.47,233.72,168.6,234.87,172.6,237.65Z"/><polyline class="cls-3" points="47.47 82.5 95.15 82.5 95.15 96.68 47.47 96.68"/><polyline class="cls-3" points="71.31 68.31 118.98 68.31 118.98 82.5 71.31 82.5"/><line class="cls-3" x1="142.82" y1="96.68" x2="95.15" y2="96.68"/><line class="cls-3" x1="95.15" y1="82.5" x2="142.82" y2="82.5"/><polyline class="cls-3" points="71.31 96.68 118.98 96.68 118.98 110.86 71.31 110.86"/><line class="cls-3" x1="166.66" y1="82.5" x2="118.99" y2="82.5"/><line class="cls-3" x1="118.99" y1="68.31" x2="166.66" y2="68.31"/><g class="cls-9"><path class="cls-4" d="M87.7,300.7H355.76a15.75,15.75,0,0,1,15.75,15.75V417.92H87.7Z"/></g></g></svg>